<svg width="395" height="395" viewBox="0 0 395 395" fill="none" xmlns="http://www.w3.org/2000/svg">
<path d="M395 302.096H0V302.293H395V302.096Z" fill="#EBEBEB"/>
<path d="M355.421 314.807H329.256V315.005H355.421V314.807Z" fill="#EBEBEB"/>
<path d="M261.664 316.956H254.799V317.153H261.664V316.956Z" fill="#EBEBEB"/>
<path d="M328.466 307.476H313.306V307.673H328.466V307.476Z" fill="#EBEBEB"/>
<path d="M75.5635 308.803H41.4434V309.001H75.5635V308.803Z" fill="#EBEBEB"/>
<path d="M87.6031 308.803H82.6024V309.001H87.6031V308.803Z" fill="#EBEBEB"/>
<path d="M177.868 312.137H103.861V312.334H177.868V312.137Z" fill="#EBEBEB"/>
<path d="M187.23 266.862H34.6889C33.4939 266.86 32.3486 266.384 31.5043 265.538C30.6601 264.692 30.1859 263.546 30.1859 262.351V47.9214C30.1963 46.7332 30.675 45.5972 31.5182 44.7599C32.3613 43.9227 33.5007 43.452 34.6889 43.45H187.23C188.426 43.45 189.574 43.9252 190.42 44.7712C191.266 45.6171 191.741 46.7645 191.741 47.9609V262.351C191.741 263.547 191.266 264.695 190.42 265.541C189.574 266.387 188.426 266.862 187.23 266.862ZM34.6889 43.608C33.5463 43.61 32.4512 44.0654 31.644 44.8741C30.8367 45.6828 30.3834 46.7787 30.3834 47.9214V262.351C30.3834 263.494 30.8367 264.59 31.644 265.398C32.4512 266.207 33.5463 266.662 34.6889 266.664H187.23C188.373 266.662 189.469 266.207 190.278 265.399C191.086 264.59 191.541 263.494 191.543 262.351V47.9214C191.541 46.778 191.086 45.6821 190.278 44.8736C189.469 44.0652 188.373 43.61 187.23 43.608H34.6889Z" fill="#EBEBEB"/>
<path d="M358.115 266.862H205.566C204.37 266.86 203.224 266.384 202.379 265.538C201.533 264.693 201.057 263.547 201.055 262.351V47.9214C201.067 46.7325 201.548 45.5964 202.392 44.7594C203.237 43.9225 204.377 43.452 205.566 43.45H358.115C359.302 43.4541 360.439 43.9257 361.281 44.7627C362.122 45.5997 362.6 46.7346 362.61 47.9214V262.351C362.61 263.545 362.137 264.69 361.294 265.535C360.452 266.381 359.309 266.858 358.115 266.862ZM205.566 43.608C204.423 43.61 203.327 44.0652 202.518 44.8736C201.71 45.6821 201.255 46.778 201.252 47.9214V262.351C201.255 263.494 201.71 264.59 202.518 265.399C203.327 266.207 204.423 266.662 205.566 266.664H358.115C359.258 266.662 360.354 266.207 361.163 265.399C361.971 264.59 362.426 263.494 362.428 262.351V47.9214C362.426 46.778 361.971 45.6821 361.163 44.8736C360.354 44.0652 359.258 43.61 358.115 43.608H205.566Z" fill="#EBEBEB"/>
<path d="M334.123 63.0262H180.238V198.195H334.123V63.0262Z" fill="#E6E6E6"/>
<path d="M338.144 63.0262H182.119V198.195H338.144V63.0262Z" fill="#F0F0F0"/>
<path d="M334.123 198.187H180.238V201.916H334.123V198.187Z" fill="#E6E6E6"/>
<path d="M344.827 198.187H188.802V201.916H344.827V198.187Z" fill="#F0F0F0"/>
<path d="M332.519 192.578V68.6431L187.736 68.6431V192.578H332.519Z" fill="#FAFAFA"/>
<path d="M207.114 192.57L223.08 68.6431H250.722L234.748 192.57H207.114Z" fill="white"/>
<path d="M240.681 192.57L256.655 68.6431H267.431L251.457 192.57H240.681Z" fill="white"/>
<path d="M332.527 192.57V68.6353H331.816V192.57H332.527Z" fill="#E6E6E6"/>
<path opacity="0.5" d="M339.463 80.4536H185.579L185.065 70.8235H338.95L339.463 80.4536Z" fill="#E0E0E0"/>
<path opacity="0.5" d="M339.463 96.2772H185.579L185.065 86.655H338.95L339.463 96.2772Z" fill="#E0E0E0"/>
<path opacity="0.5" d="M339.463 112.101H185.579L185.065 102.479H338.95L339.463 112.101Z" fill="#E0E0E0"/>
<path opacity="0.5" d="M339.463 127.933H185.579L185.065 118.302H338.95L339.463 127.933Z" fill="#E0E0E0"/>
<path opacity="0.5" d="M339.463 143.756H185.579L185.065 134.126H338.95L339.463 143.756Z" fill="#E0E0E0"/>
<path opacity="0.5" d="M339.463 159.58H185.579L185.065 149.95H338.95L339.463 159.58Z" fill="#E0E0E0"/>
<path d="M94.405 91.4188H46.3335V186.464H94.405V91.4188Z" fill="#E0E0E0"/>
<path d="M97.2569 91.4188H48.2374V186.464H97.2569V91.4188Z" fill="#F5F5F5"/>
<path d="M52.3375 96.9172L52.3375 180.965H93.141V96.9172H52.3375Z" fill="white"/>
<path d="M158.585 76.9144H110.513V171.959H158.585V76.9144Z" fill="#E0E0E0"/>
<path d="M161.437 76.9144H112.417V171.959H161.437V76.9144Z" fill="#F5F5F5"/>
<path d="M116.525 82.4128V166.461H157.336V82.4128H116.525Z" fill="white"/>
<path d="M150.045 214.501H129.813V302.096H150.045V214.501Z" fill="#E6E6E6"/>
<path d="M146.205 302.096H150.045V293.177H142.176L146.205 302.096Z" fill="#F0F0F0"/>
<path d="M74.418 214.501H54.1861V302.096H74.418V214.501Z" fill="#E6E6E6"/>
<path d="M150.045 214.501H71.0605V296.621H150.045V214.501Z" fill="#F0F0F0"/>
<path d="M111.84 219.96V285.466H147.059V219.96H111.84Z" fill="#E6E6E6"/>
<path d="M74.0388 219.96V285.466H109.257V219.96H74.0388Z" fill="#E6E6E6"/>
<path d="M95.1397 222.464H88.1719C85.2518 222.493 82.4162 221.485 80.1692 219.62H103.142C100.895 221.485 98.0597 222.493 95.1397 222.464Z" fill="#F0F0F0"/>
<path d="M133.297 222.464H126.329C123.409 222.494 120.573 221.486 118.326 219.62H141.299C139.052 221.485 136.217 222.493 133.297 222.464Z" fill="#F0F0F0"/>
<path d="M74.9078 302.096H71.0605V293.177H78.9368L74.9078 302.096Z" fill="#F0F0F0"/>
<path d="M89.6018 206.143C89.6018 206.143 90.2022 214.501 113.231 214.501C136.259 214.501 136.86 206.143 136.86 206.143H89.6018Z" fill="#E6E6E6"/>
<path d="M180.373 243.612L353.241 243.612V229.139L180.373 229.139V243.612Z" fill="#EBEBEB"/>
<path d="M180.381 243.612H229.448V229.139H180.381V243.612Z" fill="#E0E0E0"/>
<path d="M342.9 302.096H353.249V243.612H342.9V302.096Z" fill="#EBEBEB"/>
<path d="M342.899 247.665L353.248 245.643V243.612H342.899V247.665Z" fill="#E0E0E0"/>
<path d="M180.373 302.096H190.722V243.612H180.373V302.096Z" fill="#E0E0E0"/>
<path d="M219.099 302.096H229.448V243.612H219.099V302.096Z" fill="#EBEBEB"/>
<path d="M219.099 247.665L229.448 245.643V243.612H219.099V247.665Z" fill="#E0E0E0"/>
<path d="M310.502 302.096H320.851V243.612H310.502V302.096Z" fill="#E0E0E0"/>
<path d="M197.5 337.772C282.095 337.772 350.673 333.769 350.673 328.83C350.673 323.891 282.095 319.887 197.5 319.887C112.905 319.887 44.3269 323.891 44.3269 328.83C44.3269 333.769 112.905 337.772 197.5 337.772Z" fill="#F5F5F5"/>
<path d="M183.683 102.171H89.4438C87.9516 102.155 86.4725 102.45 85.1005 103.037C83.7284 103.624 82.4935 104.49 81.4742 105.58C80.4549 106.67 79.6734 107.96 79.1794 109.368C78.6855 110.777 78.4899 112.272 78.605 113.76L92.114 314.736C92.3688 317.867 93.7802 320.79 96.0732 322.937C98.3661 325.084 101.376 326.3 104.517 326.349H198.756C200.25 326.366 201.732 326.071 203.106 325.483C204.48 324.895 205.716 324.027 206.735 322.934C207.755 321.841 208.535 320.547 209.026 319.135C209.517 317.724 209.708 316.225 209.587 314.736L196.078 113.76C195.818 110.635 194.405 107.718 192.114 105.576C189.824 103.434 186.818 102.221 183.683 102.171Z" fill="#48A6FF"/>
<path opacity="0.3" d="M183.683 102.171H89.4438C87.9516 102.155 86.4725 102.45 85.1005 103.037C83.7284 103.624 82.4935 104.49 81.4742 105.58C80.4549 106.67 79.6734 107.96 79.1794 109.368C78.6855 110.777 78.4899 112.272 78.605 113.76L92.114 314.736C92.3688 317.867 93.7802 320.79 96.0732 322.937C98.3661 325.084 101.376 326.3 104.517 326.349H198.756C200.25 326.366 201.732 326.071 203.106 325.483C204.48 324.895 205.716 324.027 206.735 322.934C207.755 321.841 208.535 320.547 209.026 319.135C209.517 317.724 209.708 316.225 209.587 314.736L196.078 113.76C195.818 110.635 194.405 107.718 192.114 105.576C189.824 103.434 186.818 102.221 183.683 102.171Z" fill="white"/>
<path d="M78.7206 145.232L77.9323 145.285L79.2047 164.242L79.993 164.189L78.7206 145.232Z" fill="#48A6FF"/>
<path d="M80.6928 174.156L79.9046 174.209L80.4764 182.706L81.2646 182.653L80.6928 174.156Z" fill="#48A6FF"/>
<path d="M98.9554 316.79C99.0197 317.556 98.8025 318.319 98.3446 318.937C97.8866 319.554 97.2193 319.984 96.4675 320.144C95.7157 320.305 94.9311 320.186 94.2606 319.81C93.5902 319.434 93.0797 318.827 92.825 318.101C92.4321 317.032 92.1927 315.912 92.114 314.775L78.605 113.76C78.525 112.628 78.6156 111.491 78.8736 110.387C79.0324 109.634 79.4604 108.965 80.0773 108.505C80.6942 108.045 81.4576 107.827 82.2243 107.89C82.9911 107.953 83.7086 108.293 84.2421 108.847C84.7757 109.402 85.0887 110.132 85.1225 110.9L98.9554 316.79Z" fill="#48A6FF"/>
<path d="M198.756 322.581H111.2C109.027 322.522 106.95 321.667 105.364 320.179C103.778 318.691 102.794 316.673 102.597 314.507L89.0883 113.539C89.0017 112.568 89.1203 111.591 89.4363 110.669C89.7523 109.747 90.2587 108.903 90.9226 108.19C91.5864 107.477 92.3929 106.911 93.2896 106.53C94.1863 106.149 95.1531 105.961 96.1272 105.978H183.683C185.856 106.037 187.931 106.891 189.517 108.377C191.102 109.864 192.088 111.88 192.286 114.044L205.795 315.02C205.879 315.99 205.759 316.967 205.442 317.887C205.125 318.808 204.618 319.652 203.955 320.364C203.292 321.077 202.486 321.642 201.591 322.024C200.695 322.406 199.729 322.595 198.756 322.581ZM96.1272 106.824C95.2692 106.808 94.4176 106.973 93.6278 107.309C92.838 107.644 92.1278 108.142 91.5434 108.771C90.959 109.399 90.5136 110.144 90.2362 110.956C89.9589 111.768 89.8557 112.629 89.9336 113.483L103.443 314.42C103.618 316.374 104.505 318.195 105.935 319.538C107.366 320.881 109.239 321.652 111.2 321.704H198.756C199.614 321.72 200.466 321.554 201.255 321.219C202.045 320.883 202.756 320.385 203.34 319.757C203.924 319.129 204.37 318.384 204.647 317.572C204.924 316.76 205.028 315.899 204.95 315.044L191.441 114.076C191.265 112.122 190.378 110.301 188.948 108.958C187.518 107.615 185.644 106.844 183.683 106.792L96.1272 106.824Z" fill="white"/>
<g opacity="0.5">
<path opacity="0.5" d="M176.95 197.188C190.302 183.068 188.331 159.522 172.547 144.596C156.763 129.67 133.143 129.016 119.791 143.136C106.439 157.255 108.41 180.801 124.194 195.727C139.978 210.653 163.597 211.307 176.95 197.188Z" fill="#48A6FF"/>
<path opacity="0.5" d="M171.233 191.789C181.914 180.494 180.337 161.658 167.71 149.718C155.084 137.778 136.189 137.255 125.508 148.55C114.827 159.845 116.404 178.681 129.03 190.621C141.657 202.561 160.551 203.084 171.233 191.789Z" fill="white"/>
<path opacity="0.5" d="M165.511 186.417C173.523 177.948 172.343 163.823 162.875 154.866C153.408 145.91 139.238 145.516 131.226 153.985C123.215 162.454 124.395 176.58 133.863 185.536C143.33 194.492 157.5 194.886 165.511 186.417Z" fill="#48A6FF"/>
<path opacity="0.5" d="M159.804 180.982C165.146 175.333 164.358 165.912 158.043 159.941C151.728 153.969 142.278 153.708 136.936 159.357C131.594 165.006 132.383 174.426 138.698 180.398C145.012 186.37 154.462 186.631 159.804 180.982Z" fill="white"/>
<path opacity="0.5" d="M154.085 175.6C156.756 172.776 156.363 168.066 153.206 165.08C150.049 162.093 145.324 161.962 142.653 164.786C139.981 167.61 140.375 172.32 143.532 175.307C146.688 178.293 151.413 178.424 154.085 175.6Z" fill="#48A6FF"/>
</g>
<path d="M155.543 220.813C155.401 220.813 155.267 220.813 155.124 220.813C154.04 218.719 152.408 216.959 150.401 215.721C148.395 214.483 146.09 213.813 143.733 213.782C142.524 213.781 141.322 213.967 140.17 214.335C139.034 212.252 137.363 210.51 135.331 209.287C133.298 208.064 130.976 207.404 128.604 207.375C127.113 207.353 125.632 207.626 124.247 208.177C122.862 208.729 121.599 209.549 120.531 210.589C119.463 211.63 118.611 212.871 118.024 214.242C117.437 215.613 117.126 217.086 117.11 218.577C115.93 218.647 114.777 218.952 113.718 219.474C112.658 219.997 111.714 220.726 110.941 221.619C110.168 222.512 109.581 223.551 109.216 224.674C108.851 225.798 108.714 226.983 108.815 228.16C109.019 230.754 110.186 233.179 112.086 234.958C113.986 236.736 116.482 237.741 119.085 237.774H156.704C157.796 237.787 158.879 237.571 159.883 237.141C160.887 236.711 161.789 236.075 162.533 235.276C163.277 234.476 163.845 233.53 164.202 232.498C164.559 231.465 164.696 230.37 164.604 229.282C164.418 226.996 163.386 224.862 161.711 223.296C160.035 221.73 157.836 220.845 155.543 220.813Z" fill="white"/>
<path d="M179.504 128.896H179.18C178.334 127.265 177.062 125.894 175.498 124.93C173.934 123.966 172.137 123.445 170.3 123.422C169.357 123.42 168.419 123.564 167.519 123.848C166.633 122.227 165.33 120.87 163.746 119.918C162.162 118.966 160.354 118.452 158.506 118.429C156.166 118.395 153.908 119.291 152.229 120.921C150.549 122.55 149.584 124.779 149.547 127.119C148.627 127.174 147.728 127.412 146.902 127.819C146.076 128.227 145.34 128.796 144.737 129.492C144.134 130.188 143.677 130.998 143.391 131.874C143.106 132.75 142.999 133.674 143.077 134.592C143.238 136.613 144.148 138.501 145.628 139.886C147.108 141.272 149.052 142.054 151.08 142.082H180.404C181.257 142.093 182.102 141.927 182.886 141.592C183.67 141.257 184.375 140.762 184.957 140.139C185.538 139.515 185.982 138.777 186.261 137.971C186.539 137.166 186.646 136.311 186.574 135.461C186.418 133.686 185.608 132.031 184.302 130.819C182.996 129.606 181.286 128.921 179.504 128.896Z" fill="white"/>
<path opacity="0.3" d="M191.18 251.899H137.018C136.626 251.895 136.238 251.972 135.878 252.126C135.518 252.28 135.195 252.507 134.928 252.794C134.661 253.08 134.456 253.419 134.328 253.788C134.199 254.158 134.15 254.551 134.181 254.941L136.378 287.244C136.441 288.065 136.809 288.833 137.41 289.396C138.011 289.959 138.801 290.276 139.625 290.285H146.893L147.501 299.22L155.82 290.285H193.74C194.131 290.291 194.52 290.215 194.88 290.061C195.241 289.908 195.565 289.68 195.832 289.394C196.1 289.107 196.304 288.768 196.432 288.398C196.56 288.027 196.609 287.634 196.576 287.244L194.387 254.941C194.321 254.128 193.958 253.368 193.366 252.806C192.774 252.245 191.995 251.922 191.18 251.899Z" fill="white"/>
<path d="M190.761 273.135H140.312L140.035 269.05H190.493L190.761 273.135Z" fill="white"/>
<path d="M175.38 281.619H140.889L140.612 277.535H175.103L175.38 281.619Z" fill="white"/>
<path d="M190.193 264.65H139.735L139.459 260.566H189.916L190.193 264.65Z" fill="white"/>
<path d="M233.556 115.34L235.633 116.833C236.355 117.36 237.082 117.858 237.814 118.326C239.275 119.298 240.745 120.27 242.23 121.154C243.715 122.039 245.216 122.877 246.701 123.619C248.093 124.321 249.535 124.921 251.015 125.413C250.686 125.331 250.346 125.315 250.011 125.365C249.812 125.39 249.617 125.446 249.435 125.531C249.206 125.65 249.277 125.657 249.395 125.586C249.852 125.27 250.264 124.892 250.62 124.465C251.659 123.224 252.6 121.903 253.432 120.515C254.356 119.061 255.241 117.52 256.086 115.94C256.932 114.36 257.777 112.741 258.559 111.2L258.614 111.098C259.015 110.31 259.694 109.7 260.52 109.385C261.346 109.071 262.259 109.076 263.081 109.399C263.904 109.721 264.577 110.338 264.969 111.13C265.361 111.922 265.445 112.831 265.203 113.681C264.129 117.445 262.769 121.121 261.135 124.678C260.249 126.592 259.205 128.428 258.014 130.168C257.269 131.247 256.397 132.231 255.415 133.099C254.697 133.725 253.883 134.231 253.005 134.6C252.388 134.854 251.74 135.026 251.078 135.114C250.286 135.204 249.484 135.158 248.708 134.979C246.597 134.49 244.531 133.826 242.53 132.997C240.657 132.234 238.827 131.372 237.047 130.413C235.294 129.481 233.585 128.499 231.92 127.467C231.091 126.945 230.269 126.416 229.456 125.887C228.642 125.357 227.876 124.804 226.983 124.156C225.985 123.237 225.361 121.983 225.228 120.633C225.095 119.282 225.463 117.931 226.262 116.834C227.061 115.738 228.235 114.973 229.561 114.686C230.887 114.399 232.272 114.609 233.453 115.277L233.556 115.34Z" fill="#48A6FF"/>
<path opacity="0.2" d="M233.556 115.34L235.633 116.833C236.355 117.36 237.082 117.858 237.814 118.326C239.275 119.298 240.745 120.27 242.23 121.154C243.715 122.039 245.216 122.877 246.701 123.619C248.093 124.321 249.535 124.921 251.015 125.413C250.686 125.331 250.346 125.315 250.011 125.365C249.812 125.39 249.617 125.446 249.435 125.531C249.206 125.65 249.277 125.657 249.395 125.586C249.852 125.27 250.264 124.892 250.62 124.465C251.659 123.224 252.6 121.903 253.432 120.515C254.356 119.061 255.241 117.52 256.086 115.94C256.932 114.36 257.777 112.741 258.559 111.2L258.614 111.098C259.015 110.31 259.694 109.7 260.52 109.385C261.346 109.071 262.259 109.076 263.081 109.399C263.904 109.721 264.577 110.338 264.969 111.13C265.361 111.922 265.445 112.831 265.203 113.681C264.129 117.445 262.769 121.121 261.135 124.678C260.249 126.592 259.205 128.428 258.014 130.168C257.269 131.247 256.397 132.231 255.415 133.099C254.697 133.725 253.883 134.231 253.005 134.6C252.388 134.854 251.74 135.026 251.078 135.114C250.286 135.204 249.484 135.158 248.708 134.979C246.597 134.49 244.531 133.826 242.53 132.997C240.657 132.234 238.827 131.372 237.047 130.413C235.294 129.481 233.585 128.499 231.92 127.467C231.091 126.945 230.269 126.416 229.456 125.887C228.642 125.357 227.876 124.804 226.983 124.156C225.985 123.237 225.361 121.983 225.228 120.633C225.095 119.282 225.463 117.931 226.262 116.834C227.061 115.738 228.235 114.973 229.561 114.686C230.887 114.399 232.272 114.609 233.453 115.277L233.556 115.34Z" fill="black"/>
<path d="M260.55 109.723L262.691 106.105L266.799 110.537C266.205 111.824 265.134 112.83 263.813 113.341C263.516 113.442 263.199 113.474 262.888 113.433C262.577 113.391 262.28 113.279 262.019 113.104L261.229 112.599C260.768 112.298 260.44 111.832 260.314 111.297C260.187 110.761 260.272 110.198 260.55 109.723Z" fill="#FFB573"/>
<path d="M268.513 103.948L269.422 104.509C269.706 104.686 269.946 104.926 270.122 105.212C270.297 105.497 270.403 105.82 270.431 106.154C270.46 106.488 270.41 106.824 270.285 107.135C270.161 107.446 269.965 107.724 269.714 107.946L266.799 110.537L262.691 106.105L266.269 103.94C266.608 103.734 266.996 103.625 267.392 103.627C267.788 103.628 268.176 103.74 268.513 103.948Z" fill="#FFB573"/>
<path d="M183.296 322.415L189.553 322.597L191.907 308.108L185.658 307.926L183.296 322.415Z" fill="#FFB573"/>
<path d="M190.54 320.835L183.549 319.95C183.431 319.932 183.312 319.96 183.215 320.03C183.119 320.1 183.054 320.204 183.035 320.321L182 325.804C181.962 326.094 182.04 326.387 182.218 326.62C182.396 326.852 182.658 327.005 182.948 327.044C185.389 327.313 186.566 327.313 189.639 327.7C191.528 327.945 196.449 329.13 199.064 328.806C201.679 328.482 201.284 325.914 200.146 325.82C195.051 325.377 193.139 322.952 191.559 321.348C191.285 321.07 190.927 320.889 190.54 320.835Z" fill="#263238"/>
<path opacity="0.2" d="M185.65 307.934L191.907 308.116L190.69 315.581L184.433 315.4L185.65 307.934Z" fill="black"/>
<path d="M219.849 169.06C219.849 169.06 214.39 220.876 210.756 238.477C206.806 257.753 194.032 314.143 194.032 314.143L182.585 313.298C182.585 313.298 188.857 254.965 193.992 236.084C193.992 216.476 198.732 161.523 198.732 161.523L219.849 169.06Z" fill="#263238"/>
<path opacity="0.3" d="M201.608 186.574C201.505 182.522 199.309 181.218 197.144 181.266C196.354 191.014 195.509 202.967 194.869 213.75C198.709 207.525 201.892 197.832 201.608 186.574Z" fill="black"/>
<path d="M182.245 313.377L194.506 314.286L195.912 309.664L181.795 309.522L182.245 313.377Z" fill="white"/>
<path d="M119.851 273.854L123.793 278.728L135.588 270.22L131.638 265.353L119.851 273.854Z" fill="#FFB573"/>
<path d="M124.646 278.736L121.139 272.629C121.083 272.525 120.989 272.447 120.877 272.412C120.765 272.376 120.643 272.386 120.538 272.439L115.537 274.92C115.284 275.064 115.097 275.303 115.019 275.584C114.94 275.865 114.976 276.166 115.119 276.421C116.375 278.53 117.086 279.47 118.626 282.156C119.574 283.807 122.071 288.555 123.366 290.846C124.662 293.137 126.898 291.771 126.526 290.688C124.946 285.822 124.496 282.101 124.82 279.881C124.892 279.491 124.831 279.087 124.646 278.736Z" fill="#263238"/>
<path opacity="0.2" d="M131.638 265.353L135.588 270.227L129.505 274.604L125.555 269.738L131.638 265.353Z" fill="black"/>
<path d="M208.434 164.605C208.434 164.605 193.036 208.671 186.037 225.229C178.382 243.36 132.601 275.56 132.601 275.56L125.373 266.641C125.373 266.641 156.483 235.46 168.033 220.671C174.432 200.534 188.091 157.329 188.091 157.329L208.434 164.605Z" fill="#263238"/>
<path d="M125.081 266.277L132.894 275.915L136.709 273.711L127.561 263.505L125.081 266.277Z" fill="white"/>
<path d="M219.786 169.36L188.06 157.328C188.85 154.429 192.997 145.913 196.686 134.055C199.476 125.293 201.506 116.306 202.754 107.195C202.786 106.929 202.872 106.673 203.007 106.442C203.142 106.211 203.322 106.01 203.537 105.851C203.752 105.692 203.998 105.578 204.258 105.517C204.519 105.457 204.789 105.449 205.052 105.497C205.645 105.599 206.348 105.734 207.122 105.884C209.121 106.287 211.617 106.855 213.995 107.582C218.56 108.92 223.044 110.519 227.425 112.37C228.893 113.03 230.32 113.777 231.699 114.605C232.52 115.073 233.281 115.638 233.966 116.288C234.214 116.487 234.419 116.733 234.57 117.013C234.721 117.292 234.814 117.599 234.843 117.915C234.843 122.45 230.301 140.02 219.786 169.36Z" fill="#F0F0F0"/>
<path d="M226.793 112.077C223.222 109.755 223.396 107.1 224.605 104.541C224.908 103.908 225.249 103.293 225.624 102.7L222.187 96.8935L219.659 92.6354C219.106 97.3122 217.416 105.591 213.466 107.424C215.625 110.472 218.708 112.744 222.259 113.902C228.089 115.719 226.793 112.077 226.793 112.077Z" fill="#FFB573"/>
<path d="M222.037 113.807L221.982 112.322L218.032 113.096L222.037 113.807Z" fill="#E0E0E0"/>
<path d="M222.037 113.807L222.772 112.599L225.324 115.703L222.037 113.807Z" fill="#E0E0E0"/>
<path d="M214.003 106.713C216.406 108.924 219.088 110.81 221.982 112.322C220.402 113.294 218.901 115.854 218.332 117.971C217.052 117.078 211.933 108.657 211.222 106.342L214.003 106.713Z" fill="white"/>
<path d="M226.051 111.177C225.115 111.958 223.974 112.451 222.764 112.599C223.609 113.839 224.344 117.054 224.344 118.919C225.821 117.955 228.105 114.589 228.468 113.065L226.051 111.177Z" fill="white"/>
<path opacity="0.3" d="M226.177 111.066C226.177 111.066 229.629 112.725 232.679 114.605C233.928 115.375 234.893 116.531 235.429 117.897C235.965 119.264 236.042 120.767 235.649 122.181C231.881 135.501 226.793 148.433 224.684 155.63C222.448 163.301 219.336 172.923 219.336 172.923L213.956 174.195C213.956 174.195 227.441 122.616 226.177 111.066Z" fill="black"/>
<path opacity="0.3" d="M213.924 106.113C213.924 106.113 209.287 105.505 205.234 105.323C203.813 105.259 202.413 105.687 201.271 106.534C200.128 107.382 199.313 108.597 198.961 109.976C196.907 118.097 195.391 133.629 193.313 139.672C190.73 147.225 187.23 161.95 187.23 161.95L205.605 172.568C205.605 172.568 224.17 115.538 213.924 106.113Z" fill="black"/>
<path d="M213.924 106.113C213.924 106.113 209.287 105.505 205.234 105.323C203.813 105.259 202.413 105.687 201.271 106.534C200.128 107.382 199.313 108.597 198.961 109.976C196.907 118.097 194.111 133.265 192.025 139.317C189.426 146.869 183.912 159.707 183.912 159.707L207.091 170.577C207.091 170.577 224.17 115.538 213.924 106.113Z" fill="#48A6FF"/>
<path opacity="0.2" d="M213.924 106.113C213.924 106.113 209.287 105.505 205.234 105.323C203.813 105.259 202.413 105.687 201.271 106.534C200.128 107.382 199.313 108.597 198.961 109.976C196.907 118.097 194.111 133.265 192.025 139.317C189.426 146.869 183.912 159.707 183.912 159.707L207.091 170.577C207.091 170.577 224.17 115.538 213.924 106.113Z" fill="black"/>
<path d="M226.177 111.066C226.177 111.066 229.629 112.725 232.679 114.605C233.928 115.375 234.893 116.531 235.429 117.897C235.965 119.264 236.042 120.767 235.649 122.181C231.881 135.501 228.903 149.46 227.402 156.807C225.822 164.628 224.17 171.746 224.17 171.746L215.48 172.923C215.48 172.923 227.441 122.616 226.177 111.066Z" fill="#48A6FF"/>
<path opacity="0.2" d="M226.177 111.066C226.177 111.066 229.629 112.725 232.679 114.605C233.928 115.375 234.893 116.531 235.429 117.897C235.965 119.264 236.042 120.767 235.649 122.181C231.881 135.501 228.903 149.46 227.402 156.807C225.822 164.628 224.17 171.746 224.17 171.746L215.48 172.923C215.48 172.923 227.441 122.616 226.177 111.066Z" fill="black"/>
<path opacity="0.2" d="M225.624 102.7C225.248 103.301 224.907 103.923 224.605 104.564C222.914 103.545 221.176 100.733 221.587 98.7817C221.716 98.1319 221.918 97.4986 222.187 96.8936L225.624 102.7Z" fill="black"/>
<path d="M230.498 78.7473C234.701 79.2924 236.242 84.9646 233.919 88.7092C230.111 83.1871 230.498 78.7473 230.498 78.7473Z" fill="#263238"/>
<path d="M217.416 89.2068C218.838 95.2819 219.351 98.9001 222.993 101.626C224.167 102.525 225.564 103.087 227.034 103.249C228.504 103.412 229.99 103.169 231.332 102.547C232.674 101.926 233.82 100.949 234.646 99.7224C235.473 98.4961 235.948 97.067 236.02 95.59C236.415 89.9099 234.03 80.9276 227.591 79.3002C226.206 78.9095 224.743 78.8902 223.348 79.2442C221.953 79.5982 220.676 80.313 219.644 81.3169C218.613 82.3208 217.865 83.5784 217.473 84.9634C217.082 86.3483 217.062 87.8118 217.416 89.2068Z" fill="#FFB573"/>
<path d="M219.288 94.6183C222.946 94.721 222.377 88.6617 220.781 86.3707C225.853 87.1607 234.259 82.6814 235.104 77.9888C236.328 71.1869 225.956 71.1869 222.598 73.3515C224.044 73.4542 224.779 74.6787 224.431 75.3107C224.431 75.3107 219.422 73.7939 216.183 75.5556C217.598 76.077 219.099 78.1152 213.719 78.763C208.599 79.3792 210.148 84.53 212.731 84.4352C211.357 86.5445 209.705 91.3398 212.802 93.378C215.899 95.4162 218.016 98.0706 217.345 99.1608C218.427 99.1213 220.726 97.8178 219.288 94.6183Z" fill="#263238"/>
<path d="M213.466 83.9612C211.017 84.1982 209.611 86.11 209.516 88.7012C210.565 86.9161 211.899 85.3149 213.466 83.9612Z" fill="#263238"/>
<path d="M215.954 94.6973C216.579 95.9442 217.651 96.9092 218.956 97.3991C220.671 98.0232 221.571 96.5064 221.129 94.8158C220.726 93.2832 219.351 91.1265 217.613 91.2371C215.875 91.3477 215.196 93.1489 215.954 94.6973Z" fill="#FFB573"/>
<path d="M227.046 89.6728C227.125 90.1705 227.465 90.5339 227.789 90.4628C228.112 90.3917 228.31 89.9809 228.231 89.4832C228.152 88.9855 227.812 88.6142 227.48 88.6932C227.149 88.7722 226.959 89.1751 227.046 89.6728Z" fill="#263238"/>
<path d="M232.71 88.9145C232.789 89.4122 233.121 89.7756 233.453 89.7045C233.785 89.6334 233.974 89.2226 233.895 88.717C233.816 88.2114 233.477 87.8559 233.145 87.927C232.813 87.9981 232.623 88.4089 232.71 88.9145Z" fill="#263238"/>
<path d="M230.949 89.4043C231.808 90.8522 232.854 92.1804 234.061 93.3543C233.319 94.2944 231.746 94.1443 231.746 94.1443L230.949 89.4043Z" fill="#ED893E"/>
<path d="M229.929 95.7322C229.345 95.7479 228.764 95.6446 228.22 95.4287C227.677 95.2127 227.184 94.8886 226.769 94.4761C226.743 94.4482 226.729 94.4115 226.729 94.3734C226.729 94.3352 226.743 94.2985 226.769 94.2707C226.783 94.2566 226.8 94.2454 226.818 94.2378C226.837 94.2301 226.856 94.2262 226.876 94.2262C226.896 94.2262 226.916 94.2301 226.934 94.2378C226.952 94.2454 226.969 94.2566 226.983 94.2707C227.44 94.7141 227.995 95.0455 228.602 95.2387C229.209 95.432 229.853 95.4819 230.482 95.3846C230.503 95.3776 230.526 95.3753 230.548 95.3779C230.57 95.3805 230.591 95.3879 230.609 95.3996C230.628 95.4113 230.644 95.427 230.656 95.4455C230.668 95.464 230.676 95.485 230.679 95.5069C230.682 95.5288 230.68 95.551 230.673 95.5721C230.666 95.5931 230.655 95.6125 230.64 95.6287C230.625 95.6449 230.607 95.6577 230.587 95.666C230.566 95.6743 230.544 95.678 230.522 95.6769C230.326 95.7108 230.128 95.7293 229.929 95.7322Z" fill="#263238"/>
<path d="M228.349 97.3754C227.877 97.0272 227.481 96.5863 227.185 96.0796C226.888 95.5729 226.699 95.0112 226.627 94.4287C226.625 94.3901 226.638 94.3522 226.663 94.3228C226.688 94.2933 226.723 94.2747 226.762 94.2707C226.781 94.2685 226.8 94.2703 226.819 94.276C226.838 94.2816 226.855 94.291 226.87 94.3036C226.884 94.3162 226.897 94.3317 226.905 94.3491C226.914 94.3666 226.919 94.3856 226.92 94.405C227.012 95.0355 227.246 95.6369 227.605 96.1637C227.963 96.6906 228.437 97.1292 228.989 97.4465C229.006 97.4555 229.021 97.4679 229.033 97.4828C229.045 97.4978 229.054 97.515 229.059 97.5334C229.064 97.5519 229.066 97.5712 229.063 97.5902C229.061 97.6092 229.054 97.6275 229.045 97.644C229.035 97.6611 229.022 97.6762 229.006 97.6882C228.99 97.7003 228.973 97.7091 228.953 97.7143C228.934 97.7194 228.915 97.7207 228.895 97.7182C228.875 97.7156 228.856 97.7092 228.839 97.6993C228.671 97.5996 228.507 97.4915 228.349 97.3754Z" fill="#263238"/>
<path d="M224.984 88.0851C224.937 88.0968 224.889 88.0968 224.842 88.0851C224.807 88.0676 224.775 88.0431 224.749 88.0131C224.724 87.9831 224.704 87.9483 224.693 87.9106C224.681 87.873 224.677 87.8333 224.681 87.7941C224.685 87.7548 224.696 87.7168 224.715 87.6822C224.924 87.2589 225.233 86.8933 225.616 86.6178C225.999 86.3422 226.444 86.1652 226.912 86.1022C226.951 86.099 226.99 86.1036 227.027 86.1159C227.064 86.1281 227.099 86.1477 227.128 86.1735C227.158 86.1993 227.182 86.2308 227.199 86.266C227.216 86.3013 227.226 86.3396 227.228 86.3787C227.231 86.4177 227.226 86.457 227.214 86.4942C227.202 86.5314 227.182 86.5658 227.156 86.5952C227.131 86.6247 227.099 86.6487 227.064 86.6658C227.029 86.6829 226.99 86.6927 226.951 86.6947C226.588 86.7468 226.243 86.8851 225.945 87.0982C225.647 87.3113 225.404 87.5928 225.237 87.9192C225.215 87.9684 225.18 88.0103 225.135 88.0398C225.09 88.0692 225.038 88.085 224.984 88.0851Z" fill="#263238"/>
<path d="M234.812 86.6472C234.763 86.6486 234.716 86.6377 234.673 86.6156C234.63 86.5935 234.594 86.5609 234.567 86.5208C234.357 86.2033 234.077 85.9384 233.748 85.7466C233.419 85.5549 233.05 85.4413 232.671 85.4148C232.6 85.4033 232.537 85.3671 232.491 85.3129C232.444 85.2586 232.419 85.1897 232.419 85.1185C232.419 85.0473 232.444 84.9784 232.491 84.9242C232.537 84.8699 232.6 84.8338 232.671 84.8223C233.144 84.8489 233.605 84.9855 234.016 85.2214C234.428 85.4573 234.779 85.7859 235.041 86.1811C235.063 86.2126 235.08 86.2483 235.088 86.2861C235.097 86.324 235.098 86.3631 235.091 86.4014C235.085 86.4396 235.071 86.4761 235.05 86.5089C235.029 86.5416 235.002 86.5698 234.97 86.5919C234.924 86.6272 234.869 86.6466 234.812 86.6472Z" fill="#263238"/>
<path d="M206.933 115.545C205.353 116.833 203.686 118.263 202.098 119.661C200.51 121.06 198.89 122.497 197.358 123.967C194.308 126.789 191.453 129.814 188.81 133.02L187.909 134.189L187.799 134.339C187.823 134.304 187.844 134.267 187.862 134.229C187.91 134.14 187.949 134.048 187.98 133.952C188.041 133.793 188.073 133.625 188.075 133.455C188.075 133.186 188.028 133.186 188.075 133.312C188.11 133.555 188.179 133.792 188.281 134.016C188.599 134.762 188.996 135.471 189.466 136.133C190.01 136.932 190.595 137.702 191.219 138.44C192.491 140.02 193.913 141.528 195.406 143.022C196.9 144.515 198.48 146.024 199.988 147.406L200.091 147.493C200.757 148.091 201.172 148.919 201.253 149.81C201.334 150.701 201.075 151.59 200.529 152.298C199.982 153.007 199.188 153.482 198.306 153.63C197.423 153.778 196.517 153.586 195.77 153.094C191.807 150.582 188.102 147.684 184.71 144.444C183.849 143.582 183.003 142.682 182.174 141.686C181.277 140.607 180.483 139.446 179.804 138.218C179.392 137.463 179.056 136.669 178.801 135.848C178.457 134.743 178.334 133.581 178.437 132.428C178.502 131.705 178.667 130.995 178.927 130.318C179.064 129.968 179.225 129.627 179.409 129.299L179.693 128.833L179.82 128.644L180.847 127.119C183.584 123.297 186.631 119.706 189.955 116.383C191.535 114.74 193.194 113.136 194.877 111.587C196.56 110.039 198.227 108.546 200.083 107.029C201.224 106.353 202.57 106.11 203.875 106.344C205.18 106.577 206.358 107.272 207.194 108.301C208.03 109.33 208.468 110.626 208.429 111.951C208.39 113.277 207.875 114.544 206.98 115.522L206.933 115.545Z" fill="#48A6FF"/>
<path opacity="0.2" d="M206.933 115.545C205.353 116.833 203.686 118.263 202.098 119.661C200.51 121.06 198.89 122.497 197.358 123.967C194.308 126.789 191.453 129.814 188.81 133.02L187.909 134.189L187.799 134.339C187.823 134.304 187.844 134.267 187.862 134.229C187.91 134.14 187.949 134.048 187.98 133.952C188.041 133.793 188.073 133.625 188.075 133.455C188.075 133.186 188.028 133.186 188.075 133.312C188.11 133.555 188.179 133.792 188.281 134.016C188.599 134.762 188.996 135.471 189.466 136.133C190.01 136.932 190.595 137.702 191.219 138.44C192.491 140.02 193.913 141.528 195.406 143.022C196.9 144.515 198.48 146.024 199.988 147.406L200.091 147.493C200.757 148.091 201.172 148.919 201.253 149.81C201.334 150.701 201.075 151.59 200.529 152.298C199.982 153.007 199.188 153.482 198.306 153.63C197.423 153.778 196.517 153.586 195.77 153.094C191.807 150.582 188.102 147.684 184.71 144.444C183.849 143.582 183.003 142.682 182.174 141.686C181.277 140.607 180.483 139.446 179.804 138.218C179.392 137.463 179.056 136.669 178.801 135.848C178.457 134.743 178.334 133.581 178.437 132.428C178.502 131.705 178.667 130.995 178.927 130.318C179.064 129.968 179.225 129.627 179.409 129.299L179.693 128.833L179.82 128.644L180.847 127.119C183.584 123.297 186.631 119.706 189.955 116.383C191.535 114.74 193.194 113.136 194.877 111.587C196.56 110.039 198.227 108.546 200.083 107.029C201.224 106.353 202.57 106.11 203.875 106.344C205.18 106.577 206.358 107.272 207.194 108.301C208.03 109.33 208.468 110.626 208.429 111.951C208.39 113.277 207.875 114.544 206.98 115.522L206.933 115.545Z" fill="black"/>
<path d="M201.189 148.71L206.561 151.996L199.696 155.907C199.696 155.907 195.13 152.494 197.081 150.29L199.372 148.71C199.643 148.534 199.958 148.44 200.281 148.44C200.603 148.44 200.919 148.534 201.189 148.71Z" fill="#FFB573"/>
<path d="M206.854 158L203.899 159.738C203.695 159.86 203.468 159.94 203.232 159.972C202.996 160.005 202.756 159.99 202.526 159.928C202.296 159.866 202.081 159.759 201.894 159.612C201.706 159.465 201.55 159.283 201.434 159.074L199.696 155.914L206.561 152.004L207.667 155.954C207.777 156.337 207.757 156.746 207.61 157.116C207.462 157.486 207.196 157.797 206.854 158Z" fill="#FFB573"/>
<path d="M258.243 102.21L265.519 100.78C263.52 104.304 266.459 107.677 269.098 109.794C270.354 110.805 269.469 112.614 267.518 112.954L262.778 113.886C257.058 115.04 258.243 102.21 258.243 102.21Z" fill="#48A6FF"/>
<path d="M255.352 102.771L272.037 99.54C274.642 99.0206 276.936 97.4908 278.416 95.2849C279.896 93.0791 280.443 90.3768 279.937 87.769C279.413 85.1657 277.883 82.8747 275.678 81.3949C273.473 79.9152 270.773 79.3667 268.166 79.869L251.489 83.1396C248.885 83.6645 246.594 85.1968 245.114 87.4029C243.635 89.6089 243.086 92.3101 243.589 94.9185C244.121 97.5124 245.654 99.7918 247.857 101.262C250.059 102.732 252.752 103.274 255.352 102.771Z" fill="#48A6FF"/>
<path opacity="0.3" d="M255.352 102.771L272.037 99.54C274.642 99.0206 276.936 97.4908 278.416 95.2849C279.896 93.0791 280.443 90.3768 279.937 87.769C279.413 85.1657 277.883 82.8747 275.678 81.3949C273.473 79.9152 270.773 79.3667 268.166 79.869L251.489 83.1396C248.885 83.6645 246.594 85.1968 245.114 87.4029C243.635 89.6089 243.086 92.3101 243.589 94.9185C244.121 97.5124 245.654 99.7918 247.857 101.262C250.059 102.732 252.752 103.274 255.352 102.771Z" fill="white"/>
<path d="M300.761 106.176L272.321 105.797C269.856 106.279 263.631 74.3627 266.064 73.8808L292.245 62.8208L300.761 106.176Z" fill="#48A6FF"/>
<path d="M294.235 84.933C296.605 96.9094 299.505 106.421 300.761 106.176C302.017 105.931 301.132 96.0167 298.778 84.0561C296.424 72.0955 293.509 62.5681 292.253 62.813C290.996 63.0579 291.889 72.9487 294.235 84.933Z" fill="#48A6FF"/>
<path opacity="0.3" d="M294.235 84.933C296.605 96.9094 299.505 106.421 300.761 106.176C302.017 105.931 301.132 96.0167 298.778 84.0561C296.424 72.0955 293.509 62.5681 292.253 62.813C290.996 63.0579 291.889 72.9487 294.235 84.933Z" fill="black"/>
<path d="M304.94 83.4556C304.363 80.5247 297.83 79.3318 296.448 79.6083C295.065 79.8848 294.394 82.476 294.962 85.4069C295.531 88.3378 297.135 90.4866 298.525 90.218C299.916 89.9494 305.493 86.3786 304.94 83.4556Z" fill="#48A6FF"/>
<path d="M348.932 75.8516L311.928 81.8384L312.063 82.6728L349.067 76.6861L348.932 75.8516Z" fill="#48A6FF"/>
<path d="M323.613 59.8746L308.439 72.8112L308.988 73.4544L324.161 60.5179L323.613 59.8746Z" fill="#48A6FF"/>
<path d="M331.125 99.8815L330.843 100.679L336.408 102.643L336.689 101.846L331.125 99.8815Z" fill="#48A6FF"/>
<path d="M310.961 93.0127L310.692 93.8141L324.774 98.5365L325.042 97.7351L310.961 93.0127Z" fill="#48A6FF"/>
</svg>
