<svg width="500" height="500" viewBox="0 0 500 500" fill="none" xmlns="http://www.w3.org/2000/svg">
<path d="M417.69 51.8401C387.24 32.9001 350.74 30.8401 318.58 46.6101C291.19 60.0001 269.88 82.7701 242.46 96.1701C205 114.5 163.87 124.52 126 142.08C88.1299 159.64 51.8799 187.16 38.2999 226.64C22.2999 273.27 27.9199 328.1 52.3899 370.73C92.1699 440.02 171.07 464.63 247.03 463.73C407.54 461.84 490.22 267.44 464.03 127.73C458.31 97.4601 444.37 68.4301 417.69 51.8401Z" fill="#48A6FF"/>
<path opacity="0.7" d="M417.69 51.8401C387.24 32.9001 350.74 30.8401 318.58 46.6101C291.19 60.0001 269.88 82.7701 242.46 96.1701C205 114.5 163.87 124.52 126 142.08C88.1299 159.64 51.8799 187.16 38.2999 226.64C22.2999 273.27 27.9199 328.1 52.3899 370.73C92.1699 440.02 171.07 464.63 247.03 463.73C407.54 461.84 490.22 267.44 464.03 127.73C458.31 97.4601 444.37 68.4301 417.69 51.8401Z" fill="white"/>
<path d="M120.61 310.27L112.21 311.79L110.56 302.69L100.58 304.5L102.23 313.6L93.8398 315.12L95.7098 325.45L104.1 323.93L105.75 333.03L115.73 331.23L114.08 322.12L122.48 320.6L120.61 310.27Z" stroke="#48A6FF" stroke-linecap="round" stroke-linejoin="round"/>
<path d="M204.47 170.87L196.42 168.03L199.5 159.31L189.94 155.93L186.86 164.65L178.81 161.81L175.32 171.71L183.36 174.55L180.28 183.28L189.84 186.65L192.93 177.93L200.97 180.77L204.47 170.87Z" stroke="#48A6FF" stroke-linecap="round" stroke-linejoin="round"/>
<path d="M407.51 275.09L399.97 279.08L395.64 270.9L386.67 275.64L391 283.82L383.46 287.81L388.37 297.09L395.91 293.1L400.24 301.27L409.21 296.53L404.88 288.35L412.42 284.36L407.51 275.09Z" stroke="#48A6FF" stroke-linecap="round" stroke-linejoin="round"/>
<path d="M85.5299 288.59C88.9099 288.59 91.6499 285.85 91.6499 282.47C91.6499 279.09 88.9099 276.35 85.5299 276.35C82.1499 276.35 79.4099 279.09 79.4099 282.47C79.4099 285.85 82.1499 288.59 85.5299 288.59Z" stroke="#48A6FF" stroke-linecap="round" stroke-linejoin="round"/>
<path d="M180.86 200.65C180.86 200.97 180.765 201.284 180.587 201.55C180.409 201.816 180.156 202.024 179.86 202.147C179.564 202.269 179.238 202.301 178.924 202.239C178.61 202.176 178.321 202.022 178.094 201.796C177.868 201.569 177.714 201.28 177.651 200.966C177.588 200.652 177.621 200.326 177.743 200.03C177.866 199.734 178.073 199.481 178.34 199.303C178.606 199.125 178.919 199.03 179.24 199.03C179.67 199.03 180.082 199.201 180.385 199.505C180.689 199.808 180.86 200.22 180.86 200.65V200.65Z" stroke="#48A6FF" stroke-linecap="round" stroke-linejoin="round"/>
<path d="M106.73 172.86C106.73 173.991 106.394 175.097 105.766 176.038C105.137 176.979 104.244 177.712 103.199 178.145C102.154 178.578 101.003 178.691 99.8939 178.47C98.7843 178.25 97.7651 177.705 96.9651 176.905C96.1652 176.105 95.6204 175.086 95.3997 173.976C95.179 172.866 95.2923 171.716 95.7252 170.671C96.1581 169.626 96.8913 168.733 97.8319 168.104C98.7726 167.476 99.8785 167.14 101.01 167.14C102.526 167.143 103.979 167.746 105.052 168.818C106.124 169.891 106.727 171.344 106.73 172.86V172.86Z" stroke="#48A6FF" stroke-linecap="round" stroke-linejoin="round"/>
<path d="M358.76 250.34C358.76 250.981 358.57 251.607 358.214 252.14C357.858 252.673 357.352 253.088 356.76 253.333C356.168 253.579 355.516 253.643 354.888 253.518C354.259 253.393 353.682 253.084 353.229 252.631C352.776 252.178 352.467 251.601 352.342 250.972C352.217 250.344 352.281 249.692 352.526 249.1C352.772 248.508 353.187 248.002 353.72 247.646C354.253 247.29 354.879 247.1 355.52 247.1C356.379 247.1 357.203 247.441 357.811 248.049C358.418 248.657 358.76 249.481 358.76 250.34V250.34Z" stroke="#48A6FF" stroke-linecap="round" stroke-linejoin="round"/>
<path d="M326.01 151.59C330.014 151.59 333.26 148.344 333.26 144.34C333.26 140.336 330.014 137.09 326.01 137.09C322.006 137.09 318.76 140.336 318.76 144.34C318.76 148.344 322.006 151.59 326.01 151.59Z" stroke="#48A6FF" stroke-linecap="round" stroke-linejoin="round"/>
<path d="M281.37 209.51C281.75 210.08 293.22 212.37 299.17 221.02C302.632 225.989 305.536 231.325 307.83 236.93C307.83 236.93 317.78 242.85 322.88 247.73C327.98 252.61 334.06 259.09 338.75 262.49C343.44 265.89 353.09 272.34 355.52 279.89C355.52 279.89 341.05 319.52 336.96 328.28C332.87 337.04 322.78 355.63 322.78 355.63L304.78 432.1H200.37L196.81 405.87C196.81 405.87 164.81 399.59 151.44 387.87C151.44 387.87 150.18 358.87 155.77 333C161.36 307.13 180.37 253.34 193.25 236.91C193.25 236.91 213.82 227.07 231.97 223.91C231.97 223.91 243.75 214.6 251.46 213.61C259.17 212.62 281.37 209.51 281.37 209.51Z" fill="white"/>
<path d="M198.22 417.69C207.49 419.46 215.57 420.99 225.01 420.88C234.45 420.77 244.09 418.65 251.81 413.24C253.302 411.999 254.992 411.018 256.81 410.34C260.91 409.19 264.97 411.9 269.04 413.16C274.2 414.76 279.86 414 284.92 412.08C289.98 410.16 294.53 407.17 299.04 404.19C298.373 413.39 298.157 422.607 298.39 431.84L304.82 432.1L321.29 359.63C321.29 359.63 293.12 392.35 279.39 402.12L253.05 395.34C253.05 395.34 250.57 397.4 245.35 398.44C245.35 398.44 242.96 407.63 229.52 407.65C216.08 407.67 196.81 405.87 196.81 405.87L198.22 417.69Z" fill="#48A6FF"/>
<path opacity="0.5" d="M198.22 417.69C207.49 419.46 215.57 420.99 225.01 420.88C234.45 420.77 244.09 418.65 251.81 413.24C253.302 411.999 254.992 411.018 256.81 410.34C260.91 409.19 264.97 411.9 269.04 413.16C274.2 414.76 279.86 414 284.92 412.08C289.98 410.16 294.53 407.17 299.04 404.19C298.373 413.39 298.157 422.607 298.39 431.84L304.82 432.1L321.29 359.63C321.29 359.63 293.12 392.35 279.39 402.12L253.05 395.34C253.05 395.34 250.57 397.4 245.35 398.44C245.35 398.44 242.96 407.63 229.52 407.65C216.08 407.67 196.81 405.87 196.81 405.87L198.22 417.69Z" fill="white"/>
<path d="M171.23 282.47C171.23 282.47 159 341.84 159.62 362.23C159.62 362.23 176.24 357.57 187.84 362.23C187.84 362.23 168.1 360.03 159.6 369.08C151.1 378.13 177.26 401.91 229.6 397.08C229.6 397.08 240.04 400.35 245.34 398.43C245.34 398.43 243.92 407.89 229.51 407.64C215.16 407.07 173.18 406.72 151.43 387.88C151.44 387.89 148.7 333.31 171.23 282.47Z" fill="#48A6FF"/>
<path opacity="0.6" d="M171.23 282.47C171.23 282.47 159 341.84 159.62 362.23C159.62 362.23 176.24 357.57 187.84 362.23C187.84 362.23 168.1 360.03 159.6 369.08C151.1 378.13 177.26 401.91 229.6 397.08C229.6 397.08 240.04 400.35 245.34 398.43C245.34 398.43 243.92 407.89 229.51 407.64C215.16 407.07 173.18 406.72 151.43 387.88C151.44 387.89 148.7 333.31 171.23 282.47Z" fill="white"/>
<path d="M196.24 293.85C196.24 293.85 199.85 320.14 205.68 325.64C211.51 331.14 238.68 329.34 249.44 335.27C249.44 335.27 259.57 317.72 277.89 306.74L253.05 345.85L231.58 340.78L205.37 336.78L203.17 341.84H199.23C199.23 341.84 198.79 313.78 196.24 293.85Z" fill="#48A6FF"/>
<path opacity="0.5" d="M196.24 293.85C196.24 293.85 199.85 320.14 205.68 325.64C211.51 331.14 238.68 329.34 249.44 335.27C249.44 335.27 259.57 317.72 277.89 306.74L253.05 345.85L231.58 340.78L205.37 336.78L203.17 341.84H199.23C199.23 341.84 198.79 313.78 196.24 293.85Z" fill="white"/>
<path d="M298.93 240.3C310.16 246.91 311.42 254.36 313.73 259.68C307.89 260.84 301.85 262.08 297.03 265.57C291.03 269.93 287.78 277.15 285.26 284.16C282.876 290.794 280.873 297.558 279.26 304.42C284.688 294.614 292.403 286.264 301.75 280.08C307.14 276.52 313.8 273.65 319.95 275.66C314.79 277.85 308.95 280.81 307.86 286.31C307.646 287.223 307.684 288.177 307.97 289.07C308.89 291.66 312.11 292.36 314.55 293.62C319.31 296.07 321.79 301.62 322 307C322.21 312.38 320.56 317.58 318.93 322.67C317.497 327.13 316.063 331.59 314.63 336.05C312.8 341.75 310.94 347.53 307.63 352.53C304.32 357.53 299.35 361.72 293.44 362.7C290.969 363.177 288.412 362.887 286.11 361.87C284.365 360.922 282.743 359.763 281.28 358.42C274.19 352.694 265.669 349.015 256.64 347.78C268.26 355.46 273.76 369.41 278.58 382.48C276.367 378.606 273.178 375.379 269.33 373.12C268.344 372.433 267.172 372.063 265.97 372.06C262.81 372.31 261.81 376.34 259.91 378.86C257.63 381.86 253.46 382.93 249.72 382.45C245.98 381.97 242.54 380.22 239.18 378.45L196.67 356.53L193.67 365.53C193.67 365.53 227.53 392.53 279.41 402.08C279.41 402.08 313.11 375.45 325.05 351.84C336.99 328.23 355.54 279.84 355.54 279.84C355.54 279.84 348.75 266.98 337.11 260.27C337.11 260.27 328.42 256.16 326.59 251.08C324.76 246 308.43 237.23 308.43 237.23C308.43 237.23 310.55 242.65 298.93 240.3Z" fill="#48A6FF"/>
<path opacity="0.6" d="M298.93 240.3C310.16 246.91 311.42 254.36 313.73 259.68C307.89 260.84 301.85 262.08 297.03 265.57C291.03 269.93 287.78 277.15 285.26 284.16C282.876 290.794 280.873 297.558 279.26 304.42C284.688 294.614 292.403 286.264 301.75 280.08C307.14 276.52 313.8 273.65 319.95 275.66C314.79 277.85 308.95 280.81 307.86 286.31C307.646 287.223 307.684 288.177 307.97 289.07C308.89 291.66 312.11 292.36 314.55 293.62C319.31 296.07 321.79 301.62 322 307C322.21 312.38 320.56 317.58 318.93 322.67C317.497 327.13 316.063 331.59 314.63 336.05C312.8 341.75 310.94 347.53 307.63 352.53C304.32 357.53 299.35 361.72 293.44 362.7C290.969 363.177 288.412 362.887 286.11 361.87C284.365 360.922 282.743 359.763 281.28 358.42C274.19 352.694 265.669 349.015 256.64 347.78C268.26 355.46 273.76 369.41 278.58 382.48C276.367 378.606 273.178 375.379 269.33 373.12C268.344 372.433 267.172 372.063 265.97 372.06C262.81 372.31 261.81 376.34 259.91 378.86C257.63 381.86 253.46 382.93 249.72 382.45C245.98 381.97 242.54 380.22 239.18 378.45L196.67 356.53L193.67 365.53C193.67 365.53 227.53 392.53 279.41 402.08C279.41 402.08 313.11 375.45 325.05 351.84C336.99 328.23 355.54 279.84 355.54 279.84C355.54 279.84 348.75 266.98 337.11 260.27C337.11 260.27 328.42 256.16 326.59 251.08C324.76 246 308.43 237.23 308.43 237.23C308.43 237.23 310.55 242.65 298.93 240.3Z" fill="white"/>
<path d="M295.36 148.25C295.36 148.25 297.63 121.78 286.22 119.25C274.81 116.72 268.4 106.25 268.4 106.25L227.92 117.55L221.64 141.89L225.64 154.21C225.64 154.21 226.48 165.64 226.64 171.29C226.8 176.94 226.64 181.29 230.92 188.15C235.2 195.01 239.18 201.82 248.43 207.75V223.34C248.43 223.34 242.71 240.03 245.87 250.27C245.87 250.27 247.76 252.27 252.98 249.27C258.2 246.27 280.53 231.35 288.32 215.77L290.74 176.16C290.74 176.16 297.17 177.16 299.94 171.3C304.01 165.57 303.85 158.89 302.27 153.45C300.69 148.01 293.89 151.53 293.89 151.53L295.36 148.25Z" fill="#999999"/>
<path d="M248.87 187.06C250.014 185.814 251.425 184.841 252.997 184.214C254.569 183.588 256.262 183.323 257.95 183.44C257.95 183.44 262.82 175.75 267.95 177.16C267.95 177.16 269.53 185.31 263.38 188.52C255.38 192.69 248.87 187.06 248.87 187.06Z" fill="#737373"/>
<path d="M233.83 114.18C233.83 114.18 224.14 126.91 224.7 140.18C225.26 153.45 227.19 162.86 226.63 173.1C226.07 183.34 236.87 200.49 247.94 207.4C256.21 212.57 266.58 211.69 274.63 206.4C283.63 200.4 288.58 189.62 290.39 179.27C290.57 178.27 290.71 177.27 290.81 176.19" stroke="#263238" stroke-linecap="round" stroke-linejoin="round"/>
<path d="M247.94 207.41C247.94 207.41 249.51 221.75 247.94 226.66C246.21 232.05 244.12 244.6 245.94 250.27C247.76 255.94 281.81 232.11 288.39 215.76C288.39 215.76 289.3 183.99 291.57 176.05" stroke="#263238" stroke-linecap="round" stroke-linejoin="round"/>
<path d="M247 186.71C247 186.71 262.49 191.09 268.83 175.1" stroke="#263238" stroke-linecap="round" stroke-linejoin="round"/>
<path d="M248.25 210.86C248.25 210.86 251.55 221.09 258.67 221.7C265.79 222.31 283.6 208.04 289.67 191.23V182.82C289.67 182.82 284.67 204.82 270.03 208.82C255.39 212.82 248.54 207.73 248.54 207.73L248.25 210.86Z" fill="#263238"/>
<path d="M267.94 177.16C261.06 176.68 257.94 183.44 257.94 183.44C256.244 183.233 254.524 183.456 252.937 184.089C251.35 184.722 249.948 185.743 248.86 187.06C250.555 188.581 252.639 189.601 254.879 190.007C257.12 190.413 259.429 190.189 261.55 189.36C269.37 186.64 267.94 177.16 267.94 177.16Z" stroke="#263238" stroke-linecap="round" stroke-linejoin="round"/>
<path d="M250.69 147C250.775 150.173 250.635 153.347 250.27 156.5C249.9 159.33 248.59 162.04 247.5 164.7C246.5 167.12 244.83 170.84 246.22 173.39C247.8 176.28 253.05 173.39 253.05 173.39" stroke="#263238" stroke-linecap="round" stroke-linejoin="round"/>
<path d="M256.28 172.79C258.05 173.03 260.56 172.79 261.06 169.72" stroke="#263238" stroke-linecap="round" stroke-linejoin="round"/>
<path d="M262 143.18C263.711 141.548 265.985 140.637 268.35 140.637C270.715 140.637 272.989 141.548 274.7 143.18" stroke="#263238" stroke-width="2" stroke-linecap="round" stroke-linejoin="round"/>
<path d="M241.82 145.68C241.82 145.68 237.13 139.68 230.99 145.68" stroke="#263238" stroke-width="2" stroke-linecap="round" stroke-linejoin="round"/>
<path d="M287.13 160.85C287.13 160.85 292.48 148 299.46 150.76C304.27 152.67 304.56 160.97 302.01 166.76C299.46 172.55 298.18 178.45 289.68 175.15" stroke="#263238" stroke-linecap="round" stroke-linejoin="round"/>
<path d="M288.08 158.88C288.08 158.88 282.94 157.06 281.99 148.71C281.04 140.36 286.16 132 284.26 126C282.36 120 267.39 123 263.98 112.54C263.98 112.54 252.74 120.92 230.98 119.12C230.98 119.12 226.39 126.94 225.59 131.72C224.519 139.194 224.546 146.784 225.67 154.25C225.67 154.51 225.76 154.76 225.81 155.02C227.37 163.16 219.6 143.94 219.81 135.73C220.02 127.52 215.07 117.09 221.52 109.32C227.97 101.55 251.62 97 256.28 93.35C260.94 89.7 270 99.42 280.47 103C290.94 106.58 299.62 110.85 298.3 125.7C296.98 140.55 298.37 142.54 298.43 150.36C298.43 150.38 293.59 148.56 288.08 158.88Z" fill="#263238"/>
<path d="M268.37 154C268.37 156 267.6 157.66 266.64 157.66C265.68 157.66 264.92 156.02 264.92 154C264.92 151.98 265.69 150.35 266.64 150.35C267.59 150.35 268.37 152 268.37 154Z" fill="#263238"/>
<path d="M241.82 154C241.82 156 241.05 157.66 240.1 157.66C239.15 157.66 238.38 156.02 238.38 154C238.38 151.98 239.15 150.35 240.1 150.35C241.05 150.35 241.82 152 241.82 154Z" fill="#263238"/>
<path d="M262 158.88C262 158.88 265.57 162.67 270.09 163.21" stroke="#263238" stroke-linecap="round" stroke-linejoin="round"/>
<path d="M237.68 163.21C237.68 163.21 244.21 162.75 245.68 158.88" stroke="#263238" stroke-linecap="round" stroke-linejoin="round"/>
<path d="M252.86 252.7C257.72 249.61 264.15 250.77 269.47 252.96C272.39 254.17 275.17 255.69 278.08 256.96C279.519 257.596 281.003 258.124 282.52 258.54C286.17 259.49 284.86 254.96 284.65 252.93C284.35 250.02 284.14 247.1 283.79 244.21C283.646 243.612 283.717 242.982 283.99 242.43C284.349 241.985 284.85 241.678 285.41 241.56C291.82 239.56 298.73 240.44 305.41 240.56C306.016 240.632 306.63 240.517 307.17 240.23C308.17 239.58 308.06 238.11 307.79 236.95C305.48 227.07 297.33 217.24 288.47 212.3" stroke="#263238" stroke-linecap="round" stroke-linejoin="round"/>
<path d="M248.5 213.9C244.09 215.74 239.56 217.65 235.76 220.47C234.381 221.475 233.111 222.621 231.97 223.89C231.051 224.765 230.473 225.938 230.34 227.2C230.364 227.787 230.52 228.361 230.795 228.88C231.07 229.399 231.458 229.85 231.93 230.2C232.601 230.752 233.34 231.216 234.13 231.58C235.97 232.45 238.13 233.3 238.91 235.15C239.099 235.537 239.169 235.973 239.11 236.4C239.011 236.775 238.818 237.119 238.55 237.4C237.03 239.25 234.35 240.68 234.55 243.07C234.68 244.92 236.55 246.07 238.21 246.89C239.87 247.71 241.81 248.56 242.38 250.33" stroke="#263238" stroke-linecap="round" stroke-linejoin="round"/>
<path d="M222.39 120.13C223.04 116.13 227.22 113.55 231.24 112.9C235.26 112.25 239.39 112.9 243.44 112.55C246.827 112.215 250.103 111.158 253.046 109.448C255.989 107.738 258.531 105.417 260.5 102.64" stroke="white" stroke-linecap="round" stroke-linejoin="round"/>
<path d="M226.94 108.89C234.2 104.6 244.4 109.06 251.48 104.48C253.483 103.021 255.228 101.236 256.64 99.2" stroke="white" stroke-linecap="round" stroke-linejoin="round"/>
<path d="M319.55 273C293.55 278.19 283.85 297.32 283.85 297.32L253.05 345.83" stroke="#263238" stroke-linecap="round" stroke-linejoin="round"/>
<path d="M297.57 267.76C299.727 265.762 302.171 264.097 304.82 262.82" stroke="#263238" stroke-linecap="round" stroke-linejoin="round"/>
<path d="M279.39 304.38C279.39 304.38 282.67 286.86 292.09 273.95" stroke="#263238" stroke-linecap="round" stroke-linejoin="round"/>
<path d="M199.23 341.76C199.23 341.76 197.88 288.09 193.23 279.89" stroke="#263238" stroke-linecap="round" stroke-linejoin="round"/>
<path d="M307.83 236.93C307.83 236.93 322.83 245.93 329.49 254.39C336.15 262.85 351.89 268.47 355.49 279.89C355.49 279.89 334.76 345.21 313.04 368.82C291.32 392.43 279.36 402.12 279.36 402.12C279.36 402.12 227.11 393.04 193.22 364.58L205.34 336.73C205.34 336.73 239.51 341.05 253.02 345.85C266.53 350.65 279.36 379.72 279.36 379.72" stroke="#263238" stroke-linecap="round" stroke-linejoin="round"/>
<path d="M253.05 345.85C253.05 345.85 276.97 350.5 284.74 361.39" stroke="#263238" stroke-linecap="round" stroke-linejoin="round"/>
<path d="M321.88 357.05L304.82 432.1H200.37L196.81 405.87" stroke="#263238" stroke-linecap="round" stroke-linejoin="round"/>
<path d="M245.35 398.44C239.58 410.26 231.97 407.65 231.97 407.65C173.12 409.88 151.44 387.89 151.44 387.89C151.44 387.89 148.44 356.96 160.01 315.22C171.58 273.48 193.25 236.93 193.25 236.93C202.86 230.54 224.3 225.55 230.35 224.23L231.97 223.89" stroke="#263238" stroke-linecap="round" stroke-linejoin="round"/>
<path d="M232 407.65C232 407.65 228.89 407.14 229.68 386.52" stroke="#263238" stroke-linecap="round" stroke-linejoin="round"/>
<path d="M194.84 365.9C194.84 365.9 180.14 360.72 161.93 373.32" stroke="#263238" stroke-linecap="round" stroke-linejoin="round"/>
<path d="M165.23 361.39C165.23 361.39 184.49 355.66 193.23 364.84" stroke="#263238" stroke-linecap="round" stroke-linejoin="round"/>
<path d="M191.15 364.32L193.65 365.57L203.17 341.79C203.17 341.79 193.31 340.18 177.69 359.63C182.567 359.687 187.293 361.333 191.15 364.32Z" fill="#999999" stroke="#263238" stroke-miterlimit="10"/>
<path d="M229.65 386.52V397.09C229.65 397.09 243.12 401.09 253.09 395.34L229.65 386.52Z" fill="#999999" stroke="#263238" stroke-miterlimit="10"/>
<path d="M302.66 240.45C302.67 240.645 302.649 240.841 302.6 241.03C302.18 242.68 291.91 281.45 259.04 298.7C258.754 298.853 258.434 298.932 258.11 298.93C257.663 298.93 257.229 298.78 256.877 298.504C256.526 298.228 256.276 297.843 256.169 297.409C256.062 296.975 256.104 296.518 256.287 296.11C256.47 295.703 256.784 295.368 257.18 295.16C287.18 279.43 297.75 243.58 298.67 240.28L302.66 240.45Z" fill="#263238"/>
<path d="M231.93 230.17C226.734 242.039 223.93 254.816 223.68 267.77C223.68 268.82 223.68 269.89 223.68 270.98C223.68 271.25 223.68 271.52 223.68 271.79C223.382 271.8 223.084 271.83 222.79 271.88C221.708 272.051 220.659 272.388 219.68 272.88C219.68 271.41 219.68 269.98 219.68 268.57C220.11 246.13 226.81 230.86 230.38 224.26L232 223.92C231.081 224.795 230.503 225.968 230.37 227.23C230.4 227.804 230.555 228.365 230.824 228.873C231.094 229.381 231.471 229.823 231.93 230.17Z" fill="#263238"/>
<path d="M271.31 289.68C273.65 292.93 271.73 298.33 267.01 301.74C262.29 305.15 256.57 305.27 254.22 302.02C251.87 298.77 253.79 293.37 258.51 289.96C263.23 286.55 269 286.43 271.31 289.68Z" fill="white" stroke="#263238" stroke-linecap="round" stroke-linejoin="round"/>
<path d="M265.49 287.75C267.15 290.05 265.79 293.87 262.49 296.28C259.19 298.69 255.1 298.78 253.49 296.48C251.88 294.18 253.19 290.36 256.49 287.95C259.79 285.54 263.83 285.46 265.49 287.75Z" fill="white" stroke="#263238" stroke-linecap="round" stroke-linejoin="round"/>
<path d="M239.06 328.34C238.634 328.623 238.116 328.732 237.612 328.645C237.108 328.558 236.656 328.281 236.35 327.871C236.044 327.461 235.907 326.95 235.966 326.442C236.026 325.934 236.277 325.468 236.67 325.14C236.84 325 243.55 319.29 240.61 300.06C240.36 298.43 240.04 296.69 239.61 294.86C238.34 289.03 236.38 281.65 232.37 276.23C231.416 274.8 230.11 273.641 228.577 272.863C227.044 272.085 225.337 271.716 223.62 271.79C223.322 271.8 223.024 271.83 222.73 271.88C221.648 272.051 220.599 272.388 219.62 272.88C216.633 274.423 214.365 277.071 213.3 280.26L212.94 281.26C210.672 287.392 208.818 293.67 207.39 300.05C205.79 307.9 205.25 316.13 208.09 321.88C208.851 323.458 209.935 324.858 211.272 325.99C212.608 327.121 214.168 327.96 215.85 328.45C216.301 328.598 216.685 328.903 216.933 329.308C217.18 329.714 217.275 330.195 217.201 330.664C217.126 331.133 216.887 331.561 216.526 331.87C216.164 332.179 215.705 332.349 215.23 332.35C215.019 332.349 214.81 332.316 214.61 332.25C212.423 331.593 210.396 330.49 208.658 329.01C206.919 327.529 205.507 325.704 204.51 323.65C201.31 317.18 201.73 308.37 203.35 300.05C204.786 293.208 206.731 286.482 209.17 279.93L209.53 278.93C210.316 276.55 211.633 274.38 213.381 272.583C215.129 270.787 217.262 269.411 219.62 268.56C220.436 268.277 221.276 268.07 222.13 267.94C222.64 267.87 223.13 267.82 223.65 267.79C225.991 267.726 228.31 268.249 230.396 269.313C232.482 270.377 234.268 271.947 235.59 273.88C240.05 279.88 242.17 287.81 243.52 294.03C243.99 296.17 244.35 298.18 244.62 300.08C247.78 321.64 239.45 328.06 239.06 328.34Z" fill="#263238" stroke="#263238" stroke-miterlimit="10"/>
<path d="M213.83 332C213.83 332 221.08 335 222.92 332C224.76 329 223.27 327.59 220.76 327.35C218.258 327.222 215.752 327.222 213.25 327.35L213.83 332Z" fill="#263238" stroke="#263238" stroke-miterlimit="10"/>
<path d="M217.16 331C217.029 331.401 216.775 331.75 216.434 331.998C216.093 332.246 215.682 332.38 215.26 332.38C215.049 332.38 214.84 332.346 214.64 332.28C212.453 331.623 210.426 330.52 208.688 329.04C206.949 327.559 205.537 325.734 204.54 323.68C201.34 317.21 201.76 308.4 203.38 300.08H207.38C205.78 307.93 205.24 316.16 208.08 321.91C208.841 323.488 209.925 324.888 211.262 326.02C212.599 327.152 214.158 327.99 215.84 328.48C216.093 328.558 216.328 328.684 216.532 328.853C216.735 329.022 216.903 329.23 217.026 329.464C217.149 329.699 217.224 329.955 217.247 330.219C217.27 330.482 217.24 330.748 217.16 331Z" fill="white" stroke="#263238" stroke-linecap="round" stroke-linejoin="round"/>
<path d="M232.38 326.17C232.078 326.528 231.856 326.945 231.727 327.395C231.597 327.845 231.564 328.317 231.63 328.78C231.83 329.465 232.263 330.058 232.855 330.457C233.447 330.855 234.16 331.033 234.87 330.96C236.29 330.771 237.589 330.058 238.51 328.96C239.51 327.84 242.98 320.51 239.77 321.77C237.44 322.65 233.94 324.14 232.38 326.17Z" fill="#263238" stroke="#263238" stroke-miterlimit="10"/>
<path d="M239.06 328.34C238.634 328.623 238.116 328.733 237.612 328.645C237.108 328.558 236.656 328.281 236.35 327.871C236.044 327.462 235.907 326.95 235.966 326.442C236.026 325.934 236.278 325.468 236.67 325.14C236.84 325 243.55 319.29 240.61 300.06H244.61C247.78 321.64 239.45 328.06 239.06 328.34Z" fill="white" stroke="#263238" stroke-linecap="round" stroke-linejoin="round"/>
<path opacity="0.2" d="M257 151.59C257 151.59 269.59 145.05 281.16 151.59C281.16 151.59 281.35 161.24 276.98 165.21C275.43 166.62 268.33 166.86 265.64 166.62C254.72 165.63 257 151.59 257 151.59Z" fill="white"/>
<path opacity="0.2" d="M249.1 151.59C249.1 151.59 236.51 145.05 224.95 151.59C224.95 151.59 224.76 161.24 229.12 165.21C230.67 166.62 237.78 166.86 240.46 166.62C251.38 165.63 249.1 151.59 249.1 151.59Z" fill="white"/>
<path d="M257 151.59C257 151.59 269.59 145.05 281.16 151.59C281.16 151.59 281.35 161.24 276.98 165.21C275.43 166.62 268.33 166.86 265.64 166.62C254.72 165.63 257 151.59 257 151.59Z" stroke="#263238" stroke-miterlimit="10"/>
<path d="M249.1 151.59C249.1 151.59 236.51 145.05 224.95 151.59C224.95 151.59 224.76 161.24 229.12 165.21C230.67 166.62 237.78 166.86 240.46 166.62C251.38 165.63 249.1 151.59 249.1 151.59Z" stroke="#263238" stroke-miterlimit="10"/>
<path d="M249.1 151.59C249.1 151.59 251.92 149.52 257 151.59" stroke="#263238" stroke-miterlimit="10"/>
<path d="M281.16 151.59L286.42 154.03" stroke="#263238" stroke-miterlimit="10"/>
<path d="M79.8201 458.72L116.83 423.76H410.57L432.81 458.72H79.8201Z" fill="white" stroke="#263238" stroke-linecap="round" stroke-linejoin="round"/>
<path d="M432.81 458.72H79.8201V468.13H432.81V458.72Z" fill="#263238" stroke="#263238" stroke-linecap="round" stroke-linejoin="round"/>
<path d="M116.83 450.08V442.83H174.83V450.08H163.64H116.83Z" fill="white" stroke="#263238" stroke-miterlimit="10"/>
<path d="M116.83 442.83L151.09 419.85L196.81 420.93L174.83 442.83H116.83Z" fill="white" stroke="#263238" stroke-linecap="round" stroke-linejoin="round"/>
<path d="M174.83 450.08L196.81 428.06V420.93L174.83 442.83V450.08Z" fill="white" stroke="#263238" stroke-linecap="round" stroke-linejoin="round"/>
<path d="M173.26 441C173.26 441 168.63 441.92 168.63 445.93C168.63 449.94 172.63 451.12 172.63 451.12" stroke="#263238" stroke-width="2" stroke-linecap="round" stroke-linejoin="round"/>
<path d="M168.63 441C168.63 441 164 441.92 164 445.93C164 449.94 168 451.12 168 451.12" stroke="#263238" stroke-width="2" stroke-linecap="round" stroke-linejoin="round"/>
<path d="M164 441C164 441 159.37 441.92 159.37 445.93C159.37 449.94 163.37 451.12 163.37 451.12" stroke="#263238" stroke-width="2" stroke-linecap="round" stroke-linejoin="round"/>
<path d="M159.37 441C159.37 441 154.74 441.92 154.74 445.93C154.74 449.94 158.74 451.12 158.74 451.12" stroke="#263238" stroke-width="2" stroke-linecap="round" stroke-linejoin="round"/>
<path d="M154.74 441C154.74 441 150.11 441.92 150.11 445.93C150.11 449.94 154.11 451.12 154.11 451.12" stroke="#263238" stroke-width="2" stroke-linecap="round" stroke-linejoin="round"/>
<path d="M150.11 441C150.11 441 145.48 441.92 145.48 445.93C145.48 449.94 149.48 451.12 149.48 451.12" stroke="#263238" stroke-width="2" stroke-linecap="round" stroke-linejoin="round"/>
<path d="M145.48 441C145.48 441 140.85 441.92 140.85 445.93C140.85 449.94 144.85 451.12 144.85 451.12" stroke="#263238" stroke-width="2" stroke-linecap="round" stroke-linejoin="round"/>
<path d="M140.85 441C140.85 441 136.22 441.92 136.22 445.93C136.22 449.94 140.22 451.12 140.22 451.12" stroke="#263238" stroke-width="2" stroke-linecap="round" stroke-linejoin="round"/>
<path d="M135.65 441C135.65 441 131.02 441.92 131.02 445.93C131.02 449.94 135.02 451.12 135.02 451.12" stroke="#263238" stroke-width="2" stroke-linecap="round" stroke-linejoin="round"/>
<path d="M130.44 441C130.44 441 125.81 441.92 125.81 445.93C125.81 449.94 129.81 451.12 129.81 451.12" stroke="#263238" stroke-width="2" stroke-linecap="round" stroke-linejoin="round"/>
<path d="M124.65 441C124.65 441 120.02 441.92 120.02 445.93C120.02 449.94 124.02 451.12 124.02 451.12" stroke="#263238" stroke-width="2" stroke-linecap="round" stroke-linejoin="round"/>
<path d="M154 425.48C150.806 427.242 148.275 429.998 146.79 433.33C151 432 154.33 429 157.52 426L154.06 434.58C155.653 434.451 157.193 433.948 158.555 433.112C159.917 432.276 161.063 431.131 161.9 429.77C161.626 429.888 161.38 430.063 161.178 430.283C160.976 430.503 160.823 430.763 160.729 431.046C160.634 431.329 160.601 431.629 160.63 431.926C160.66 432.223 160.752 432.511 160.9 432.77C163.8 432.35 165.65 429.55 167.11 427.01C167.378 428.423 167.482 429.863 167.42 431.3C169.845 431.648 172.319 431.333 174.58 430.39" stroke="#263238" stroke-width="0.75" stroke-linecap="round" stroke-linejoin="round"/>
<path d="M408.61 388.74H307.8V444.09H408.61V388.74Z" fill="white" stroke="#263238" stroke-linecap="round" stroke-linejoin="round"/>
<path d="M307.41 444.08L291.2 428.67V373.32L307.41 388.74V444.08Z" fill="white" stroke="#263238" stroke-linecap="round" stroke-linejoin="round"/>
<path d="M408.61 388.74L392.4 373.32H291.6L307.8 388.74H408.61Z" fill="white" stroke="#263238" stroke-linecap="round" stroke-linejoin="round"/>
<path d="M371.54 409.5H362.63V400.18H350.07V409.5H340.35V422.06H350.07V431.37H362.63V422.06H371.54V409.5Z" fill="#48A6FF" stroke="#263238" stroke-miterlimit="10"/>
<path d="M357.33 388.74L341.12 373.32" stroke="#263238" stroke-linecap="round" stroke-linejoin="round"/>
<path d="M144.246 153.495C156.005 141.736 156.005 122.671 144.246 110.913C132.488 99.1539 113.423 99.1539 101.665 110.913C89.9058 122.671 89.9058 141.736 101.665 153.495C113.423 165.253 132.488 165.253 144.246 153.495Z" fill="white" stroke="#263238" stroke-linecap="round" stroke-linejoin="round"/>
<path d="M148 127.59C148 129.605 147.368 131.57 146.193 133.208C145.018 134.846 143.359 136.074 141.45 136.72L128 141.25L111.63 146.78C109.219 147.573 106.591 147.38 104.321 146.244C102.051 145.108 100.322 143.121 99.5103 140.716C98.6989 138.311 98.8711 135.682 99.9893 133.403C101.107 131.124 103.081 129.38 105.48 128.55L120.35 123.55L135.29 118.55C136.735 118.064 138.276 117.928 139.784 118.153C141.292 118.379 142.725 118.959 143.965 119.847C145.205 120.734 146.217 121.903 146.916 123.258C147.616 124.613 147.984 126.115 147.99 127.64L148 127.59Z" fill="white"/>
<path d="M148 127.59C148 129.605 147.368 131.57 146.193 133.208C145.018 134.846 143.359 136.074 141.45 136.72L128 141.25C127.641 134.624 124.929 128.343 120.35 123.54L135.29 118.54C136.735 118.054 138.276 117.918 139.784 118.143C141.292 118.369 142.725 118.949 143.965 119.837C145.205 120.724 146.217 121.893 146.916 123.248C147.616 124.603 147.984 126.105 147.99 127.63L148 127.59Z" fill="#48A6FF"/>
<path d="M148 127.59C148 129.605 147.368 131.57 146.193 133.208C145.018 134.846 143.359 136.074 141.45 136.72L128 141.25L111.63 146.78C109.219 147.573 106.591 147.38 104.321 146.244C102.051 145.108 100.322 143.121 99.5103 140.716C98.6989 138.311 98.8711 135.682 99.9893 133.403C101.107 131.124 103.081 129.38 105.48 128.55L120.35 123.55L135.29 118.55C136.735 118.064 138.276 117.928 139.784 118.153C141.292 118.379 142.725 118.959 143.965 119.847C145.205 120.734 146.217 121.903 146.916 123.258C147.616 124.613 147.984 126.115 147.99 127.64L148 127.59Z" stroke="#263238" stroke-linecap="round" stroke-linejoin="round"/>
<path d="M128 141.25C127.694 134.612 124.974 128.314 120.35 123.54" stroke="#263238" stroke-linecap="round" stroke-linejoin="round"/>
<path d="M144.78 124C145.411 125.064 145.73 126.284 145.7 127.52" stroke="white" stroke-linecap="round" stroke-linejoin="round"/>
<path d="M124.15 125L136.15 121C137.226 120.631 138.371 120.505 139.502 120.631C140.633 120.757 141.722 121.133 142.69 121.73" stroke="white" stroke-linecap="round" stroke-linejoin="round"/>
<path d="M327.543 91.3556C342.857 84.874 350.017 67.2051 343.536 51.891C337.054 36.5768 319.385 29.4166 304.071 35.8982C288.757 42.3797 281.597 60.0486 288.078 75.3627C294.56 90.6769 312.229 97.8371 327.543 91.3556Z" fill="white" stroke="#263238" stroke-linecap="round" stroke-linejoin="round"/>
<path d="M326.19 76.23L299.93 67.44C297.746 66.706 295.944 65.1349 294.918 63.0723C293.892 61.0096 293.728 58.6241 294.46 56.44C295.194 54.2565 296.765 52.4537 298.828 51.428C300.89 50.4023 303.276 50.2376 305.46 50.97L331.72 59.75C333.902 60.4863 335.703 62.0576 336.728 64.1195C337.754 66.1815 337.92 68.5658 337.19 70.75C336.456 72.9338 334.885 74.7371 332.823 75.7645C330.761 76.7918 328.375 76.9592 326.19 76.23Z" fill="#48A6FF"/>
<path d="M306.95 66.74L311.35 56.23" stroke="#263238" stroke-linecap="round" stroke-linejoin="round"/>
<path d="M321.42 71.5498L325.8 61.0698" stroke="#263238" stroke-linecap="round" stroke-linejoin="round"/>
<path d="M310.58 67.3598C311.072 67.3598 311.47 66.9614 311.47 66.4698C311.47 65.9783 311.072 65.5798 310.58 65.5798C310.089 65.5798 309.69 65.9783 309.69 66.4698C309.69 66.9614 310.089 67.3598 310.58 67.3598Z" fill="#263238"/>
<path d="M319.33 69.09C319.33 69.266 319.278 69.4381 319.18 69.5844C319.082 69.7308 318.943 69.8448 318.781 69.9122C318.618 69.9796 318.439 69.9972 318.266 69.9629C318.094 69.9285 317.935 69.8437 317.811 69.7193C317.686 69.5948 317.601 69.4362 317.567 69.2636C317.533 69.0909 317.55 68.912 317.618 68.7494C317.685 68.5867 317.799 68.4477 317.946 68.3499C318.092 68.2522 318.264 68.2 318.44 68.2C318.676 68.2 318.902 68.2937 319.069 68.4606C319.236 68.6275 319.33 68.8539 319.33 69.09Z" fill="#263238"/>
<path d="M314.03 59.4399C314.522 59.4399 314.92 59.0414 314.92 58.5499C314.92 58.0584 314.522 57.6599 314.03 57.6599C313.539 57.6599 313.14 58.0584 313.14 58.5499C313.14 59.0414 313.539 59.4399 314.03 59.4399Z" fill="#263238"/>
<path d="M322.65 61.09C322.65 61.266 322.598 61.438 322.5 61.5844C322.402 61.7308 322.263 61.8448 322.101 61.9122C321.938 61.9796 321.759 61.9972 321.586 61.9628C321.414 61.9285 321.255 61.8437 321.131 61.7193C321.006 61.5948 320.922 61.4362 320.887 61.2636C320.853 61.0909 320.87 60.912 320.938 60.7494C321.005 60.5867 321.119 60.4477 321.266 60.3499C321.412 60.2521 321.584 60.2 321.76 60.2C321.996 60.2 322.223 60.2937 322.389 60.4606C322.556 60.6275 322.65 60.8539 322.65 61.09Z" fill="#263238"/>
<path d="M326.19 76.23L299.93 67.44C297.746 66.706 295.944 65.1349 294.918 63.0723C293.892 61.0096 293.728 58.6241 294.46 56.44V56.44C295.194 54.2565 296.765 52.4537 298.828 51.428C300.89 50.4023 303.276 50.2376 305.46 50.97L331.72 59.75C333.902 60.4863 335.703 62.0576 336.728 64.1195C337.754 66.1815 337.92 68.5658 337.19 70.75V70.75C336.456 72.9338 334.885 74.7371 332.823 75.7645C330.761 76.7918 328.375 76.9592 326.19 76.23V76.23Z" stroke="#263238" stroke-linecap="round" stroke-linejoin="round"/>
<path d="M202.14 92.0999C218.769 92.0999 232.25 78.6192 232.25 61.9899C232.25 45.3606 218.769 31.8799 202.14 31.8799C185.511 31.8799 172.03 45.3606 172.03 61.9899C172.03 78.6192 185.511 92.0999 202.14 92.0999Z" fill="white" stroke="#263238" stroke-linecap="round" stroke-linejoin="round"/>
<path d="M219.39 62.7599V75.0999C219.39 78.2299 217.39 80.7699 214.94 80.7699H189.34C186.88 80.7699 184.89 78.2299 184.89 75.0999V62.7599C184.89 59.6299 186.89 57.0899 189.34 57.0899H193.55V49.9299H210.55V57.0899H214.91C217.39 57.0899 219.39 59.6299 219.39 62.7599Z" fill="white" stroke="#263238" stroke-linecap="round" stroke-linejoin="round"/>
<path d="M219.38 64.1799H184.89V71.8299H219.38V64.1799Z" fill="#48A6FF" stroke="#263238" stroke-miterlimit="10"/>
<path d="M195.9 41.5501H208.54C209.967 41.5501 211.335 42.1169 212.344 43.1258C213.353 44.1348 213.92 45.5032 213.92 46.9301V52.5201H190.51V46.9301C190.51 46.2227 190.65 45.5223 190.921 44.8689C191.191 44.2155 191.589 43.622 192.089 43.1223C192.59 42.6226 193.184 42.2265 193.838 41.9567C194.492 41.6869 195.193 41.5487 195.9 41.5501Z" fill="#48A6FF" stroke="#263238" stroke-miterlimit="10"/>
<path d="M194.6 41.8899V52.5199" stroke="#263238" stroke-linecap="round" stroke-linejoin="round"/>
<path d="M200.13 41.55V52.5201" stroke="#263238" stroke-linecap="round" stroke-linejoin="round"/>
<path d="M205.66 41.55V52.5201" stroke="#263238" stroke-linecap="round" stroke-linejoin="round"/>
<path d="M211.19 42.1699V52.5199" stroke="#263238" stroke-linecap="round" stroke-linejoin="round"/>
<path d="M124.999 226.595C127.689 210.185 116.566 194.701 100.156 192.011C83.746 189.321 68.262 200.443 65.5718 216.853C62.8815 233.263 74.0038 248.747 90.4141 251.437C106.824 254.128 122.308 243.005 124.999 226.595Z" fill="white" stroke="#263238" stroke-linecap="round" stroke-linejoin="round"/>
<path d="M110.559 229.491C113.839 222.557 109.33 213.545 100.487 209.363C91.6454 205.182 81.8188 207.414 78.5393 214.349C75.2597 221.284 79.769 230.295 88.611 234.477C97.4531 238.658 107.28 236.426 110.559 229.491Z" fill="#48A6FF" stroke="#263238" stroke-linecap="round" stroke-linejoin="round"/>
<path d="M111.653 227.133C114.729 220.627 110.055 211.964 101.213 207.782C92.371 203.601 82.7091 205.485 79.6325 211.99C76.556 218.496 81.2299 227.159 90.072 231.341C98.9141 235.522 108.576 233.638 111.653 227.133Z" fill="#48A6FF" stroke="#263238" stroke-linecap="round" stroke-linejoin="round"/>
<path d="M100.75 210.66L89.8201 226.03" stroke="#263238" stroke-linecap="round" stroke-linejoin="round"/>
<path d="M94.1702 208.17C95.635 208.367 97.078 208.702 98.4802 209.17" stroke="white" stroke-linecap="round" stroke-linejoin="round"/>
<path d="M84.4601 222.64C84.4601 222.64 78.8801 216.53 84.3301 210.64C85.5878 209.358 87.2257 208.516 89.0001 208.24" stroke="white" stroke-linecap="round" stroke-linejoin="round"/>
<path d="M442.163 226.613C444.853 210.202 433.731 194.718 417.32 192.028C400.91 189.338 385.426 200.46 382.736 216.87C380.046 233.281 391.168 248.765 407.578 251.455C423.988 254.145 439.472 243.023 442.163 226.613Z" fill="white" stroke="#263238" stroke-linecap="round" stroke-linejoin="round"/>
<path d="M429.73 224.76C429.5 225.09 429.27 225.43 429.03 225.76C424.52 232.01 417.57 237.84 412.42 238.99V238.91C407.42 237.79 400.69 232.24 396.18 226.18C395.93 225.85 395.69 225.51 395.46 225.18C391.12 218.96 389.29 212.43 394.12 209.73C403.94 204.25 412.42 216 412.42 216C412.42 216 420.92 204.34 430.72 209.81C435.42 212.43 433.81 218.69 429.73 224.76Z" fill="#48A6FF" stroke="#263238" stroke-miterlimit="10"/>
<path d="M429.73 224.76C429.5 225.09 429.27 225.43 429.03 225.76H426.55L423.71 229.51L421.78 218.39L418.78 225.95H411.69L408.06 232L405.26 219.75L401.65 226.14H396.18C395.93 225.81 395.69 225.47 395.46 225.14H401.07L405.66 217.01L408.48 229.36L411.15 224.91H418.15L422.15 214.67L424.29 227.03L426.04 224.72L429.73 224.76Z" fill="white"/>
<path d="M383.46 162.65C400.089 162.65 413.57 149.169 413.57 132.54C413.57 115.911 400.089 102.43 383.46 102.43C366.831 102.43 353.35 115.911 353.35 132.54C353.35 149.169 366.831 162.65 383.46 162.65Z" fill="white" stroke="#263238" stroke-linecap="round" stroke-linejoin="round"/>
<path d="M381.2 118.62C381.49 119.27 379.68 120.71 377.2 121.84C374.72 122.97 372.4 123.36 372.11 122.7C371.82 122.04 373.62 120.61 376.11 119.48C378.6 118.35 380.9 118 381.2 118.62Z" fill="white" stroke="#263238" stroke-linecap="round" stroke-linejoin="round"/>
<path d="M394.75 146.55L385.74 150.91L377.66 134.27L372.08 122.77L381.09 118.4L386.53 129.62L394.75 146.55Z" fill="white" stroke="#263238" stroke-linecap="round" stroke-linejoin="round"/>
<path d="M373.75 126.2L377.66 124.39L373.75 126.2Z" fill="#48A6FF"/>
<path d="M373.75 126.2L377.66 124.39" stroke="#263238" stroke-linecap="round" stroke-linejoin="round"/>
<path d="M375.45 129.82L379.36 128.01L375.45 129.82Z" fill="#48A6FF"/>
<path d="M375.45 129.82L379.36 128.01" stroke="#263238" stroke-linecap="round" stroke-linejoin="round"/>
<path d="M389.19 149.24L393.84 155.34L391.52 148.11L389.19 149.24Z" fill="white" stroke="#263238" stroke-linecap="round" stroke-linejoin="round"/>
<path d="M394.75 146.55C392.641 148.662 389.949 150.096 387.02 150.67L385.74 150.91L377.66 134.27L386.53 129.62L394.75 146.55Z" fill="#48A6FF" stroke="#263238" stroke-miterlimit="10"/>
<path d="M379.36 137.43L383.04 135.73" stroke="#263238" stroke-linecap="round" stroke-linejoin="round"/>
<path d="M381.38 141.3L384.99 139.65L381.38 141.3Z" fill="#48A6FF"/>
<path d="M381.38 141.3L384.99 139.65" stroke="#263238" stroke-linecap="round" stroke-linejoin="round"/>
<path d="M375.2 121.25L372.35 114.84L374.59 113.57L377.66 120.06L375.2 121.25Z" fill="white" stroke="#263238" stroke-linecap="round" stroke-linejoin="round"/>
<path d="M380.09 112.79L379.41 111.29L367.41 116.66L368.09 118.16C368.37 118.8 371.28 118.1 374.6 116.62C377.92 115.14 380.37 113.42 380.09 112.79Z" fill="white" stroke="#263238" stroke-linecap="round" stroke-linejoin="round"/>
<path d="M379.41 111.29C379.13 110.66 376.21 111.35 372.9 112.83C369.59 114.31 367.13 116.03 367.41 116.66C367.69 117.29 370.61 116.6 373.92 115.11C377.23 113.62 379.69 111.92 379.41 111.29Z" fill="white" stroke="#263238" stroke-linecap="round" stroke-linejoin="round"/>
</svg>
