<svg width="422" height="422" viewBox="0 0 422 422" fill="none" xmlns="http://www.w3.org/2000/svg">
<path d="M422 322.746H0V322.956H422V322.746Z" fill="#EBEBEB"/>
<path d="M379.716 336.325H351.762V336.536H379.716V336.325Z" fill="#EBEBEB"/>
<path d="M279.55 338.621H272.215V338.832H279.55V338.621Z" fill="#EBEBEB"/>
<path d="M350.918 328.493H334.722V328.704H350.918V328.493Z" fill="#EBEBEB"/>
<path d="M80.7286 329.911H44.2762V330.122H80.7286V329.911Z" fill="#EBEBEB"/>
<path d="M93.5912 329.911H88.2486V330.122H93.5912V329.911Z" fill="#EBEBEB"/>
<path d="M190.027 333.473H110.961V333.683H190.027V333.473Z" fill="#EBEBEB"/>
<path d="M200.028 285.103H37.06C35.7834 285.101 34.5597 284.592 33.6578 283.689C32.7558 282.785 32.2492 281.561 32.2492 280.284V51.197C32.2604 49.9276 32.7718 48.7139 33.6726 47.8195C34.5734 46.925 35.7906 46.4221 37.06 46.4199H200.028C201.306 46.4199 202.532 46.9277 203.436 47.8314C204.34 48.7352 204.847 49.961 204.847 51.2392V280.284C204.847 281.562 204.34 282.788 203.436 283.692C202.532 284.595 201.306 285.103 200.028 285.103ZM37.06 46.5887C35.8393 46.591 34.6694 47.0775 33.807 47.9414C32.9446 48.8054 32.4602 49.9762 32.4602 51.197V280.284C32.4602 281.505 32.9446 282.675 33.807 283.539C34.6694 284.403 35.8393 284.89 37.06 284.892H200.028C201.25 284.89 202.42 284.404 203.284 283.54C204.148 282.676 204.634 281.505 204.636 280.284V51.197C204.634 49.9755 204.148 48.8046 203.284 47.9409C202.42 47.0772 201.25 46.591 200.028 46.5887H37.06Z" fill="#EBEBEB"/>
<path d="M382.594 285.103H219.617C218.34 285.101 217.115 284.592 216.212 283.689C215.309 282.786 214.8 281.561 214.798 280.284V51.197C214.811 49.9268 215.325 48.7131 216.227 47.8189C217.129 46.9247 218.347 46.4221 219.617 46.4199H382.594C383.862 46.4243 385.077 46.9282 385.976 47.8224C386.875 48.7166 387.385 49.9291 387.396 51.197V280.284C387.396 281.559 386.891 282.782 385.99 283.686C385.09 284.589 383.869 285.099 382.594 285.103ZM219.617 46.5887C218.396 46.591 217.225 47.0772 216.361 47.9409C215.497 48.8046 215.011 49.9755 215.009 51.197V280.284C215.011 281.505 215.497 282.676 216.361 283.54C217.225 284.404 218.396 284.89 219.617 284.892H382.594C383.815 284.89 384.986 284.404 385.85 283.54C386.713 282.676 387.2 281.505 387.202 280.284V51.197C387.2 49.9755 386.713 48.8046 385.85 47.9409C384.986 47.0772 383.815 46.591 382.594 46.5887H219.617Z" fill="#EBEBEB"/>
<path d="M373.107 132.069H224.318V320.475H373.107V132.069Z" fill="#F0F0F0"/>
<path d="M367.849 138.939H229.576V179.232H367.849V138.939Z" fill="#E0E0E0"/>
<path d="M237.434 145.455H229.576V179.223H237.434V145.455Z" fill="#EBEBEB"/>
<path d="M275.414 145.455H267.556V179.223H275.414V145.455Z" fill="#EBEBEB"/>
<path d="M320.007 145.222L312.228 146.557L317.969 179.988L325.748 178.652L320.007 145.222Z" fill="#EBEBEB"/>
<path d="M247.165 149.911H239.308V179.232H247.165V149.911Z" fill="#EBEBEB"/>
<path d="M265.227 149.911H257.369V179.232H265.227V149.911Z" fill="#EBEBEB"/>
<path d="M310.795 149.911H302.937V179.232H310.795V149.911Z" fill="#EBEBEB"/>
<path d="M285.744 148.884L278.073 150.589L284.434 179.211L292.105 177.507L285.744 148.884Z" fill="#EBEBEB"/>
<path d="M253.96 143.784H250.035V179.223H253.96V143.784Z" fill="#EBEBEB"/>
<path d="M300.675 143.784H296.75V179.223H300.675V143.784Z" fill="#EBEBEB"/>
<path d="M229.576 225.896L367.849 225.896V185.604H229.576V225.896Z" fill="#E0E0E0"/>
<path d="M359.991 225.896H367.849V192.128H359.991V225.896Z" fill="#EBEBEB"/>
<path d="M322.011 225.896H329.869V192.128H322.011V225.896Z" fill="#EBEBEB"/>
<path d="M273.169 224.552L280.913 225.887L286.649 192.609L278.906 191.274L273.169 224.552Z" fill="#EBEBEB"/>
<path d="M350.26 225.896H358.118V196.576H350.26V225.896Z" fill="#EBEBEB"/>
<path d="M332.207 225.896H340.064V196.576H332.207V225.896Z" fill="#EBEBEB"/>
<path d="M286.631 225.896H294.488V196.576H286.631V225.896Z" fill="#EBEBEB"/>
<path d="M304.739 222.456L312.439 224.185L318.89 195.451L311.19 193.722L304.739 222.456Z" fill="#EBEBEB"/>
<path d="M343.474 225.896H347.399V190.457H343.474V225.896Z" fill="#EBEBEB"/>
<path d="M296.75 225.896H300.675V190.457H296.75V225.896Z" fill="#EBEBEB"/>
<path d="M237.434 192.128H229.576V225.897H237.434V192.128Z" fill="#EBEBEB"/>
<path d="M247.165 196.576H239.308V225.896H247.165V196.576Z" fill="#EBEBEB"/>
<path d="M265.227 196.576H257.369V225.896H265.227V196.576Z" fill="#EBEBEB"/>
<path d="M253.96 190.448H250.035V225.888H253.96V190.448Z" fill="#EBEBEB"/>
<path d="M367.849 232.277H229.576V272.57H367.849V232.277Z" fill="#E0E0E0"/>
<path d="M316.795 238.793H308.938V272.561H316.795V238.793Z" fill="#EBEBEB"/>
<path d="M359.922 237.939L352.178 239.274L357.914 272.552L365.658 271.217L359.922 237.939Z" fill="#EBEBEB"/>
<path d="M288.555 243.249H280.698V272.57H288.555V243.249Z" fill="#EBEBEB"/>
<path d="M306.608 243.249H298.751V272.57H306.608V243.249Z" fill="#EBEBEB"/>
<path d="M352.176 243.249H344.318V272.57H352.176V243.249Z" fill="#EBEBEB"/>
<path d="M327.129 242.221L319.459 243.926L325.82 272.548L333.49 270.844L327.129 242.221Z" fill="#EBEBEB"/>
<path d="M295.341 237.122H291.416V272.561H295.341V237.122Z" fill="#EBEBEB"/>
<path d="M342.056 237.122H338.132V272.561H342.056V237.122Z" fill="#EBEBEB"/>
<path d="M269.56 237.937L261.816 239.272L267.552 272.55L275.296 271.215L269.56 237.937Z" fill="#EBEBEB"/>
<path d="M261.809 243.249H253.951V272.57H261.809V243.249Z" fill="#EBEBEB"/>
<path d="M236.762 242.229L229.092 243.934L235.453 272.556L243.123 270.851L236.762 242.229Z" fill="#EBEBEB"/>
<path d="M251.689 237.122H247.765V272.561H251.689V237.122Z" fill="#EBEBEB"/>
<path d="M95.5071 179.426H118.742V146.544H95.5071V179.426Z" fill="#E0E0E0"/>
<path d="M97.0178 177.873H117.223V148.08H97.0178V177.873Z" fill="#EBEBEB"/>
<path d="M66.3131 168.023H89.5484V135.141H66.3131V168.023Z" fill="#E0E0E0"/>
<path d="M67.8239 166.47H88.0292V136.677H67.8239V166.47Z" fill="#EBEBEB"/>
<path d="M95.507 119.375V140.298H125.115V119.375H95.507Z" fill="#E0E0E0"/>
<path d="M96.8996 120.743V138.939H123.722V120.743H96.8996Z" fill="#EBEBEB"/>
<path d="M56.6577 107.475V130.71H89.54V107.475H56.6577Z" fill="#E0E0E0"/>
<path d="M58.2107 108.986V129.191H88.0039V108.986H58.2107Z" fill="#EBEBEB"/>
<path d="M113.695 86.5269H95.4986V112.277H113.695V86.5269Z" fill="#E0E0E0"/>
<path d="M112.514 87.7336H96.6886V111.062H112.514V87.7336Z" fill="#EBEBEB"/>
<path d="M211 360.861C301.378 360.861 374.643 356.583 374.643 351.307C374.643 346.03 301.378 341.752 211 341.752C120.622 341.752 47.3568 346.03 47.3568 351.307C47.3568 356.583 120.622 360.861 211 360.861Z" fill="#F5F5F5"/>
<path d="M345.601 320.88C345.601 320.88 339.119 308.22 346.53 295.679C353.94 283.137 356.084 280.208 351.357 277.676C346.631 275.144 344.47 287.686 344.47 287.686C344.47 287.686 340.486 279.043 343.778 269.962C347.07 260.88 349.129 246.161 344.622 244.583C340.115 243.005 343.778 262.974 339.862 269.785C339.862 269.785 336.596 262.189 336.055 254.93C335.515 247.672 336.359 236.05 332.815 233.071C329.27 230.091 326.991 232.159 330.477 248.204C332.57 257.766 333.729 267.509 333.937 277.296C333.937 277.296 326.24 256.247 321.074 255.631C315.909 255.015 315.918 261.834 320.34 267.742C324.763 273.65 333.287 284.251 334.688 289.686C334.688 289.686 326.248 273.844 318.652 278.714C311.056 283.584 325.269 293.138 331.608 296.59C337.946 300.042 342.335 321.724 342.335 321.724L345.601 320.88Z" fill="#48A6FF"/>
<path opacity="0.6" d="M345.601 320.88C345.601 320.88 339.119 308.22 346.53 295.679C353.94 283.137 356.084 280.208 351.357 277.676C346.631 275.144 344.47 287.686 344.47 287.686C344.47 287.686 340.486 279.043 343.778 269.962C347.07 260.88 349.129 246.161 344.622 244.583C340.115 243.005 343.778 262.974 339.862 269.785C339.862 269.785 336.596 262.189 336.055 254.93C335.515 247.672 336.359 236.05 332.815 233.071C329.27 230.091 326.991 232.159 330.477 248.204C332.57 257.766 333.729 267.509 333.937 277.296C333.937 277.296 326.24 256.247 321.074 255.631C315.909 255.015 315.918 261.834 320.34 267.742C324.763 273.65 333.287 284.251 334.688 289.686C334.688 289.686 326.248 273.844 318.652 278.714C311.056 283.584 325.269 293.138 331.608 296.59C337.946 300.042 342.335 321.724 342.335 321.724L345.601 320.88Z" fill="white"/>
<path d="M340.478 326.088C340.478 326.088 346.8 313.31 339.22 300.894C331.641 288.479 329.455 285.567 334.156 282.943C338.858 280.318 341.17 292.868 341.17 292.868C341.17 292.868 345.036 284.166 341.626 275.144C338.216 266.122 335.963 251.428 340.427 249.782C344.892 248.136 341.533 268.164 345.491 274.916C345.491 274.916 348.665 267.32 349.104 260.02C349.543 252.719 348.547 241.139 352.058 238.118C355.569 235.096 357.856 237.122 354.59 253.217C352.628 262.804 351.599 272.558 351.518 282.343C351.518 282.343 358.936 261.193 364.093 260.518C369.25 259.842 369.334 266.645 364.988 272.62C360.641 278.596 352.26 289.289 350.935 294.759C350.935 294.759 359.173 278.807 366.836 283.559C374.5 288.31 360.413 298.076 354.126 301.612C347.838 305.148 343.727 326.881 343.727 326.881L340.478 326.088Z" fill="#48A6FF"/>
<path opacity="0.7" d="M340.478 326.088C340.478 326.088 346.8 313.31 339.22 300.894C331.641 288.479 329.455 285.567 334.156 282.943C338.858 280.318 341.17 292.868 341.17 292.868C341.17 292.868 345.036 284.166 341.626 275.144C338.216 266.122 335.963 251.428 340.427 249.782C344.892 248.136 341.533 268.164 345.491 274.916C345.491 274.916 348.665 267.32 349.104 260.02C349.543 252.719 348.547 241.139 352.058 238.118C355.569 235.096 357.856 237.122 354.59 253.217C352.628 262.804 351.599 272.558 351.518 282.343C351.518 282.343 358.936 261.193 364.093 260.518C369.25 259.842 369.334 266.645 364.988 272.62C360.641 278.596 352.26 289.289 350.935 294.759C350.935 294.759 359.173 278.807 366.836 283.559C374.5 288.31 360.413 298.076 354.126 301.612C347.838 305.148 343.727 326.881 343.727 326.881L340.478 326.088Z" fill="white"/>
<path d="M369.613 316.981H317.437L321.657 350.471H365.393L369.613 316.981Z" fill="#48A6FF"/>
<path d="M216.866 332.105H58.6158V350.462H216.866V332.105Z" fill="#48A6FF"/>
<path opacity="0.4" d="M216.866 332.105H58.6158V350.462H216.866V332.105Z" fill="white"/>
<path opacity="0.4" d="M216.857 332.105H124.752V350.462H216.857V332.105Z" fill="white"/>
<path d="M290.336 332.105H132.086V350.462H290.336V332.105Z" fill="#48A6FF"/>
<path opacity="0.4" d="M290.336 332.105H132.086V350.462H290.336V332.105Z" fill="white"/>
<path opacity="0.4" d="M290.336 332.105H198.23V350.462H290.336V332.105Z" fill="white"/>
<path d="M221.432 293.712H59.6202C55.5928 293.712 52.328 296.977 52.328 301.004V329.464C52.328 333.491 55.5928 336.756 59.6202 336.756H221.432C225.459 336.756 228.724 333.491 228.724 329.464V301.004C228.724 296.977 225.459 293.712 221.432 293.712Z" fill="#48A6FF"/>
<path opacity="0.6" d="M221.432 293.712H127.14C123.113 293.712 119.848 296.977 119.848 301.004V329.464C119.848 333.491 123.113 336.756 127.14 336.756H221.432C225.459 336.756 228.724 333.491 228.724 329.464V301.004C228.724 296.977 225.459 293.712 221.432 293.712Z" fill="white"/>
<path opacity="0.6" d="M221.432 293.712H59.6202C55.5928 293.712 52.328 296.977 52.328 301.004V329.464C52.328 333.491 55.5928 336.756 59.6202 336.756H221.432C225.459 336.756 228.724 333.491 228.724 329.464V301.004C228.724 296.977 225.459 293.712 221.432 293.712Z" fill="white"/>
<path d="M292.328 293.712H130.516C126.489 293.712 123.224 296.977 123.224 301.004V329.464C123.224 333.491 126.489 336.756 130.516 336.756H292.328C296.355 336.756 299.62 333.491 299.62 329.464V301.004C299.62 296.977 296.355 293.712 292.328 293.712Z" fill="#48A6FF"/>
<path opacity="0.6" d="M292.328 293.712H198.036C194.009 293.712 190.744 296.977 190.744 301.004V329.464C190.744 333.491 194.009 336.756 198.036 336.756H292.328C296.355 336.756 299.62 333.491 299.62 329.464V301.004C299.62 296.977 296.355 293.712 292.328 293.712Z" fill="white"/>
<path opacity="0.6" d="M292.328 293.712H130.516C126.489 293.712 123.224 296.977 123.224 301.004V329.464C123.224 333.491 126.489 336.756 130.516 336.756H292.328C296.355 336.756 299.62 333.491 299.62 329.464V301.004C299.62 296.977 296.355 293.712 292.328 293.712Z" fill="white"/>
<path d="M160.065 294.708H56.2526L40.4445 213.026C40.0403 210.932 40.1039 208.774 40.6306 206.708C41.1574 204.641 42.1343 202.716 43.4915 201.071C44.8487 199.426 46.5526 198.101 48.4814 197.192C50.4103 196.282 52.5163 195.809 54.649 195.808H128.972C132.332 195.81 135.587 196.98 138.179 199.119C140.771 201.258 142.537 204.232 143.176 207.531L160.065 294.708Z" fill="#48A6FF"/>
<path d="M85.7419 294.708H56.261L40.4445 213.026C40.0403 210.932 40.1039 208.774 40.6306 206.708C41.1574 204.641 42.1343 202.716 43.4915 201.071C44.8487 199.426 46.5526 198.101 48.4814 197.192C50.4103 196.282 52.5163 195.809 54.649 195.808C58.0104 195.809 61.2668 196.979 63.8599 199.118C66.453 201.257 68.2214 204.231 68.8619 207.531L85.7419 294.708Z" fill="#48A6FF"/>
<g opacity="0.6">
<path opacity="0.6" d="M160.065 294.708H56.2526L40.4445 213.026C40.0403 210.932 40.1039 208.774 40.6306 206.708C41.1574 204.641 42.1343 202.716 43.4915 201.071C44.8487 199.426 46.5526 198.101 48.4814 197.192C50.4103 196.282 52.5163 195.809 54.649 195.808H128.972C132.332 195.81 135.587 196.98 138.179 199.119C140.771 201.258 142.537 204.232 143.176 207.531L160.065 294.708Z" fill="white"/>
<path opacity="0.6" d="M85.7419 294.708H56.261L40.4445 213.026C40.0403 210.932 40.1039 208.774 40.6306 206.708C41.1574 204.641 42.1343 202.716 43.4915 201.071C44.8487 199.426 46.5526 198.101 48.4814 197.192C50.4103 196.282 52.5163 195.809 54.649 195.808C58.0104 195.809 61.2668 196.979 63.8599 199.118C66.453 201.257 68.2214 204.231 68.8619 207.531L85.7419 294.708Z" fill="white"/>
</g>
<path opacity="0.6" d="M160.065 294.556H85.742L68.862 207.447C68.2177 204.156 66.4456 201.193 63.8511 199.068C61.2566 196.944 58.0023 195.791 54.649 195.808H128.972C132.325 195.793 135.578 196.948 138.171 199.074C140.764 201.2 142.534 204.164 143.176 207.455L160.065 294.556Z" fill="white"/>
<path d="M129.858 209.624C136.728 211.143 135.985 233.661 141.302 239.696C145.143 244.059 159.938 245.182 163.035 247.993C166.133 250.803 163.035 256.289 163.035 256.289C163.035 256.289 137.513 255.715 131.208 252.837C124.904 249.959 129.858 209.624 129.858 209.624Z" fill="#48A6FF"/>
<path opacity="0.1" d="M129.858 209.624C136.728 211.143 135.985 233.661 141.302 239.696C145.143 244.059 159.938 245.182 163.035 247.993C166.133 250.803 163.035 256.289 163.035 256.289C163.035 256.289 137.513 255.715 131.208 252.837C124.904 249.959 129.858 209.624 129.858 209.624Z" fill="black"/>
<path d="M177.603 273.836C177.519 273.979 177.426 274.038 177.324 274.022C174.387 273.49 166.504 277.803 156.916 282.782L154.224 284.166L153.304 284.631C148.468 287.104 143.328 289.602 138.247 291.644C132.263 294.067 126.364 295.864 121.173 296.253C120.464 296.312 119.78 296.337 119.105 296.337C95.7856 296.337 103.382 257.859 103.382 257.859L131.234 255.724L134.517 261.387L136.298 264.451L140.315 263.37C142.332 262.83 145.337 262.13 148.755 261.395L149.599 261.218C150.755 260.973 151.962 260.729 153.194 260.484C162.284 258.644 172.716 256.863 176.582 256.838C179.333 256.821 178.852 272.004 177.603 273.836Z" fill="#E4897B"/>
<path d="M149.329 259.952L154.73 286.724C154.73 286.724 136.163 301.84 120.127 295.94C104.091 290.041 109.155 262.805 109.155 262.805L130.254 256.34L136.027 263.227L149.329 259.952Z" fill="#48A6FF"/>
<path opacity="0.6" d="M154.731 286.682C154.417 286.851 154.118 287.046 153.836 287.264C150.253 289.735 146.463 291.892 142.509 293.712C136.289 296.244 128.507 298.43 121.182 296.151C120.827 296.042 120.481 295.974 120.135 295.847C104.099 289.939 109.163 262.737 109.163 262.737L130.263 256.289L134.483 261.353L135.994 263.159L148.544 260.104L149.329 259.91L149.591 261.218L151.954 272.933L154.224 284.166L154.731 286.682Z" fill="white"/>
<path d="M148.401 259.387L154.03 288.37L157.406 285.703L152.907 258.83L148.401 259.387Z" fill="#48A6FF"/>
<path opacity="0.4" d="M157.406 285.703L154.03 288.37L153.836 287.365L153.304 284.631L151.017 272.848L148.789 261.395L148.544 260.104L148.401 259.387L152.907 258.83L153.186 260.484L155.296 273.093L156.916 282.782L157.406 285.703Z" fill="white"/>
<path opacity="0.2" d="M177.603 273.836C177.519 273.979 177.426 274.038 177.324 274.021C174.387 273.49 166.504 277.803 156.916 282.782L157.406 285.702L154.03 288.369L153.836 287.264C150.253 289.735 146.463 291.892 142.509 293.712L138.289 291.543L132.128 288.319L134.66 265.294L138.315 270.358C138.315 270.358 146.839 272.426 151.059 272.831L151.996 272.924C153.152 273.017 154.283 273.085 155.372 273.093C156.115 273.093 156.815 273.093 157.482 273.034C164.664 272.528 172.514 272.257 177.603 273.836Z" fill="black"/>
<path d="M236.202 289.374L235.94 294.953H235.29C234.446 295.003 232.91 295.079 230.792 295.181C218.832 295.729 189.183 296.776 176.539 294.244L118.439 295.4L131.208 273.034L211.076 285.466L235.662 289.289L236.202 289.374Z" fill="#E4897B"/>
<path d="M245.798 282.74C245.697 284.917 245.612 286.884 245.528 288.699C245.41 291.18 245.317 293.391 245.216 295.501C245.047 299.173 242.034 296.733 235.518 296.286C235.358 296.286 235.299 295.754 235.29 294.995C235.29 293.366 235.527 290.614 235.662 289.298C235.662 288.834 235.738 288.547 235.738 288.547C236.534 287.807 237.289 287.023 238 286.2C239.812 284.257 241.2 281.957 242.076 279.448C243.376 274.865 246.026 277.575 245.798 282.74Z" fill="#263238"/>
<path d="M147.067 274.722L140.526 297.569L127.663 296.337C127.663 296.337 94.3676 309.047 103.187 258.863L129.554 254.044L136.838 271.557L147.067 274.722Z" fill="#48A6FF"/>
<path opacity="0.6" d="M147.067 274.722L140.526 297.569L127.663 296.337C127.663 296.337 94.3676 309.047 103.187 258.863L129.554 254.044L136.838 271.557L147.067 274.722Z" fill="white"/>
<path d="M145.658 273.473L138.273 297.932H142.636L149.109 274.722L145.658 273.473Z" fill="#48A6FF"/>
<path opacity="0.4" d="M145.658 273.473L138.273 297.932H142.636L149.109 274.722L145.658 273.473Z" fill="white"/>
<path opacity="0.2" d="M245.528 288.69C245.41 291.171 245.317 293.383 245.216 295.493C245.047 299.164 242.034 296.725 235.518 296.278C235.358 296.278 235.299 295.746 235.29 294.986C234.446 295.037 232.91 295.113 230.792 295.214C224.631 291.745 216.005 287.711 211.076 285.466L235.662 289.289C235.662 288.825 235.738 288.538 235.738 288.538C236.534 287.798 237.289 287.015 238 286.192L245.528 288.69Z" fill="black"/>
<path d="M176.573 256.838C175.56 256.838 176.253 273.827 177.324 274.022C181.857 274.866 243.697 293.087 243.697 293.087L245.503 287.677C245.503 287.677 186.71 256.787 176.573 256.838Z" fill="#E4897B"/>
<path d="M242.962 294.134C242.371 293.923 245.283 286.74 245.283 286.74C245.283 286.74 251.377 283.753 253.867 279.71C256.357 275.667 258.171 279.001 256.542 283.93C254.913 288.859 253.664 292.573 252.508 296.058C251.352 299.544 249.107 296.337 242.962 294.134Z" fill="#263238"/>
<path d="M133.774 259.674L136.027 263.185C136.027 263.185 111.83 292.024 106.065 293.712C106.065 293.712 102.808 290.978 102.892 284.47C102.976 277.963 133.774 259.674 133.774 259.674Z" fill="#48A6FF"/>
<path opacity="0.1" d="M133.774 259.674L136.027 263.185C136.027 263.185 111.83 292.024 106.065 293.712C106.065 293.712 102.808 290.978 102.892 284.47C102.976 277.963 133.774 259.674 133.774 259.674Z" fill="black"/>
<path d="M125.68 177.873C126.995 178.803 128.057 180.047 128.77 181.491C129.483 182.935 129.825 184.535 129.765 186.144C129.554 191.698 128.406 200.298 129.765 203.429C131.124 206.561 126.254 207.43 126.254 207.43C126.533 206.577 126.533 205.658 126.254 204.805C126.254 204.805 126.254 206.257 124.313 206.78C122.372 207.303 106.867 207.691 103.382 204.805C99.8958 201.919 107.18 178.641 111.189 177.24C115.198 175.839 125.68 177.873 125.68 177.873Z" fill="#263238"/>
<path d="M129.351 189.149C129.351 192.525 129.242 199.766 130.82 202.585C132.398 205.404 130.086 206.586 130.086 206.586" stroke="#263238" stroke-width="0.5" stroke-linecap="round" stroke-linejoin="round"/>
<path d="M131.2 251.385L135.605 261.361L103.601 290.902C96.3595 287.737 102.014 236.759 95.8868 218.317C95.5914 217.473 95.2876 216.503 94.9584 215.549C94.8545 215.239 94.8144 214.91 94.8406 214.584C94.8669 214.257 94.9588 213.939 95.1109 213.649C95.2631 213.359 95.4723 213.103 95.726 212.895C95.9797 212.688 96.2727 212.534 96.5873 212.443C99.5857 211.592 102.629 210.908 105.703 210.392C109.836 209.659 114.015 209.219 118.211 209.076C123.638 209.076 129.858 209.641 129.858 209.641C129.858 209.641 130.702 209.852 131.301 215.6C131.816 220.976 132.314 231.762 131.2 251.385Z" fill="#48A6FF"/>
<path d="M106.985 211.397C106.985 211.397 109.053 214.334 115.915 215.212C115.915 215.212 119.291 212.975 117.873 210.257C117.873 210.257 116.388 209.793 116.067 207.43C115.916 205.763 116.132 204.084 116.7 202.509C116.776 202.256 116.869 201.986 116.962 201.716L108.285 196.289C108.285 196.289 111.34 207.286 106.985 211.397Z" fill="#E4897B"/>
<path opacity="0.2" d="M110.235 199.437C110.235 199.437 110.699 205.641 116.067 207.43C115.916 205.763 116.132 204.084 116.7 202.509C113.535 200.872 110.235 199.437 110.235 199.437Z" fill="black"/>
<path d="M103.601 212.173C103.601 212.173 104.386 207.193 106.378 206.923C106.378 206.923 110.944 210.612 117.561 207.43C117.561 207.43 118.776 207.253 118.801 209.548C118.827 211.844 121.637 211.405 119.645 215.456C117.654 219.507 108.614 220.723 103.601 212.173Z" fill="#48A6FF"/>
<path opacity="0.1" d="M103.601 212.173C103.601 212.173 104.386 207.193 106.378 206.923C106.378 206.923 110.944 210.612 117.561 207.43C117.561 207.43 118.776 207.253 118.801 209.548C118.827 211.844 121.637 211.405 119.645 215.456C117.654 219.507 108.614 220.723 103.601 212.173Z" fill="black"/>
<path d="M119.105 179.114C126.195 180.321 127.832 184.507 127.106 191.909C126.195 201.193 123.064 207.295 114.531 203.826C102.968 199.125 107.331 177.105 119.105 179.114Z" fill="#E4897B"/>
<path d="M122.591 190.744C122.978 191.9 123.502 193.005 124.152 194.035C123.894 194.292 123.57 194.473 123.216 194.558C122.861 194.643 122.49 194.629 122.144 194.517L122.591 190.744Z" fill="#DE5753"/>
<path d="M118.346 189.402C118.261 189.993 117.873 190.415 117.502 190.364C117.13 190.313 116.869 189.782 116.953 189.199C117.037 188.617 117.426 188.187 117.797 188.246C118.168 188.305 118.43 188.82 118.346 189.402Z" fill="#263238"/>
<path d="M117.628 188.212L118.979 187.9C118.979 187.9 118.16 188.912 117.628 188.212Z" fill="#263238"/>
<path d="M125.638 190.347C125.553 190.938 125.165 191.36 124.794 191.309C124.422 191.259 124.152 190.727 124.237 190.145C124.321 189.562 124.709 189.132 125.081 189.191C125.452 189.25 125.756 189.765 125.638 190.347Z" fill="#263238"/>
<path d="M124.912 189.191L126.254 188.879C126.254 188.879 125.477 189.9 124.912 189.191Z" fill="#263238"/>
<path d="M119.114 184.498C118.565 184.334 117.986 184.298 117.421 184.393C116.856 184.488 116.321 184.712 115.856 185.047" stroke="#263238" stroke-width="0.72468" stroke-linecap="round" stroke-linejoin="round"/>
<path d="M124.321 185.081C124.826 185.042 125.334 185.118 125.805 185.302C126.277 185.486 126.702 185.774 127.047 186.144" stroke="#263238" stroke-width="0.72468" stroke-linecap="round" stroke-linejoin="round"/>
<path d="M109.315 189.74C109.315 189.74 113.628 184.481 113.889 179.898C113.889 179.898 128.929 176.522 127.182 190.938C127.182 190.938 130.719 178.506 118.574 176.143C106.428 173.779 103.441 191.588 108.876 198.011C108.876 198.011 106.639 193.04 109.315 189.74Z" fill="#263238"/>
<path d="M110.218 191.436C110.279 190.61 110.013 189.794 109.478 189.163C108.943 188.531 108.181 188.135 107.357 188.06C105.12 187.925 103.297 192.28 108.581 194.28C109.34 194.525 109.914 193.833 110.218 191.436Z" fill="#E4897B"/>
<path d="M125.68 181.992C125.68 181.992 129.056 178.084 126.262 174.818C123.469 171.551 111.67 170.91 107.694 174.396C103.719 177.881 104.141 179.772 104.141 179.772C102.336 183.698 101.572 188.023 101.921 192.331C102.664 198.973 100.098 203.092 101.803 205.202C103.508 207.312 105.179 207.43 105.179 207.43C104.739 205.874 104.739 204.226 105.179 202.67C105.956 200.56 105.179 202.037 105.179 202.037C105.179 202.037 106.082 207.523 107.019 208.156C108.046 208.621 109.145 208.907 110.269 209C109.155 206.396 108.689 203.56 108.91 200.737C109.441 196.618 111.653 192.398 111.129 187.545C110.883 184.489 111.723 181.443 113.501 178.945C113.501 178.945 121.916 177.983 125.68 181.992Z" fill="#263238"/>
<path d="M125.68 180.726C126.556 180.415 127.301 179.818 127.795 179.03C128.288 178.242 128.501 177.311 128.398 176.388C128.077 173.012 121.798 170.969 118.27 171.543" stroke="#263238" stroke-width="0.5" stroke-linecap="round" stroke-linejoin="round"/>
<path d="M105.146 179.35C105.146 179.35 100.79 185.562 101.196 192.66C101.601 199.758 99.17 201.944 99.9127 204.147" stroke="#263238" stroke-width="0.5" stroke-linecap="round" stroke-linejoin="round"/>
<path d="M116.7 195.386C116.7 195.386 116.962 197.353 120.92 197.504" stroke="#263238" stroke-width="0.5" stroke-linecap="round" stroke-linejoin="round"/>
<path d="M141.302 249.976C141.302 249.976 146.155 250.946 147.067 251.233C149.816 252.67 152.422 254.366 154.849 256.297C155.996 257.428 148.544 259.26 147.067 258.829C145.59 258.399 142.923 255.242 142.923 255.242L137.572 254.398L141.302 249.976Z" fill="#E4897B"/>
<path d="M96.5874 212.426C96.5874 212.426 92.5615 213.81 91.7175 225.626C90.8735 237.442 92.7218 256.854 101.001 262.205C109.281 267.556 139.285 256.297 139.285 256.297C139.285 256.297 140.594 250.17 139.285 248.836C133.867 243.308 115.071 248.347 108.505 245.283C101.938 242.219 105.129 218.36 96.5874 212.426Z" fill="#48A6FF"/>
<path opacity="0.1" d="M96.5874 212.426C96.5874 212.426 92.5615 213.81 91.7175 225.626C90.8735 237.442 92.7218 256.854 101.001 262.205C109.281 267.556 139.285 256.297 139.285 256.297C139.285 256.297 140.594 250.17 139.285 248.836C133.867 243.308 115.071 248.347 108.505 245.283C101.938 242.219 105.129 218.36 96.5874 212.426Z" fill="black"/>
<path d="M139.26 248.836L138.273 256.652L142.493 256.838L144.324 249.976L139.26 248.836Z" fill="#48A6FF"/>
<path opacity="0.2" d="M139.26 248.836L138.273 256.652L142.493 256.838L144.324 249.976L139.26 248.836Z" fill="black"/>
<path d="M189.9 257.42V259.901C189.9 260.534 189.149 260.796 188.524 260.796H138.973C138.34 260.796 137.572 260.534 137.572 259.901V257.42H189.9Z" fill="#263238"/>
<path opacity="0.4" d="M189.9 257.42V259.901C189.9 260.534 189.149 260.796 188.524 260.796H138.973C138.34 260.796 137.572 260.534 137.572 259.901V257.42H189.9Z" fill="white"/>
<path opacity="0.2" d="M189.9 257.42V259.901C189.9 260.534 189.149 260.796 188.524 260.796H155.845C155.203 260.796 154.452 260.534 154.452 259.901V257.42H189.9Z" fill="black"/>
<path d="M198.188 231.678L192.28 258.433C192.174 258.862 191.928 259.244 191.581 259.519C191.235 259.794 190.807 259.946 190.364 259.952H158.157C157.955 259.948 157.757 259.897 157.578 259.804C157.4 259.71 157.245 259.576 157.127 259.412C157.009 259.248 156.931 259.059 156.899 258.86C156.867 258.661 156.881 258.457 156.942 258.264L162.85 231.712C162.973 231.312 163.227 230.966 163.572 230.73C163.917 230.494 164.332 230.382 164.749 230.412H196.973C197.842 230.412 198.382 230.8 198.188 231.678Z" fill="#263238"/>
<path opacity="0.4" d="M198.188 231.678L192.28 258.433C192.174 258.862 191.928 259.244 191.581 259.519C191.235 259.794 190.807 259.946 190.364 259.952H159.254C159.052 259.948 158.854 259.897 158.675 259.803C158.496 259.709 158.342 259.576 158.223 259.412C158.105 259.249 158.026 259.06 157.992 258.861C157.959 258.662 157.972 258.457 158.031 258.264L163.939 231.712C164.062 231.311 164.318 230.964 164.664 230.728C165.011 230.491 165.428 230.38 165.846 230.412H196.973C197.842 230.412 198.382 230.8 198.188 231.678Z" fill="white"/>
<path opacity="0.2" d="M182.304 245.275C182.304 247.562 179.848 249.427 178.084 249.427C176.32 249.427 175.214 247.562 175.729 245.275C176.244 242.988 178.033 241.198 179.797 241.131C179.282 243.418 180.38 245.275 182.169 245.275H182.304Z" fill="black"/>
<path d="M133.631 129.132H99.3979C98.1453 129.102 96.9314 129.568 96.0198 130.427C95.1081 131.287 94.5721 132.471 94.528 133.723V152.291C94.5676 153.554 95.0989 154.752 96.0086 155.628C96.9184 156.505 98.1345 156.991 99.3979 156.984H114.083L116.691 163.601L119.299 156.984H133.647C134.902 156.989 136.108 156.499 137.004 155.62C137.899 154.742 138.413 153.546 138.433 152.291V133.723C138.421 133.106 138.287 132.497 138.039 131.932C137.79 131.366 137.433 130.856 136.987 130.429C136.54 130.002 136.014 129.668 135.438 129.446C134.862 129.223 134.248 129.116 133.631 129.132Z" fill="#48A6FF"/>
<path opacity="0.6" d="M133.631 129.132H99.3979C98.1453 129.102 96.9314 129.568 96.0198 130.427C95.1081 131.287 94.5721 132.471 94.528 133.723V152.291C94.5676 153.554 95.0989 154.752 96.0086 155.628C96.9184 156.505 98.1345 156.991 99.3979 156.984H114.083L116.691 163.601L119.299 156.984H133.647C134.902 156.989 136.108 156.499 137.004 155.62C137.899 154.742 138.413 153.546 138.433 152.291V133.723C138.421 133.106 138.287 132.497 138.039 131.932C137.79 131.366 137.433 130.856 136.987 130.429C136.54 130.002 136.014 129.668 135.438 129.446C134.862 129.223 134.248 129.116 133.631 129.132Z" fill="white"/>
<path opacity="0.2" d="M100.436 148.122L110.252 140.948L113.307 141.792L117.426 139.26L123.992 141.37L131.664 134.618V149.388H100.436V148.122Z" fill="black"/>
<path d="M100.436 136.728V149.388H131.664V137.572L121.671 145.168L117.426 141.615L107.889 146.012L101.28 148.544V136.728H100.436Z" fill="white"/>
<path d="M273.456 205.936V208.046" stroke="#48A6FF" stroke-width="2" stroke-linejoin="round"/>
<path d="M273.456 210.519V242.253" stroke="#48A6FF" stroke-width="2" stroke-linejoin="round" stroke-dasharray="4.88 2.93"/>
<path d="M273.456 243.494V245.604H271.346" stroke="#48A6FF" stroke-width="2" stroke-linejoin="round"/>
<path d="M268.907 245.604H205.05" stroke="#48A6FF" stroke-width="2" stroke-linejoin="round" stroke-dasharray="4.82 2.89"/>
<path d="M203.826 245.604H201.716" stroke="#48A6FF" stroke-width="2" stroke-linejoin="round"/>
<path d="M273.456 206.485C275.143 206.485 276.511 205.117 276.511 203.429C276.511 201.742 275.143 200.374 273.456 200.374C271.769 200.374 270.401 201.742 270.401 203.429C270.401 205.117 271.769 206.485 273.456 206.485Z" fill="#48A6FF"/>
<path d="M201.716 248.659C203.403 248.659 204.771 247.291 204.771 245.604C204.771 243.917 203.403 242.549 201.716 242.549C200.029 242.549 198.661 243.917 198.661 245.604C198.661 247.291 200.029 248.659 201.716 248.659Z" fill="#48A6FF"/>
<path d="M364.355 62.4561H181.713C178.777 62.4561 176.396 64.8366 176.396 67.7733V191.335C176.396 194.271 178.777 196.652 181.713 196.652H364.355C367.291 196.652 369.672 194.271 369.672 191.335V67.7733C369.672 64.8366 367.291 62.4561 364.355 62.4561Z" fill="#263238"/>
<path opacity="0.4" d="M364.355 62.4561H181.713C178.777 62.4561 176.396 64.8366 176.396 67.7733V191.335C176.396 194.271 178.777 196.652 181.713 196.652H364.355C367.291 196.652 369.672 194.271 369.672 191.335V67.7733C369.672 64.8366 367.291 62.4561 364.355 62.4561Z" fill="white"/>
<path d="M369.672 84.4001H176.396V172.176H369.672V84.4001Z" fill="#48A6FF"/>
<path opacity="0.4" d="M369.672 84.4001H176.396V172.176H369.672V84.4001Z" fill="black"/>
<path d="M364.608 147.7V129.132H361.232V106.344H357.012V129.132H349.416V162.892H334.224V129.132H307.216V162.892H293.712V164.58H281.052V130.82H275.988V150.232H263.328V144.324H240.54V125.756H237.164V102.968H232.944V125.756H225.348V159.516H210.156V125.756H183.148V159.516H176.396V172.176H293.712H313.968H369.672V147.7H364.608Z" fill="#48A6FF"/>
<path opacity="0.3" d="M364.608 147.7V129.132H361.232V106.344H357.012V129.132H349.416V162.892H334.224V129.132H307.216V162.892H293.712V164.58H281.052V130.82H275.988V150.232H263.328V144.324H240.54V125.756H237.164V102.968H232.944V125.756H225.348V159.516H210.156V125.756H183.148V159.516H176.396V172.176H293.712H313.968H369.672V147.7H364.608Z" fill="black"/>
<path d="M222.816 101.28H189.056V172.176H222.816V101.28Z" fill="#48A6FF"/>
<g opacity="0.4">
<path opacity="0.4" d="M222.816 108.032H189.056V108.876H222.816V108.032Z" fill="black"/>
</g>
<path opacity="0.4" d="M222.816 114.784H189.056V115.628H222.816V114.784Z" fill="black"/>
<path opacity="0.4" d="M222.816 134.196H189.056V135.04H222.816V134.196Z" fill="black"/>
<path opacity="0.4" d="M222.816 140.948H189.056V141.792H222.816V140.948Z" fill="black"/>
<path opacity="0.4" d="M222.816 147.7H189.056V148.544H222.816V147.7Z" fill="black"/>
<path opacity="0.4" d="M222.816 154.452H189.056V155.296H222.816V154.452Z" fill="black"/>
<path d="M270.924 132.508H238.008V172.176H270.924V132.508Z" fill="#48A6FF"/>
<path opacity="0.4" d="M270.924 139.26H238.008V140.104H270.924V139.26Z" fill="black"/>
<path opacity="0.4" d="M270.924 146.012H238.008V146.856H270.924V146.012Z" fill="black"/>
<path opacity="0.4" d="M270.924 152.764H238.008V153.608H270.924V152.764Z" fill="black"/>
<path d="M319.032 119.004H285.272V172.176H319.032V119.004Z" fill="#48A6FF"/>
<path opacity="0.4" d="M319.032 125.756H285.272V126.6H319.032V125.756Z" fill="black"/>
<path opacity="0.4" d="M319.032 140.104H285.272V140.948H319.032V140.104Z" fill="black"/>
<path opacity="0.4" d="M319.032 159.516H285.272V160.36H319.032V159.516Z" fill="black"/>
<path opacity="0.4" d="M319.032 166.268H285.272V167.112H319.032V166.268Z" fill="black"/>
<g opacity="0.2">
<path opacity="0.2" d="M222.816 101.28H189.056V172.176H222.816V101.28Z" fill="black"/>
</g>
<g opacity="0.2">
<path opacity="0.2" d="M270.924 132.508H238.008V172.176H270.924V132.508Z" fill="black"/>
</g>
<g opacity="0.2">
<path opacity="0.2" d="M319.032 119.004H285.272V172.176H319.032V119.004Z" fill="black"/>
</g>
<path d="M351.383 196.652H288.648L300.928 131.436C301.274 129.603 302.249 127.948 303.686 126.757C305.122 125.566 306.929 124.913 308.794 124.912H355.214C356.391 124.912 357.554 125.171 358.619 125.671C359.684 126.171 360.626 126.9 361.378 127.806C362.129 128.712 362.671 129.773 362.965 130.912C363.26 132.052 363.299 133.242 363.08 134.399L351.383 196.652Z" fill="#48A6FF"/>
<path opacity="0.4" d="M351.383 196.652H288.648L300.928 131.436C301.274 129.603 302.249 127.948 303.686 126.757C305.122 125.566 306.929 124.913 308.794 124.912H355.214C356.391 124.912 357.554 125.171 358.619 125.671C359.684 126.171 360.626 126.9 361.378 127.806C362.129 128.712 362.671 129.773 362.965 130.912C363.26 132.052 363.299 133.242 363.08 134.399L351.383 196.652Z" fill="white"/>
<path opacity="0.2" d="M351.382 196.652H335.068L347.357 131.436C347.701 129.602 348.676 127.946 350.112 126.755C351.549 125.563 353.356 124.912 355.223 124.912C356.4 124.912 357.562 125.171 358.628 125.671C359.693 126.171 360.635 126.9 361.386 127.806C362.137 128.712 362.679 129.773 362.974 130.912C363.268 132.052 363.307 133.242 363.089 134.399L351.382 196.652Z" fill="black"/>
<path d="M300.886 154.452C300.886 154.452 299.949 156.984 298.455 160.225C296.075 165.415 292.286 172.421 288.648 173.813C285.669 174.961 278.182 175.172 271.498 175.105C264.813 175.037 259.108 174.708 259.108 174.708V169.644L281.052 163.795C281.052 163.795 292.632 142.898 299.476 139.8L300.886 154.452Z" fill="#48A6FF"/>
<path opacity="0.2" d="M298.455 160.225C296.075 165.416 292.286 172.421 288.648 173.813C285.669 174.961 278.182 175.172 271.498 175.105C271.498 175.105 282.191 169.315 285.272 166.268C288.69 162.892 297.493 149.456 297.493 149.456L298.455 160.225Z" fill="black"/>
<path d="M311.478 135.361C313.529 134.424 325.784 134.424 325.784 134.424V143.48L308.482 146.712C308.482 146.712 307.368 137.217 311.478 135.361Z" fill="#48A6FF"/>
<path d="M335.068 196.652C334.722 188.811 331.422 163.255 335.912 138.543C332.434 137.937 328.916 137.587 325.387 137.496C320.223 137.309 315.052 137.422 309.9 137.834C306.372 138.267 302.884 138.979 299.468 139.961C299.468 139.961 294.624 157.963 300.017 196.652H335.068Z" fill="white"/>
<path opacity="0.1" d="M323.725 172.649C326.814 171.965 330.553 168.969 333.608 166.015C333.608 160.757 333.861 155.161 334.452 149.456C330.105 155.862 318.391 173.864 323.725 172.649Z" fill="black"/>
<path d="M323.514 120.135C322.67 125.14 321.868 134.289 325.421 137.538C323.978 139.085 322.241 140.329 320.313 141.198C318.384 142.068 316.302 142.545 314.187 142.602C307.807 142.881 309.967 137.842 309.967 137.842C315.504 136.39 315.268 132.272 314.187 128.423L323.514 120.135Z" fill="#B97964"/>
<path opacity="0.2" d="M319.716 123.528L314.187 128.457C314.448 129.351 314.628 130.266 314.728 131.191C316.846 130.837 319.707 128.448 319.884 126.22C319.993 125.32 319.936 124.407 319.716 123.528Z" fill="black"/>
<path d="M311.436 107.188C314.196 109.062 312.938 112.252 306.684 117.215C304.152 113.923 303.722 107.526 305.747 105.922C307.773 104.318 308.98 105.568 311.436 107.188Z" fill="#263238"/>
<path d="M323.252 112.336C322.948 119.088 323.109 123.064 319.766 126.583C314.702 131.883 306.347 128.938 304.574 122.22C303.038 116.193 303.781 106.184 310.339 103.356C311.784 102.723 313.368 102.47 314.938 102.624C316.509 102.777 318.014 103.33 319.309 104.231C320.605 105.132 321.648 106.351 322.338 107.77C323.028 109.189 323.343 110.761 323.252 112.336Z" fill="#B97964"/>
<path d="M313.234 114.362C313.234 114.911 312.955 115.358 312.601 115.366C312.246 115.375 311.951 114.936 311.942 114.387C311.934 113.839 312.204 113.391 312.567 113.374C312.93 113.358 313.192 113.822 313.234 114.362Z" fill="#263238"/>
<path d="M306.988 114.48C306.988 115.029 306.71 115.476 306.355 115.484C306.001 115.493 305.697 115.054 305.688 114.497C305.68 113.94 305.958 113.493 306.321 113.493C306.684 113.493 306.98 113.94 306.988 114.48Z" fill="#263238"/>
<path d="M309.031 114.7C308.407 116.389 307.555 117.985 306.499 119.443C306.878 119.706 307.311 119.882 307.766 119.959C308.221 120.036 308.687 120.013 309.132 119.89L309.031 114.7Z" fill="#A24E3F"/>
<path d="M314.905 112.362C314.974 112.383 315.047 112.383 315.116 112.362C315.181 112.307 315.224 112.23 315.235 112.145C315.246 112.061 315.224 111.975 315.175 111.906C314.868 111.495 314.468 111.163 314.007 110.939C313.546 110.714 313.037 110.603 312.525 110.615C312.484 110.617 312.444 110.627 312.406 110.645C312.369 110.662 312.336 110.687 312.309 110.718C312.281 110.748 312.26 110.784 312.247 110.823C312.233 110.862 312.227 110.903 312.229 110.944C312.24 111.027 312.282 111.102 312.346 111.156C312.41 111.209 312.492 111.236 312.575 111.231C312.981 111.224 313.381 111.315 313.744 111.496C314.107 111.677 314.421 111.942 314.66 112.269C314.691 112.302 314.73 112.327 314.772 112.343C314.814 112.359 314.86 112.365 314.905 112.362Z" fill="#263238"/>
<path d="M304.11 112.421C304.171 112.418 304.23 112.399 304.282 112.367C304.334 112.334 304.376 112.289 304.405 112.235C304.562 111.861 304.807 111.53 305.118 111.27C305.429 111.01 305.799 110.829 306.195 110.741C306.279 110.727 306.355 110.68 306.405 110.61C306.456 110.541 306.477 110.455 306.465 110.37C306.452 110.288 306.408 110.214 306.342 110.163C306.276 110.113 306.193 110.09 306.11 110.1C305.607 110.204 305.136 110.427 304.738 110.752C304.34 111.077 304.026 111.493 303.823 111.965C303.788 112.041 303.785 112.128 303.813 112.207C303.841 112.286 303.9 112.351 303.975 112.387C304.018 112.406 304.063 112.418 304.11 112.421Z" fill="#263238"/>
<path d="M320.492 106.403C317.352 107.542 317.8 110.935 322.644 117.282C325.919 114.708 327.894 108.606 326.324 106.563C324.754 104.521 323.252 105.415 320.492 106.403Z" fill="#263238"/>
<path d="M326.628 117.687C326.183 119.33 325.106 120.729 323.632 121.578C321.674 122.692 320.154 121.063 320.256 118.937C320.34 117.012 321.463 114.117 323.632 113.873C325.801 113.628 327.126 115.67 326.628 117.687Z" fill="#B97964"/>
<path d="M326.704 107.357C326.704 107.357 328.122 103.39 323.455 100.124C319.429 97.2963 308.693 97.693 305.688 101.069C303.863 103.227 302.838 105.949 302.785 108.775L304.422 106.243L303.975 109.408L308.347 106.032L306.988 109.408C306.988 109.408 311.495 108.775 313.74 106.243L312.592 108.538C312.592 108.538 315.352 108.876 319.04 106.133C319.04 106.133 316.314 109.298 319.944 111.197C323.573 113.096 326.704 107.357 326.704 107.357Z" fill="#263238"/>
<path d="M314.187 121.013C313.712 121.738 313.047 122.318 312.264 122.69C311.481 123.062 310.61 123.212 309.748 123.123" stroke="#263238" stroke-width="0.5" stroke-linecap="round" stroke-linejoin="round"/>
<path d="M337.397 196.652C336.857 180.523 335.87 149.481 335.946 138.543C335.946 138.543 329.244 137.344 326.316 137.53C323.387 137.715 318.492 139.539 318.492 139.539C318.492 139.539 318.382 174.294 321.564 196.652H337.397Z" fill="#48A6FF"/>
<path opacity="0.2" d="M337.397 196.652C336.857 180.523 335.87 149.481 335.946 138.543C335.946 138.543 329.244 137.344 326.316 137.53C323.387 137.715 318.492 139.539 318.492 139.539C318.492 139.539 318.382 174.294 321.564 196.652H337.397Z" fill="white"/>
<path d="M325.421 134.424L318.5 139.538L320.998 145.168L328.392 137.412L325.421 134.424Z" fill="#48A6FF"/>
<path d="M301.57 196.652C305.587 144.037 310.575 139.792 310.575 139.792L309.596 136.846L299.468 139.961C294.759 146.881 293.796 181.764 293.602 196.652H301.57Z" fill="#48A6FF"/>
<path opacity="0.2" d="M301.57 196.652C305.587 144.037 310.575 139.792 310.575 139.792L309.596 136.846L299.468 139.961C294.759 146.881 293.796 181.764 293.602 196.652H301.57Z" fill="white"/>
<path d="M292.024 169.146C292.024 169.146 279.296 168.758 277.997 168.623C276.697 168.488 271.169 165.382 270.004 165.247C268.839 165.112 265.683 170.041 265.294 171.206C264.906 172.37 274.089 175.485 275 175.358C276.035 175.083 277.041 174.71 278.005 174.244L292.024 175.881V169.146Z" fill="#B97964"/>
<path d="M335.912 138.542C347.804 142.83 326.932 175.029 320.45 178.346C313.968 181.662 281.052 174.708 281.052 174.708L282.343 168.049C282.343 168.049 311.478 168.791 314.162 168.116C316.846 167.441 323.227 153.709 326.898 147.227C328.936 143.473 332.085 140.44 335.912 138.542Z" fill="#48A6FF"/>
<path d="M284.707 167.112L283.019 176.126L279.904 174.978L281.069 167.112H284.707Z" fill="#48A6FF"/>
<path opacity="0.2" d="M284.707 167.112L283.019 176.126L279.904 174.978L281.069 167.112H284.707Z" fill="white"/>
<path d="M311.115 135.462C311.115 135.462 306.178 138.838 306.49 142.07L310.575 139.792C310.575 139.792 309.951 137.006 311.115 135.462Z" fill="#48A6FF"/>
<path d="M230.902 178.447H308.423C308.926 178.447 309.334 178.039 309.334 177.535V175.265C309.334 174.762 308.926 174.354 308.423 174.354H230.902C230.398 174.354 229.99 174.762 229.99 175.265V177.535C229.99 178.039 230.398 178.447 230.902 178.447Z" fill="#48A6FF"/>
<path opacity="0.5" d="M230.412 175.155V177.434C230.412 177.941 230.412 178.084 230.893 178.084H308.423C308.929 178.084 309.748 177.941 309.748 177.434V175.155C309.748 174.657 308.904 174.708 308.423 174.708H230.893C230.412 174.708 230.412 174.657 230.412 175.155Z" fill="white"/>
<path opacity="0.2" d="M276.832 175.155V177.434C276.832 177.941 277.094 178.084 277.592 178.084H308.423C308.929 178.084 309.748 177.941 309.748 177.434V175.155C309.748 174.657 308.904 174.708 308.423 174.708H277.592C277.094 174.708 276.832 174.657 276.832 175.155Z" fill="black"/>
<path d="M236.32 171.332V173.813C236.32 174.446 236.961 174.708 237.586 174.708H287.137C287.77 174.708 288.648 174.446 288.648 173.813V171.332H236.32Z" fill="#263238"/>
<path opacity="0.6" d="M236.32 171.332V173.813C236.32 174.446 236.961 174.708 237.586 174.708H287.137C287.77 174.708 288.648 174.446 288.648 173.813V171.332H236.32Z" fill="white"/>
<path opacity="0.2" d="M236.32 171.332V173.813C236.32 174.446 236.961 174.708 237.586 174.708H270.266C270.899 174.708 271.768 174.446 271.768 173.813V171.332H236.32Z" fill="black"/>
<path d="M227.922 145.59L233.83 172.345C233.939 172.773 234.186 173.153 234.532 173.428C234.878 173.702 235.304 173.856 235.746 173.864H267.97C268.172 173.861 268.37 173.81 268.548 173.716C268.727 173.622 268.881 173.488 268.999 173.324C269.116 173.16 269.193 172.971 269.224 172.771C269.255 172.572 269.239 172.368 269.177 172.176L263.269 145.624C263.148 145.219 262.892 144.868 262.543 144.63C262.194 144.392 261.774 144.281 261.353 144.316H229.138C228.268 144.324 227.728 144.712 227.922 145.59Z" fill="#263238"/>
<path opacity="0.6" d="M227.922 145.59L233.83 172.345C233.939 172.773 234.186 173.153 234.532 173.428C234.878 173.702 235.304 173.856 235.746 173.864H267.97C268.172 173.861 268.37 173.81 268.548 173.716C268.727 173.622 268.881 173.488 268.999 173.324C269.116 173.16 269.193 172.971 269.224 172.771C269.255 172.572 269.239 172.368 269.177 172.176L263.269 145.624C263.148 145.219 262.892 144.868 262.543 144.63C262.194 144.392 261.774 144.281 261.353 144.316H229.138C228.268 144.324 227.728 144.712 227.922 145.59Z" fill="white"/>
<path opacity="0.4" d="M227.922 145.59L233.83 172.345C233.939 172.773 234.186 173.153 234.532 173.428C234.878 173.702 235.304 173.856 235.746 173.864H266.873C267.075 173.86 267.273 173.809 267.451 173.716C267.63 173.622 267.785 173.488 267.903 173.324C268.021 173.16 268.099 172.971 268.131 172.772C268.163 172.573 268.148 172.369 268.088 172.176L262.18 145.624C262.058 145.22 261.802 144.87 261.453 144.632C261.104 144.394 260.685 144.282 260.264 144.316H229.138C228.268 144.324 227.728 144.712 227.922 145.59Z" fill="white"/>
<path opacity="0.2" d="M250.693 160.132L250.145 157.651H241.755L242.304 160.132H250.693Z" fill="black"/>
<path d="M211.236 132.896C211.234 133.4 211.186 133.903 211.093 134.399L199.37 196.652H181.713C180.303 196.652 178.951 196.092 177.953 195.095C176.956 194.098 176.396 192.745 176.396 191.335V124.912H203.227C205.347 124.91 207.382 125.75 208.884 127.247C210.386 128.744 211.232 130.776 211.236 132.896Z" fill="#48A6FF"/>
<path opacity="0.4" d="M211.236 132.896C211.234 133.4 211.186 133.903 211.093 134.399L199.37 196.652H181.713C180.303 196.652 178.951 196.092 177.953 195.095C176.956 194.098 176.396 192.745 176.396 191.335V124.912H203.227C205.347 124.91 207.382 125.75 208.884 127.247C210.386 128.744 211.232 130.776 211.236 132.896Z" fill="white"/>
<path opacity="0.2" d="M199.37 196.652H183.08L195.369 131.436C195.712 129.603 196.685 127.947 198.12 126.755C199.555 125.564 201.362 124.912 203.227 124.912C204.404 124.912 205.566 125.171 206.632 125.671C207.697 126.171 208.639 126.9 209.39 127.806C210.141 128.712 210.683 129.773 210.978 130.912C211.272 132.052 211.311 133.242 211.093 134.399L199.37 196.652Z" fill="black"/>
<path d="M295.096 80.1799H270.991C268.392 80.1799 265.86 82.1802 265.86 84.7713V103.339C265.86 105.93 268.392 108.032 270.991 108.032H285.137L296.725 114.649L292.024 108.032H295.138C295.746 108.029 296.347 107.904 296.905 107.665C297.464 107.426 297.969 107.077 298.39 106.64C298.812 106.203 299.142 105.685 299.36 105.118C299.579 104.551 299.681 103.947 299.662 103.339V84.7713C299.68 84.1658 299.573 83.563 299.35 82.9998C299.127 82.4366 298.792 81.9247 298.365 81.4951C297.938 81.0656 297.428 80.7275 296.866 80.5014C296.304 80.2753 295.702 80.1659 295.096 80.1799Z" fill="white"/>
<path d="M291.932 96.0536C293.135 90.9589 289.979 85.8541 284.885 84.6517C279.79 83.4493 274.685 86.6045 273.483 91.6992C272.28 96.7938 275.436 101.899 280.53 103.101C285.625 104.303 290.73 101.148 291.932 96.0536Z" fill="#48A6FF"/>
<path opacity="0.4" d="M291.932 96.0536C293.135 90.9589 289.979 85.8541 284.885 84.6517C279.79 83.4493 274.685 86.6045 273.483 91.6992C272.28 96.7938 275.436 101.899 280.53 103.101C285.625 104.303 290.73 101.148 291.932 96.0536Z" fill="white"/>
<path d="M278.241 93.0931L281.896 97.4144L287.804 89.4639" stroke="white" stroke-width="2" stroke-linecap="round" stroke-linejoin="round"/>
</svg>
