<svg width="196" height="90" viewBox="0 0 196 90" fill="none" xmlns="http://www.w3.org/2000/svg">
<path d="M134.252 39.5773C133.856 39.8415 133.837 39.9925 133.837 42.1256C133.837 43.3526 133.761 44.3719 133.667 44.3719C133.572 44.3719 133.044 44.1643 132.478 43.9C130.269 42.8806 127.777 43.5036 126.513 45.4101C124.927 47.7886 125.323 51.4695 127.343 53.2439C128.306 54.0744 129.099 54.3765 130.382 54.3765C131.439 54.3765 131.76 54.2632 133.1 53.4893C133.553 53.225 133.723 53.2061 133.78 53.3949C134.063 54.1688 135.064 54.4331 135.611 53.8857C135.875 53.6403 135.913 52.7153 135.913 46.7315V39.8604L135.498 39.5773C135.271 39.4074 134.988 39.2752 134.875 39.2752C134.762 39.2752 134.478 39.4074 134.252 39.5773ZM131.93 45.6177C133.931 46.4106 134.516 49.6385 132.949 51.3751C131.798 52.6398 130.137 52.8097 128.91 51.7904C127.362 50.4879 127.173 47.8641 128.532 46.3728C129.476 45.3346 130.609 45.0892 131.93 45.6177Z" fill="#0054BC"/>
<path d="M108.712 40.3325C108.523 40.861 108.656 41.5406 108.995 41.7671C109.373 42.0125 110.392 41.9181 110.694 41.6161C111.053 41.2763 111.091 40.3891 110.77 40.0682C110.638 39.936 110.185 39.8417 109.731 39.8417C109.014 39.8417 108.882 39.8983 108.712 40.3325Z" fill="#0054BC"/>
<path d="M99.5379 40.4456C99.2359 40.8042 94.5356 51.8093 94.1203 53.1684C94.0448 53.4326 94.1203 53.7347 94.3657 54.0178C94.6677 54.3953 94.7999 54.4331 95.2529 54.2821C95.8192 54.0744 96.008 53.8102 96.7442 52.0547L97.2161 50.9787H100.293H103.389L103.917 52.2434C104.502 53.678 105.05 54.3765 105.541 54.3765C106.031 54.3765 106.466 53.8479 106.466 53.2816C106.466 52.6021 101.444 40.5588 101.048 40.2568C100.557 39.917 99.972 39.9737 99.5379 40.4456ZM101.35 46.2973C101.879 47.5054 102.313 48.6002 102.313 48.6946C102.313 48.8268 101.577 48.9023 100.236 48.9023C99.1037 48.9023 98.1599 48.8645 98.1599 48.8268C98.1599 48.7324 99.821 44.7872 100.048 44.353C100.18 44.1454 100.293 43.9944 100.331 44.0321C100.368 44.051 100.821 45.0892 101.35 46.2973Z" fill="#0054BC"/>
<path d="M70.3361 40.521C69.9586 40.8797 69.9586 41.3516 70.2984 41.8424C70.5249 42.1444 70.8647 42.2199 72.5258 42.2954L74.4701 42.3898L74.5645 48.1094C74.6589 54.282 74.64 54.1877 75.6971 54.1877C76.9429 54.1877 77.0184 53.829 77.0184 47.6941V42.2954H78.6796C80.605 42.2954 81.2468 42.05 81.3223 41.295C81.4544 40.219 81.3978 40.219 75.7726 40.219C71.3555 40.219 70.5815 40.2568 70.3361 40.521Z" fill="#0054BC"/>
<path d="M84.1157 40.5211C83.8515 40.7665 83.8137 41.6537 83.8137 47.2034C83.8137 52.7531 83.8515 53.6403 84.1157 53.8857C84.3611 54.15 85.0218 54.1877 88.3441 54.1877C92.5913 54.1877 92.8745 54.1311 92.8745 53.1684C92.8745 52.3378 92.4592 52.2057 89.2124 52.1113L86.1733 52.0169L86.1167 50.0727L86.06 48.1472H88.4762C91.2322 48.1472 91.7985 47.9774 91.8929 47.109C92.0061 46.2218 91.5909 46.0708 88.9859 46.0708C87.7212 46.0708 86.5508 46.0142 86.3809 45.9576C86.1355 45.8632 86.0789 45.5045 86.0789 44.0699V42.2955H88.967C92.1383 42.2955 92.7423 42.1445 92.8367 41.3328C92.95 40.2946 92.6479 40.2191 88.3441 40.2191C85.0218 40.2191 84.3611 40.2569 84.1157 40.5211Z" fill="#0054BC"/>
<path d="M156.64 43.447C155.979 43.5414 154.544 44.3908 154.28 44.8061C154.223 44.9194 154.035 44.7117 153.865 44.3531C153.619 43.8434 153.431 43.6924 152.94 43.6546C151.77 43.5414 151.77 43.5414 151.77 48.9212C151.77 53.6403 151.788 53.8102 152.147 53.999C152.77 54.3388 153.525 54.15 153.789 53.6214C153.959 53.3005 154.035 52.168 154.035 50.0727C154.035 46.6183 154.167 46.1275 155.281 45.5989C156.243 45.1459 157.149 45.2403 157.848 45.8632L158.471 46.4106L158.527 49.9783C158.603 53.8668 158.697 54.1877 159.717 54.1877C160.736 54.1877 160.83 53.8857 160.849 50.5446C160.849 48.6947 160.944 47.2412 161.076 46.8448C161.378 45.9764 162.114 45.4668 163.228 45.3724C164.02 45.278 164.247 45.3535 164.719 45.7499L165.266 46.2218L165.361 49.7895C165.417 51.7338 165.531 53.4893 165.625 53.6781C165.795 54.0367 166.455 54.2633 166.984 54.15C167.664 54.0367 167.815 53.2817 167.815 50.1859C167.815 44.7872 167.116 43.4281 164.322 43.4281C163.02 43.4281 162.189 43.8056 161.321 44.7495L160.66 45.4857L160.283 44.8439C159.622 43.6924 158.244 43.1638 156.64 43.447Z" fill="#0054BC"/>
<path d="M140.953 43.9189C139.217 44.8249 138.254 46.8258 138.405 49.2609C138.594 52.4322 140.406 54.3576 143.2 54.3765C144.162 54.3765 144.502 54.2821 145.408 53.7347L146.484 53.0929L146.711 53.5837C147.013 54.2066 147.975 54.3765 148.447 53.9046C148.711 53.6403 148.749 52.9796 148.749 48.8268C148.749 43.5036 148.711 43.3526 147.617 43.4658C147.126 43.5036 146.899 43.6546 146.729 44.0132L146.484 44.504L145.427 43.9755C143.992 43.2393 142.293 43.2204 140.953 43.9189ZM144.54 45.5234C146.314 46.184 147.182 48.6191 146.314 50.5068C145.333 52.6965 142.897 53.1117 141.331 51.3751C140.576 50.5445 140.349 49.7328 140.481 48.336C140.689 46.1463 142.633 44.8061 144.54 45.5234Z" fill="#0054BC"/>
<path d="M173.005 43.8811C168.909 45.7876 168.89 51.8659 172.949 53.8857C173.742 54.2821 174.195 54.3765 175.346 54.3765C177.12 54.3765 178.329 53.8668 179.386 52.6776C180.462 51.5072 180.726 50.771 180.726 48.9023C180.726 47.0335 180.462 46.2973 179.386 45.127C178.329 43.9377 177.12 43.4281 175.365 43.4281C174.27 43.4281 173.723 43.5413 173.005 43.8811ZM177.177 45.9764C178.442 46.9391 178.914 48.8456 178.272 50.3746C177.366 52.5643 174.893 53.1495 173.288 51.545C171.892 50.1481 171.797 47.9207 173.043 46.4294C174.1 45.1836 175.875 44.9948 177.177 45.9764Z" fill="#0054BC"/>
<path d="M184.804 43.7302C182.991 44.523 182.255 46.2219 183.086 47.7698C183.52 48.5814 184.445 49.1289 186.465 49.7518C187.333 50.0161 188.201 50.4125 188.39 50.6012C188.919 51.1298 188.862 51.8282 188.258 52.3001C187.824 52.6399 187.541 52.6965 186.654 52.6399C185.653 52.5644 185.238 52.3756 183.747 51.2619C183.596 51.1487 183.312 51.1487 182.973 51.2808C182.142 51.5639 182.161 52.3001 183.029 53.1307C184.615 54.6786 188.05 54.8107 189.712 53.395C190.372 52.8475 190.655 52.2057 190.655 51.2619C190.655 49.5064 189.881 48.7891 187.088 47.9585C185.691 47.5432 184.804 46.9203 184.804 46.354C184.804 46.1841 185.011 45.8443 185.276 45.599C185.955 44.9005 187.295 44.9383 188.409 45.6933C189.296 46.2974 189.881 46.3918 190.24 46.0331C190.844 45.4291 189.995 44.1832 188.636 43.7302C187.541 43.3526 185.672 43.3526 184.804 43.7302Z" fill="#0054BC"/>
<path d="M109.033 43.9001C108.769 44.1644 108.731 44.8628 108.731 49.3932C108.731 55.075 108.618 55.7546 107.712 56C106.598 56.2642 106.277 57.6422 107.221 58.0952C108.278 58.6049 109.939 57.6988 110.6 56.2642C110.996 55.3581 111.147 44.9383 110.77 44.1832C110.468 43.5981 109.486 43.447 109.033 43.9001Z" fill="#0054BC"/>
<path d="M114.281 44.07C114.036 44.4664 113.998 45.0704 114.055 47.9019C114.111 51.0921 114.13 51.3186 114.602 52.2058C114.885 52.7721 115.395 53.3761 115.867 53.697C116.565 54.1878 116.848 54.2633 118.321 54.3388C119.85 54.4143 120.038 54.3766 121.001 53.8669C121.832 53.4327 122.115 53.1307 122.549 52.319C123.078 51.3186 123.078 51.2808 123.078 47.6943C123.078 43.8057 123.04 43.6169 122.115 43.6169C121.095 43.6169 121.001 43.919 121.001 47.3167C121.001 50.9222 120.812 51.6961 119.774 52.1869C119 52.5644 118.34 52.5644 117.509 52.2246C116.471 51.7905 116.395 51.4507 116.282 47.5244C116.188 43.6924 116.169 43.6169 115.112 43.6169C114.772 43.6169 114.489 43.768 114.281 44.07Z" fill="#0054BC"/>
<path d="M27.3736 16.5634C23.2279 16.8804 19.948 17.7583 16.3144 19.5386C9.41304 22.9283 4.23093 28.781 1.69475 36.0847C-1.0853 44.0591 -0.170813 53.1674 4.14558 60.3735C8.5839 67.787 15.8632 72.774 24.3741 74.2372C26.2762 74.5664 30.0561 74.6762 32.068 74.4689C35.7259 74.0909 38.8718 73.1764 42.1396 71.5181C47.8947 68.6161 52.2599 64.2022 55.1375 58.3983C56.9299 54.7891 57.8322 51.3262 58.0761 47.2293C58.5638 38.9379 55.4911 30.8782 49.614 25.0255C45.2732 20.6969 39.8107 17.8803 33.8848 16.917C32.5801 16.7097 29.3123 16.4049 28.8246 16.4415C28.727 16.4537 28.0686 16.5024 27.3736 16.5634ZM33.2141 17.9534C43.3467 19.502 51.699 26.2692 55.2838 35.8043C59.0271 45.7661 56.7348 56.9838 49.3945 64.7875C45.1879 69.2502 39.5546 72.1644 33.1532 73.2008C31.2754 73.5056 27.1175 73.5056 25.1666 73.213C17.1191 71.9571 10.3275 67.6773 5.86482 61.0198C4.74304 59.3493 3.25547 56.3254 2.63362 54.4599C2.07273 52.7772 1.62159 50.7775 1.37772 48.9851C1.14605 47.2537 1.18263 43.4982 1.43869 41.7302C2.35318 35.5726 5.02349 30.232 9.37645 25.879C11.681 23.5745 13.7904 22.0504 16.7289 20.5872C19.826 19.0386 23.3255 18.0632 26.9956 17.7218C28.1052 17.6242 31.9704 17.7705 33.2141 17.9534Z" fill="#0054BC"/>
<path d="M18.5461 27.2934C17.8755 27.4519 17.4488 27.6957 17.0342 28.1835C16.5343 28.7444 16.3392 29.3662 16.327 30.3904C16.327 31.5 16.4245 31.817 16.9488 32.4023C17.3756 32.8779 17.3756 32.8779 17.0951 32.951C16.9366 32.9876 16.4001 33.0608 15.9002 33.1095L14.9857 33.1949V33.8655C14.9857 34.2313 14.9613 35.2799 14.9491 36.1944L14.9248 37.8527L13.7054 37.9746C12.6568 38.0722 12.4008 38.1453 11.974 38.4501C11.1449 39.0354 10.962 39.3646 10.9254 40.4254C10.8644 41.913 11.279 42.4373 12.7544 42.8397C13.108 42.925 13.7298 43.0104 14.1444 43.0104H14.876L14.7175 43.9371C14.6077 44.6077 14.5955 45.3149 14.6565 46.4976C14.7175 47.3877 14.7906 48.1559 14.8272 48.1925C14.937 48.3144 20.5702 48.2535 23.0088 48.1193C24.2282 48.0584 25.6792 48.0096 26.24 48.034C26.9107 48.0462 27.2887 48.0096 27.3984 47.8999C27.5081 47.7901 27.5447 46.1806 27.5691 40.84C27.5813 37.0357 27.5935 33.7436 27.5935 33.5119C27.6057 33.2802 27.5691 33.0608 27.5325 33.0242C27.4959 32.9876 26.9107 32.9144 26.2278 32.8779C25.0451 32.8047 22.9723 32.6218 22.9723 32.5974C22.9723 32.5852 23.1064 32.317 23.2771 31.9878C23.6307 31.2927 23.6795 30.3173 23.4112 29.6832C23.1674 29.0858 22.326 28.4151 21.0823 27.8299C19.8996 27.2568 19.2655 27.1227 18.5461 27.2934ZM20.8385 28.1835C22.0822 28.7809 22.8869 29.4516 23.0698 30.0612C23.2771 30.7562 23.143 31.4391 22.6552 32.1341C22.4236 32.4511 22.2407 32.7681 22.2407 32.8413C22.2407 32.9998 22.7894 33.1339 23.4112 33.1339C23.6429 33.1339 23.8258 33.1705 23.8258 33.2315C23.8258 33.2802 23.4722 33.7314 23.0332 34.2191C22.5943 34.719 22.2407 35.1824 22.2407 35.2555C22.2407 35.3287 22.3138 35.3043 22.3992 35.2068C22.4845 35.1092 22.9357 34.5971 23.3868 34.085C24.155 33.2071 24.2404 33.1461 24.594 33.2193C24.8134 33.2558 25.0085 33.3046 25.0329 33.329C25.0573 33.3534 24.8622 33.6094 24.6062 33.8899C23.9355 34.6215 23.4112 35.3287 23.4844 35.4018C23.521 35.4262 23.7039 35.2555 23.8868 34.9995C24.0697 34.7434 24.4842 34.2801 24.7891 33.9509C25.2524 33.4631 25.4109 33.3778 25.8011 33.3778C26.0571 33.3778 26.2644 33.4022 26.2644 33.4387C26.2644 33.4753 25.8255 34.0362 25.289 34.6824C24.7525 35.3287 24.3501 35.8896 24.3867 35.9262C24.4233 35.9627 24.5696 35.8286 24.7159 35.6335C24.8622 35.4262 25.3621 34.841 25.8133 34.3167C26.4229 33.6338 26.7278 33.3778 26.9472 33.3778C27.1545 33.3778 27.2399 33.4387 27.2399 33.6216C27.2399 33.7558 27.1667 33.8655 27.0936 33.8777C26.9229 33.8777 24.7525 36.9016 24.8378 36.9992C24.8744 37.0235 25.3743 36.3895 25.9596 35.5847C26.5449 34.7678 27.0814 34.1094 27.1545 34.1094C27.2277 34.1094 27.2521 34.3898 27.2033 34.8897C27.1301 35.6091 27.0692 35.7554 26.2522 36.9016C25.7767 37.5844 25.4109 38.1697 25.4475 38.2063C25.4719 38.2429 25.8133 37.8283 26.1913 37.2796C26.5693 36.7431 26.9229 36.3041 26.9838 36.3041C27.0326 36.3041 27.057 36.7309 27.0326 37.243C26.9716 38.2551 26.8985 38.4136 25.7035 39.9865C25.4597 40.3157 25.3134 40.5718 25.3743 40.5718C25.4353 40.5718 25.8133 40.1328 26.2035 39.5963C26.5936 39.0598 26.9594 38.6208 27.0204 38.6208C27.0692 38.6208 27.1179 38.8891 27.1179 39.2183C27.1179 39.706 27.0326 39.9377 26.679 40.462C26.1425 41.2668 25.6548 42.0837 25.6548 42.1935C25.6548 42.2422 25.7157 42.2788 25.7767 42.2788C25.8499 42.2788 25.8986 42.2178 25.8986 42.1569C25.8986 41.9618 26.8863 40.4498 27.0082 40.4498C27.0692 40.4498 27.1179 40.7912 27.1179 41.2058C27.1179 41.9496 27.0936 42.0106 26.3254 43.1201C25.8864 43.7542 25.5694 44.3029 25.606 44.3395C25.6548 44.376 25.7401 44.3151 25.8255 44.1809C25.8986 44.059 26.2035 43.6201 26.5083 43.2055L27.057 42.4617L27.0936 42.8763C27.1301 43.1811 27.0326 43.4372 26.7156 43.9127C26.2035 44.6809 25.8621 45.3271 25.9352 45.4003C25.9596 45.4368 26.2278 45.0589 26.5205 44.5711L27.057 43.681L27.0936 44.1322C27.1179 44.4858 27.0204 44.7418 26.6424 45.3637C26.362 45.7904 26.1425 46.2172 26.1425 46.3147C26.1425 46.4123 26.3498 46.1684 26.5814 45.7782C26.8253 45.4003 27.0692 45.0832 27.1301 45.0832C27.2765 45.0832 27.2765 46.9366 27.1179 47.3268C27.0082 47.6194 26.9594 47.6438 26.5327 47.5706C26.2766 47.5341 24.8622 47.5585 23.3868 47.6438C21.9237 47.7292 19.485 47.7901 17.9853 47.7901C15.5222 47.8023 15.2418 47.7779 15.1442 47.5828C15.0223 47.3756 15.0955 44.2907 15.2418 43.2665C15.3393 42.608 15.2296 42.5227 14.1932 42.5227C13.1324 42.5227 12.1691 42.2422 11.7423 41.8398C11.4131 41.5228 11.3887 41.4375 11.3887 40.5352C11.3887 39.6085 11.4009 39.5597 11.7911 39.1695C12.5593 38.4014 14.6565 38.0843 15.254 38.6452C15.4735 38.8525 15.571 38.8769 15.6807 38.7672C15.8027 38.6452 15.7783 38.5355 15.6198 38.2672C15.4491 37.9746 15.4125 37.5722 15.4125 35.8286C15.4125 34.2679 15.4491 33.7192 15.571 33.6826C15.6442 33.646 16.0465 33.5729 16.4489 33.5119C18.6315 33.1827 19.0826 33.0729 19.0461 32.89C19.0217 32.7681 18.8144 32.6828 18.4608 32.6462C17.3756 32.5243 16.7537 31.7561 16.7537 30.549C16.7537 29.2443 17.2659 28.2323 18.095 27.903C18.2657 27.8421 18.7534 27.7811 19.1924 27.7811C19.863 27.7689 20.1313 27.8421 20.8385 28.1835Z" fill="#0054BC"/>
<path d="M17.826 46.4612C16.375 46.6075 16.2287 46.766 17.6431 46.6441C18.1918 46.6075 19.2282 46.5587 19.9598 46.5587C20.7402 46.5465 21.2645 46.4977 21.2645 46.4246C21.2645 46.2783 19.4721 46.2905 17.826 46.4612Z" fill="#0054BC"/>
<path d="M22.4839 46.5465C22.4839 46.6196 22.618 46.644 22.8253 46.5952C23.3008 46.4733 23.313 46.4245 22.8741 46.4245C22.6546 46.4245 22.4839 46.4855 22.4839 46.5465Z" fill="#0054BC"/>
<path d="M31.1778 32.3415C30.9949 32.4756 30.9096 32.7073 30.8486 33.2194C30.7998 33.6096 30.7023 34.0851 30.6291 34.268C30.5194 34.5363 30.5316 34.6338 30.6901 34.7557C31.1656 35.1337 31.2632 36.0848 31.3241 41.0108C31.3607 43.8153 31.4339 45.7906 31.507 45.8637C31.5802 45.9369 32.1411 45.9979 32.7507 46.0222C33.3726 46.0466 34.0188 46.071 34.1895 46.0954C34.47 46.1198 34.5066 46.0588 34.6407 45.3516C34.9699 43.7055 35.7868 42.5838 36.8964 42.2545C37.689 42.0229 39.5911 42.0595 40.53 42.3399C41.1518 42.5228 41.4811 42.7179 42.0663 43.2422C42.4687 43.6202 42.9199 44.0226 43.0662 44.1323C43.2125 44.2542 43.3344 44.4859 43.3344 44.6444C43.3344 44.8029 43.371 45.0956 43.4076 45.3028C43.5051 45.754 43.6393 45.7906 45.4438 45.8393C47.0412 45.8759 47.1143 45.8271 47.1143 44.6078C47.1143 44.1689 47.1875 43.3885 47.285 42.8886C47.4069 42.2424 47.4557 40.8279 47.4679 38.0723C47.4801 35.658 47.5411 33.9754 47.6264 33.634C47.8337 32.8292 47.6264 32.7073 45.834 32.6097C45.0415 32.561 43.7246 32.439 42.8955 32.3293C41.1396 32.0854 41.0055 32.122 41.1031 32.8902C41.1884 33.4876 40.9446 33.9022 40.3105 34.2192C39.2497 34.7557 38.006 34.5972 37.1769 33.8169C36.7867 33.4389 36.7623 33.3779 36.872 33.0609C37.1159 32.439 36.994 32.3781 35.6893 32.4634C34.8723 32.5244 34.0798 32.4878 33.1653 32.3537C31.5314 32.1098 31.507 32.1098 31.1778 32.3415ZM33.3726 32.8414C34.2627 32.9633 35.165 32.9999 35.6283 32.9633L36.3843 32.878V33.2926C36.3843 33.5852 36.494 33.7925 36.7867 34.0851C37.9206 35.1825 40.0545 35.3044 40.9811 34.329C41.4689 33.8047 41.6274 33.4876 41.6274 32.9999C41.6274 32.6097 41.6274 32.6097 42.1517 32.6951C42.4321 32.7317 43.0052 32.8048 43.432 32.8414C43.8465 32.8902 44.2245 32.9633 44.2489 33.0243C44.2855 33.0731 43.8587 33.5364 43.31 34.0485C42.7491 34.5606 42.4077 34.9264 42.5419 34.8655C42.676 34.7923 43.2125 34.3412 43.7368 33.8656C44.6757 32.9999 44.7001 32.9877 45.2366 33.0487C45.5414 33.0731 45.8096 33.134 45.834 33.1584C45.8584 33.1828 45.2853 33.8169 44.5537 34.5606C43.81 35.3044 43.2125 35.9629 43.2125 36.036C43.2125 36.1092 43.8831 35.4873 44.7123 34.646L46.1998 33.1218L46.7363 33.1584L47.2728 33.195L45.9194 34.7192C45.1634 35.5605 44.5537 36.2921 44.5537 36.3652C44.5659 36.4262 44.8708 36.1336 45.2609 35.6946C46.4559 34.329 46.968 33.8047 47.0412 33.8656C47.0777 33.9022 47.0533 34.2436 47.0046 34.6094C46.9192 35.2678 46.8704 35.341 45.9194 36.2677C45.3707 36.8042 44.9195 37.3041 44.9195 37.3773C44.9195 37.4626 45.3707 37.0724 45.9194 36.5237L46.9314 35.5117L46.968 36.1701L47.0046 36.8286L45.9925 37.8528C45.4438 38.4137 45.0415 38.8648 45.1024 38.8648C45.1756 38.8648 45.6145 38.4747 46.0779 38.0113C46.5412 37.5358 46.968 37.1578 47.0168 37.1578C47.0777 37.1578 47.1143 37.3407 47.1143 37.548C47.1143 37.8772 46.9558 38.1089 46.1754 38.8892C45.0537 40.011 45.0902 40.1695 46.212 39.0843L46.9924 38.3405V38.9014C46.9924 39.4623 46.968 39.4867 46.1389 40.1695C45.6755 40.5597 45.2853 40.9133 45.2853 40.9743C45.2853 41.023 45.6145 40.7914 46.0291 40.45C46.4315 40.1207 46.8095 39.8403 46.8826 39.8403C46.9436 39.8403 46.9924 40.0476 46.9924 40.3036C46.9924 40.7914 46.7363 41.1084 45.7365 41.8522C45.4804 42.0351 45.3097 42.218 45.3341 42.2424C45.3707 42.2789 45.7243 42.0473 46.1267 41.7424C46.529 41.4376 46.8826 41.1815 46.9192 41.1815C46.9558 41.1815 46.9924 41.3888 46.9924 41.6449C46.9924 42.0595 46.9314 42.157 46.3583 42.5838C45.5658 43.1934 45.3707 43.3885 45.4682 43.4861C45.517 43.5226 45.5902 43.4739 45.6511 43.3641C45.7853 43.1203 46.7363 42.4618 46.8217 42.5472C46.8461 42.5838 46.8461 42.8398 46.7973 43.1325C46.7241 43.5592 46.6144 43.7177 46.1267 44.0835C45.5048 44.5469 45.3829 44.7907 45.9803 44.3884C46.6388 43.925 46.6266 43.9128 46.6266 44.7176V45.4614L45.2 45.4248L43.7612 45.3882V44.742C43.7612 44.1567 43.7246 44.0591 43.4076 43.8275C43.2125 43.6811 42.7979 43.3032 42.4931 42.9983C41.5298 42.0351 40.4081 41.6327 38.5791 41.6205C36.7989 41.6083 35.7259 42.0595 34.9943 43.1325C34.6895 43.5836 34.2261 44.8273 34.1651 45.3272C34.1286 45.6321 34.1164 45.6321 33.0921 45.5955C32.5191 45.5711 32.0191 45.5101 31.9704 45.4614C31.9216 45.4248 31.8484 43.3519 31.7997 40.8767C31.7265 36.8773 31.6899 36.2555 31.4704 35.4507C31.2388 34.6094 31.1656 33.0243 31.3363 32.7439C31.4217 32.6097 31.6899 32.6219 33.3726 32.8414Z" fill="#0054BC"/>
<path d="M33.068 35.9994C33.1168 36.5969 33.1534 37.7674 33.1534 38.5844C33.1534 39.3891 33.19 40.0353 33.2509 39.9988C33.3972 39.9134 33.3241 37.048 33.1412 35.9384L32.9827 34.902L33.068 35.9994Z" fill="#0054BC"/>
<path d="M33.2388 41.4865C33.2388 41.6815 33.2632 41.7547 33.2997 41.6328C33.3241 41.523 33.3241 41.3523 33.2997 41.267C33.2632 41.1938 33.2388 41.2792 33.2388 41.4865Z" fill="#0054BC"/>
<path d="M37.1774 43.7178C36.6896 44.0226 36.4336 44.3274 36.2141 44.8395C35.9702 45.437 35.6288 47.5098 35.7142 47.9C35.763 48.0829 35.7386 48.2658 35.6654 48.3024C35.6044 48.339 34.6046 48.3146 33.4341 48.2536C32.2757 48.1805 31.1661 48.1683 30.971 48.2292L30.6174 48.3268L30.6418 51.241C30.6418 52.8505 30.654 54.2039 30.654 54.2527C30.654 54.4356 31.0076 54.3502 31.1174 54.1551C31.2515 53.9113 31.7514 53.9966 32.3489 54.3624C32.8732 54.6794 33.5804 56.167 33.5804 56.9474C33.5804 57.7033 33.0439 58.4593 32.044 59.1056C31.0564 59.7518 30.9466 59.9469 31.2271 60.4712C31.3734 60.7638 31.4466 61.2516 31.4831 62.2392C31.5197 63.2025 31.5807 63.6536 31.7026 63.7512C31.8733 63.8975 37.3725 63.739 41.2011 63.4829C42.2132 63.4098 43.5666 63.3244 44.2128 63.2878C45.1395 63.2391 45.4078 63.1781 45.4809 63.0196C45.5297 62.9098 45.6151 60.9345 45.6638 58.6178C45.7126 56.3011 45.8101 53.9722 45.8833 53.4357C46.0174 52.3383 46.054 50.0094 45.9443 49.3266C45.8955 49.0828 45.7736 48.8389 45.6638 48.8023C45.5541 48.7535 44.981 48.6926 44.3713 48.656C43.7739 48.6316 43.152 48.5828 43.0179 48.5585C42.7497 48.4975 42.7497 48.4975 42.9813 48.0463C43.4691 47.0831 43.213 46.2905 42.0059 45.0712C40.8719 43.9494 40.0672 43.5714 38.6405 43.5227C37.7261 43.4983 37.4822 43.5227 37.1774 43.7178ZM40.2257 44.3396C41.5791 44.9858 42.7253 46.2417 42.7253 47.0831C42.7253 47.6684 42.4936 48.1195 42.0912 48.3268C41.4572 48.656 41.7498 48.9852 42.7009 48.9852C42.9082 48.9852 43.0911 49.034 43.0911 49.095C43.0911 49.1559 42.7131 49.4607 42.2375 49.7778C41.7742 50.0948 41.384 50.3996 41.384 50.4606C41.384 50.5216 41.8474 50.2411 42.4082 49.8387C43.3227 49.1925 43.5056 49.1071 44.0177 49.1071C44.7371 49.1071 44.7128 49.1437 42.8838 50.6069C42.1278 51.2044 41.5059 51.7531 41.5059 51.814C41.5059 51.9116 43.7739 50.1314 44.5177 49.4364C44.8103 49.1559 44.9688 49.095 45.2127 49.1559C45.8223 49.3022 45.6272 49.7168 44.3226 50.9727C43.6519 51.6068 42.9447 52.2286 42.7375 52.3505C42.5302 52.4725 42.3595 52.6188 42.3595 52.6798C42.3595 52.8505 43.4081 52.0457 44.4323 51.0946C44.9566 50.6069 45.42 50.2045 45.4565 50.2045C45.4931 50.2045 45.5297 50.3509 45.5297 50.5338C45.5297 50.7776 45.3224 51.0824 44.7128 51.6921C44.2616 52.1554 43.9446 52.5212 44.0177 52.5212C44.0787 52.5212 44.4079 52.2408 44.7371 51.9116C45.0664 51.5702 45.3834 51.3019 45.4322 51.3019C45.4809 51.3019 45.5297 51.5092 45.5297 51.7653C45.5297 52.1676 45.4322 52.314 44.7371 53.009C44.2982 53.4357 43.9446 53.8503 43.9446 53.9113C43.9446 53.9844 44.2738 53.7162 44.6762 53.3138C45.0786 52.9236 45.4322 52.631 45.4687 52.6554C45.5053 52.6919 45.4931 52.9846 45.4565 53.3016C45.3834 53.8259 45.2858 53.96 44.3835 54.8014C43.2862 55.8256 43.3593 55.8744 44.5055 54.8745C44.92 54.5209 45.2736 54.2283 45.298 54.2283C45.3346 54.2283 45.3346 54.46 45.298 54.7404C45.2615 55.1794 45.1273 55.3988 44.4201 56.167C43.9568 56.6669 43.5788 57.1303 43.5788 57.2034C43.5788 57.2766 43.9324 56.9474 44.3713 56.484L45.1517 55.6305L45.1639 56.2402C45.1639 56.8498 45.1639 56.8498 44.0665 57.9472C43.4691 58.5569 42.9691 59.0934 42.9691 59.1665C42.9691 59.2275 43.4203 58.8373 43.9812 58.2764C44.5299 57.7277 45.0298 57.2766 45.0786 57.2766C45.1273 57.2766 45.1639 57.557 45.1639 57.8984C45.1639 58.4959 45.1273 58.5691 44.3957 59.3982C43.3715 60.5444 43.2374 60.8492 44.2128 59.8006C44.6396 59.3494 45.0176 58.9836 45.0786 58.9836C45.1273 58.9836 45.1639 59.2275 45.1639 59.5323C45.1639 60.0079 45.0907 60.1786 44.603 60.7638C44.2982 61.1418 44.0787 61.4832 44.1153 61.5198C44.1519 61.5564 44.2006 61.5564 44.225 61.532C44.2494 61.5076 44.4201 61.2759 44.603 61.0199C44.7981 60.776 45.0054 60.5687 45.0786 60.5687C45.1883 60.5687 45.1395 62.5928 45.0298 62.6904C44.8347 62.8611 32.1904 63.4951 32.044 63.3366C32.0075 63.3 31.9587 62.7391 31.9465 62.0685C31.9221 61.3247 31.8368 60.7029 31.727 60.4346L31.5319 59.9835L32.3976 59.3982C32.8732 59.069 33.4341 58.5691 33.6413 58.2764C33.9462 57.8253 34.0071 57.6302 34.0071 56.9839C34.0071 56.3255 33.934 56.0695 33.4828 55.155C33.0073 54.1917 32.8976 54.0576 32.422 53.8503C32.1294 53.7162 31.727 53.582 31.5197 53.5455L31.1539 53.4723L31.1174 51.0946C31.093 49.5827 31.1295 48.6926 31.2027 48.6682C31.2759 48.6438 32.5318 48.6682 34.0071 48.717C35.6532 48.7779 36.7872 48.7657 36.9335 48.7048C37.1652 48.5828 37.1652 48.5828 36.8969 48.3877C36.7384 48.278 36.5067 48.1073 36.3604 47.9976L36.0922 47.8025L36.2873 46.5588C36.5067 45.2053 36.8725 44.3884 37.3603 44.1445C37.531 44.0592 38.0797 43.986 38.5796 43.986C39.3356 43.986 39.616 44.047 40.2257 44.3396Z" fill="#0054BC"/>
<path d="M36.665 61.7757C35.1165 61.8123 33.7996 61.8854 33.7508 61.9342C33.5679 62.1171 33.7996 62.1537 34.4337 62.0317C34.7873 61.9708 36.1651 61.9098 37.4941 61.9098C39.0305 61.9098 39.9206 61.861 39.9206 61.7879C39.9206 61.7147 39.823 61.6781 39.7133 61.6903C39.5914 61.7025 38.2257 61.7391 36.665 61.7757Z" fill="#0054BC"/>
<path d="M41.2612 61.8854C41.2612 61.9464 41.4563 62.0317 41.688 62.0561C41.9197 62.0805 42.1148 62.0561 42.1148 62.0073C42.1148 61.9586 42.0416 61.9098 41.9684 61.9098C41.8831 61.9098 41.688 61.8732 41.5417 61.8366C41.3832 61.7879 41.2612 61.8122 41.2612 61.8854Z" fill="#0054BC"/>
<path d="M17.7288 50.3386C17.4971 50.4117 16.3387 50.5093 15.1682 50.5459L13.0344 50.6312L13.071 51.5091C13.0953 51.9847 13.0222 52.9479 12.9124 53.6307C12.7417 54.6306 12.7174 55.1793 12.8027 56.3498C12.8515 57.1668 12.9003 59.1299 12.9003 60.7272C12.9124 63.1658 12.9368 63.6413 13.0953 63.7389C13.327 63.8852 13.9733 63.8852 14.8146 63.7389C15.1804 63.6779 16.6314 63.5316 18.0336 63.4341C19.448 63.3243 20.7039 63.2024 20.838 63.1658C20.9721 63.1292 22.1549 63.1048 23.4596 63.1048C24.7642 63.117 25.9226 63.1048 26.0323 63.0683C26.2152 63.0073 26.2396 62.8732 26.1786 62.105C26.1421 61.6173 26.1421 60.9101 26.1908 60.5443L26.2762 59.8737L26.7761 60.0444C27.8369 60.4102 28.8246 59.5932 29.5074 57.752C30.2999 55.667 30.0439 53.9843 28.8367 53.4478C28.349 53.2162 27.3614 53.2162 26.642 53.4478C26.3737 53.521 26.3493 53.5088 26.4347 53.2406C26.4835 53.082 26.5566 52.448 26.5932 51.8383C26.6907 50.2776 26.7761 50.3264 24.0936 50.3264C22.9109 50.3264 21.0819 50.302 20.0455 50.2654C18.8993 50.2288 17.9848 50.2654 17.7288 50.3386ZM23.9351 50.8141H25.4592L24.5569 51.753C23.6425 52.6797 23.6425 52.6919 24.374 52.07C24.7764 51.7286 25.2398 51.3018 25.3983 51.1311C25.6665 50.8507 26.1421 50.6922 26.1421 50.8873C26.1421 50.9239 25.6909 51.436 25.1544 52.009C24.1302 53.1064 23.7522 53.582 23.8497 53.6795C23.8741 53.7161 24.1058 53.4722 24.3375 53.1552C24.5813 52.8382 25.0934 52.2773 25.4592 51.9115L26.1421 51.2531V51.8627C26.1421 52.4358 26.1055 52.4968 25.4105 53.1918C24.6301 53.96 23.8619 54.9598 24.0448 54.9598C24.1058 54.9598 24.2643 54.8135 24.3862 54.6184C24.6667 54.1916 25.7763 53.0089 25.9104 53.0089C25.9592 53.0089 25.9226 53.3259 25.825 53.7039C25.5934 54.7281 25.6056 55.228 25.8738 55.1793C25.9835 55.1549 26.1421 54.9476 26.2152 54.7159C26.4225 54.0819 26.9956 53.7405 27.8613 53.7405C28.7392 53.7405 29.2025 54.0819 29.4342 54.8866C29.8488 56.362 28.6173 59.4103 27.5077 59.6542C27.1663 59.7273 26.7639 59.6054 26.3737 59.325C26.203 59.203 26.0201 59.2884 25.3251 59.8127C24.8618 60.1541 24.374 60.5565 24.2521 60.7028C23.9229 61.0686 24.2155 60.8979 25.0447 60.2151L25.7153 59.6664L25.7519 60.0444C25.7885 60.3614 25.6909 60.5199 25.1178 61.0564C24.7398 61.41 24.435 61.7636 24.435 61.8368C24.435 61.9099 24.6911 61.7148 24.9959 61.3856C25.3129 61.0686 25.6177 60.8125 25.6787 60.8125C25.7397 60.8125 25.7763 61.2149 25.7519 61.6904L25.7153 62.5805L23.2157 62.6537C20.4966 62.7269 15.912 63.0683 14.9121 63.2512C14.5585 63.3243 14.083 63.3731 13.8269 63.3731H13.3758L13.388 60.7759C13.388 59.3615 13.3392 57.4228 13.2904 56.4839C13.2051 55.1061 13.2295 54.5574 13.388 53.6307C13.4977 52.9967 13.5831 52.1676 13.5831 51.7774C13.5831 51.0946 13.5831 51.0824 13.9854 51.0092C14.1927 50.9726 15.0341 50.936 15.8388 50.936C16.6436 50.9482 17.4727 50.8873 17.6678 50.8263C17.8995 50.741 18.8627 50.7166 20.2162 50.7531C21.4233 50.7897 23.0938 50.8141 23.9351 50.8141Z" fill="#0054BC"/>
<path d="M14.8759 53.9235C14.9124 54.3259 14.9612 55.472 14.9978 56.4841C15.0344 58.1302 15.1319 59.3129 15.2295 59.2032C15.3148 59.1056 15.0466 53.9967 14.9368 53.6187C14.8271 53.2529 14.8149 53.2895 14.8759 53.9235Z" fill="#0054BC"/>
<path d="M15.3147 60.8124C15.3147 60.9832 15.3391 61.0441 15.3757 60.9588C15.4 60.8856 15.4 60.7393 15.3757 60.6539C15.3391 60.5808 15.3147 60.6417 15.3147 60.8124Z" fill="#0054BC"/>
</svg>
