<svg width="200" height="91" viewBox="0 0 200 91" fill="none" xmlns="http://www.w3.org/2000/svg">
<path d="M138.252 39.5775C137.856 39.8418 137.837 39.9928 137.837 42.1258C137.837 43.3528 137.761 44.3721 137.667 44.3721C137.572 44.3721 137.044 44.1645 136.478 43.9002C134.269 42.8809 131.777 43.5038 130.513 45.4104C128.927 47.7888 129.323 51.4697 131.343 53.2441C132.306 54.0747 133.099 54.3767 134.382 54.3767C135.439 54.3767 135.76 54.2634 137.1 53.4895C137.553 53.2252 137.723 53.2064 137.78 53.3951C138.063 54.1691 139.064 54.4333 139.611 53.8859C139.875 53.6405 139.913 52.7156 139.913 46.7317V39.8606L139.498 39.5775C139.271 39.4076 138.988 39.2755 138.875 39.2755C138.762 39.2755 138.478 39.4076 138.252 39.5775ZM135.93 45.618C137.931 46.4108 138.516 49.6387 136.949 51.3753C135.798 52.6401 134.137 52.81 132.91 51.7906C131.362 50.4881 131.173 47.8643 132.532 46.3731C133.476 45.3348 134.609 45.0894 135.93 45.618Z" fill="black"/>
<path d="M112.712 40.3326C112.523 40.8611 112.655 41.5407 112.995 41.7672C113.373 42.0126 114.392 41.9182 114.694 41.6162C115.053 41.2764 115.09 40.3892 114.77 40.0683C114.637 39.9362 114.184 39.8418 113.731 39.8418C113.014 39.8418 112.882 39.8984 112.712 40.3326Z" fill="black"/>
<path d="M103.538 40.4458C103.236 40.8045 98.5355 51.8095 98.1202 53.1686C98.0447 53.4329 98.1202 53.7349 98.3656 54.0181C98.6677 54.3956 98.7998 54.4333 99.2528 54.2823C99.8191 54.0747 100.008 53.8104 100.744 52.0549L101.216 50.9789H104.293H107.389L107.917 52.2437C108.502 53.6783 109.05 54.3767 109.541 54.3767C110.031 54.3767 110.465 53.8482 110.465 53.2819C110.465 52.6023 105.444 40.5591 105.048 40.2571C104.557 39.9173 103.972 39.9739 103.538 40.4458ZM105.35 46.2975C105.878 47.5056 106.313 48.6005 106.313 48.6949C106.313 48.827 105.576 48.9025 104.236 48.9025C103.104 48.9025 102.16 48.8648 102.16 48.827C102.16 48.7326 103.821 44.7874 104.047 44.3533C104.18 44.1456 104.293 43.9946 104.331 44.0324C104.368 44.0512 104.821 45.0895 105.35 46.2975Z" fill="black"/>
<path d="M74.3361 40.5212C73.9586 40.8798 73.9586 41.3517 74.2983 41.8425C74.5249 42.1445 74.8646 42.2201 76.5258 42.2956L78.4701 42.3899L78.5644 48.1095C78.6588 54.2822 78.6399 54.1878 79.697 54.1878C80.9429 54.1878 81.0184 53.8291 81.0184 47.6943V42.2956H82.6795C84.6049 42.2956 85.2467 42.0502 85.3222 41.2951C85.4544 40.2191 85.3977 40.2191 79.7725 40.2191C75.3554 40.2191 74.5815 40.2569 74.3361 40.5212Z" fill="black"/>
<path d="M88.1156 40.5212C87.8513 40.7666 87.8136 41.6538 87.8136 47.2035C87.8136 52.7532 87.8513 53.6404 88.1156 53.8858C88.361 54.1501 89.0217 54.1879 92.3439 54.1879C96.5911 54.1879 96.8743 54.1312 96.8743 53.1685C96.8743 52.338 96.459 52.2058 93.2122 52.1114L90.1731 52.0171L90.1165 50.0728L90.0599 48.1474H92.4761C95.232 48.1474 95.7983 47.9775 95.8927 47.1092C96.006 46.222 95.5907 46.071 92.9857 46.071C91.721 46.071 90.5507 46.0143 90.3808 45.9577C90.1354 45.8633 90.0787 45.5047 90.0787 44.07V42.2956H92.9668C96.1381 42.2956 96.7422 42.1446 96.8365 41.3329C96.9498 40.2947 96.6478 40.2192 92.3439 40.2192C89.0217 40.2192 88.361 40.257 88.1156 40.5212Z" fill="black"/>
<path d="M160.64 43.4471C159.979 43.5415 158.544 44.3909 158.28 44.8062C158.224 44.9195 158.035 44.7118 157.865 44.3532C157.619 43.8435 157.431 43.6925 156.94 43.6548C155.77 43.5415 155.77 43.5415 155.77 48.9213C155.77 53.6404 155.788 53.8103 156.147 53.9991C156.77 54.3389 157.525 54.1501 157.789 53.6216C157.959 53.3007 158.035 52.1681 158.035 50.0728C158.035 46.6184 158.167 46.1276 159.281 45.599C160.243 45.146 161.149 45.2404 161.848 45.8633L162.471 46.4107L162.527 49.9784C162.603 53.867 162.697 54.1879 163.717 54.1879C164.736 54.1879 164.83 53.8858 164.849 50.5447C164.849 48.6948 164.944 47.2413 165.076 46.8449C165.378 45.9766 166.114 45.4669 167.228 45.3725C168.02 45.2781 168.247 45.3536 168.719 45.7501L169.266 46.222L169.361 49.7896C169.417 51.7339 169.531 53.4894 169.625 53.6782C169.795 54.0369 170.456 54.2634 170.984 54.1501C171.664 54.0369 171.815 53.2818 171.815 50.186C171.815 44.7873 171.116 43.4282 168.322 43.4282C167.02 43.4282 166.189 43.8058 165.321 44.7496L164.66 45.4858L164.283 44.844C163.622 43.6925 162.244 43.164 160.64 43.4471Z" fill="black"/>
<path d="M144.953 43.9191C143.216 44.8252 142.254 46.8261 142.405 49.2612C142.594 52.4324 144.406 54.3578 147.199 54.3767C148.162 54.3767 148.502 54.2823 149.408 53.7349L150.484 53.0931L150.71 53.5839C151.013 54.2068 151.975 54.3767 152.447 53.9048C152.711 53.6405 152.749 52.9798 152.749 48.827C152.749 43.5038 152.711 43.3528 151.617 43.4661C151.126 43.5038 150.899 43.6548 150.729 44.0135L150.484 44.5043L149.427 43.9757C147.992 43.2395 146.293 43.2207 144.953 43.9191ZM148.54 45.5236C150.314 46.1843 151.182 48.6194 150.314 50.507C149.332 52.6967 146.897 53.112 145.331 51.3753C144.576 50.5448 144.349 49.7331 144.481 48.3362C144.689 46.1465 146.633 44.8063 148.54 45.5236Z" fill="black"/>
<path d="M177.005 43.8813C172.909 45.7879 172.89 51.8661 176.949 53.8859C177.742 54.2823 178.195 54.3767 179.346 54.3767C181.12 54.3767 182.329 53.867 183.386 52.6778C184.462 51.5075 184.726 50.7713 184.726 48.9025C184.726 47.0337 184.462 46.2975 183.386 45.1272C182.329 43.938 181.12 43.4283 179.365 43.4283C178.27 43.4283 177.723 43.5416 177.005 43.8813ZM181.177 45.9766C182.442 46.9394 182.914 48.8459 182.272 50.3749C181.366 52.5646 178.893 53.1497 177.288 51.5452C175.892 50.1484 175.797 47.9209 177.043 46.4297C178.1 45.1838 179.875 44.9951 181.177 45.9766Z" fill="black"/>
<path d="M188.804 43.7303C186.991 44.5231 186.255 46.222 187.086 47.7699C187.52 48.5816 188.445 49.129 190.465 49.7519C191.333 50.0162 192.201 50.4126 192.39 50.6014C192.919 51.1299 192.862 51.8283 192.258 52.3002C191.824 52.64 191.541 52.6967 190.653 52.64C189.653 52.5645 189.238 52.3758 187.746 51.262C187.595 51.1488 187.312 51.1488 186.973 51.2809C186.142 51.5641 186.161 52.3002 187.029 53.1308C188.615 54.6787 192.05 54.8108 193.711 53.3951C194.372 52.8477 194.655 52.2059 194.655 51.262C194.655 49.5065 193.881 48.7892 191.088 47.9586C189.691 47.5434 188.804 46.9204 188.804 46.3541C188.804 46.1842 189.011 45.8445 189.275 45.5991C189.955 44.9006 191.295 44.9384 192.409 45.6935C193.296 46.2975 193.881 46.3919 194.24 46.0332C194.844 45.4292 193.995 44.1833 192.635 43.7303C191.541 43.3528 189.672 43.3528 188.804 43.7303Z" fill="black"/>
<path d="M113.033 43.9002C112.769 44.1645 112.731 44.8629 112.731 49.3933C112.731 55.0751 112.618 55.7547 111.712 56.0001C110.598 56.2643 110.277 57.6423 111.221 58.0954C112.278 58.605 113.939 57.699 114.6 56.2643C114.996 55.3583 115.147 44.9384 114.77 44.1834C114.468 43.5982 113.486 43.4472 113.033 43.9002Z" fill="black"/>
<path d="M118.281 44.07C118.036 44.4664 117.998 45.0704 118.055 47.9019C118.111 51.0921 118.13 51.3186 118.602 52.2058C118.885 52.7721 119.395 53.3761 119.867 53.697C120.565 54.1878 120.848 54.2633 122.321 54.3388C123.85 54.4143 124.038 54.3766 125.001 53.8669C125.832 53.4327 126.115 53.1307 126.549 52.319C127.077 51.3186 127.077 51.2808 127.077 47.6943C127.077 43.8057 127.04 43.6169 126.115 43.6169C125.095 43.6169 125.001 43.919 125.001 47.3167C125.001 50.9222 124.812 51.6961 123.774 52.1869C123 52.5644 122.339 52.5644 121.509 52.2246C120.471 51.7905 120.395 51.4507 120.282 47.5244C120.188 43.6924 120.169 43.6169 119.112 43.6169C118.772 43.6169 118.489 43.768 118.281 44.07Z" fill="black"/>
<path d="M31.3735 16.5634C27.2279 16.8804 23.9479 17.7583 20.3143 19.5386C13.413 22.9283 8.23087 28.781 5.69468 36.0847C2.91464 44.0591 3.82913 53.1674 8.14552 60.3735C12.5838 67.787 19.8632 72.774 28.374 74.2372C30.2762 74.5664 34.056 74.6762 36.0679 74.4689C39.7259 74.0909 42.8717 73.1764 46.1395 71.5181C51.8947 68.6161 56.2598 64.2022 59.1374 58.3983C60.9298 54.7891 61.8321 51.3262 62.076 47.2293C62.5637 38.9379 59.491 30.8782 53.6139 25.0255C49.2731 20.6969 43.8106 17.8803 37.8847 16.917C36.58 16.7097 33.3123 16.4049 32.8245 16.4415C32.727 16.4537 32.0686 16.5024 31.3735 16.5634ZM37.2141 17.9534C47.3466 19.502 55.699 26.2692 59.2838 35.8043C63.0271 45.7661 60.7347 56.9838 53.3944 64.7875C49.1878 69.2502 43.5545 72.1644 37.1531 73.2008C35.2754 73.5056 31.1175 73.5056 29.1666 73.213C21.1191 71.9571 14.3275 67.6773 9.86476 61.0198C8.74298 59.3493 7.25541 56.3254 6.63356 54.4599C6.07267 52.7772 5.62153 50.7775 5.37766 48.9851C5.14599 47.2537 5.18257 43.4982 5.43863 41.7302C6.35312 35.5726 9.02343 30.232 13.3764 25.879C15.6809 23.5745 17.7903 22.0504 20.7289 20.5872C23.826 19.0386 27.3254 18.0632 30.9956 17.7218C32.1051 17.6242 35.9704 17.7705 37.2141 17.9534Z" fill="black"/>
<path d="M22.546 27.2935C21.8754 27.452 21.4486 27.6959 21.0341 28.1836C20.5341 28.7445 20.339 29.3663 20.3268 30.3906C20.3268 31.5001 20.4244 31.8172 20.9487 32.4024C21.3755 32.878 21.3755 32.878 21.095 32.9511C20.9365 32.9877 20.4 33.0609 19.9001 33.1096L18.9856 33.195V33.8656C18.9856 34.2314 18.9612 35.28 18.949 36.1945L18.9246 37.8528L17.7053 37.9747C16.6567 38.0723 16.4006 38.1454 15.9739 38.4503C15.1447 39.0355 14.9618 39.3648 14.9253 40.4256C14.8643 41.9131 15.2789 42.4374 16.7542 42.8398C17.1078 42.9252 17.7297 43.0105 18.1443 43.0105H18.8759L18.7173 43.9372C18.6076 44.6078 18.5954 45.315 18.6564 46.4978C18.7173 47.3879 18.7905 48.156 18.8271 48.1926C18.9368 48.3146 24.5701 48.2536 27.0087 48.1195C28.228 48.0585 29.679 48.0097 30.2399 48.0341C30.9105 48.0463 31.2885 48.0097 31.3983 47.9C31.508 47.7902 31.5446 46.1807 31.569 40.8401C31.5812 37.0359 31.5934 33.7437 31.5934 33.512C31.6055 33.2804 31.569 33.0609 31.5324 33.0243C31.4958 32.9877 30.9105 32.9146 30.2277 32.878C29.045 32.8048 26.9721 32.6219 26.9721 32.5975C26.9721 32.5853 27.1063 32.3171 27.277 31.9879C27.6306 31.2929 27.6793 30.3174 27.4111 29.6834C27.1672 29.0859 26.3259 28.4153 25.0822 27.83C23.8995 27.2569 23.2654 27.1228 22.546 27.2935ZM24.8383 28.1836C26.082 28.7811 26.8868 29.4517 27.0697 30.0613C27.277 30.7564 27.1428 31.4392 26.6551 32.1342C26.4234 32.4512 26.2405 32.7682 26.2405 32.8414C26.2405 32.9999 26.7892 33.134 27.4111 33.134C27.6428 33.134 27.8257 33.1706 27.8257 33.2316C27.8257 33.2804 27.4721 33.7315 27.0331 34.2192C26.5941 34.7191 26.2405 35.1825 26.2405 35.2556C26.2405 35.3288 26.3137 35.3044 26.3991 35.2069C26.4844 35.1093 26.9356 34.5972 27.3867 34.0851C28.1549 33.2072 28.2402 33.1462 28.5938 33.2194C28.8133 33.256 29.0084 33.3047 29.0328 33.3291C29.0572 33.3535 28.8621 33.6096 28.606 33.89C27.9354 34.6216 27.4111 35.3288 27.4843 35.402C27.5208 35.4264 27.7037 35.2556 27.8866 34.9996C28.0695 34.7435 28.4841 34.2802 28.7889 33.951C29.2523 33.4633 29.4108 33.3779 29.801 33.3779C30.057 33.3779 30.2643 33.4023 30.2643 33.4389C30.2643 33.4754 29.8253 34.0363 29.2888 34.6826C28.7523 35.3288 28.35 35.8897 28.3865 35.9263C28.4231 35.9629 28.5694 35.8287 28.7158 35.6336C28.8621 35.4264 29.362 34.8411 29.8131 34.3168C30.4228 33.634 30.7276 33.3779 30.9471 33.3779C31.1544 33.3779 31.2398 33.4389 31.2398 33.6218C31.2398 33.7559 31.1666 33.8656 31.0934 33.8778C30.9227 33.8778 28.7523 36.9017 28.8377 36.9993C28.8743 37.0237 29.3742 36.3896 29.9595 35.5849C30.5447 34.7679 31.0812 34.1095 31.1544 34.1095C31.2276 34.1095 31.2519 34.3899 31.2032 34.8899C31.13 35.6093 31.069 35.7556 30.2521 36.9017C29.7766 37.5845 29.4108 38.1698 29.4474 38.2064C29.4717 38.243 29.8131 37.8284 30.1911 37.2797C30.5691 36.7432 30.9227 36.3043 30.9837 36.3043C31.0325 36.3043 31.0569 36.731 31.0325 37.2431C30.9715 38.2552 30.8983 38.4137 29.7034 39.9866C29.4595 40.3158 29.3132 40.5719 29.3742 40.5719C29.4352 40.5719 29.8131 40.1329 30.2033 39.5964C30.5935 39.0599 30.9593 38.621 31.0203 38.621C31.069 38.621 31.1178 38.8892 31.1178 39.2184C31.1178 39.7062 31.0325 39.9378 30.6789 40.4621C30.1424 41.2669 29.6546 42.0838 29.6546 42.1936C29.6546 42.2423 29.7156 42.2789 29.7766 42.2789C29.8497 42.2789 29.8985 42.218 29.8985 42.157C29.8985 41.9619 30.8861 40.4499 31.0081 40.4499C31.069 40.4499 31.1178 40.7914 31.1178 41.2059C31.1178 41.9497 31.0934 42.0107 30.3253 43.1203C29.8863 43.7543 29.5693 44.303 29.6059 44.3396C29.6546 44.3762 29.74 44.3152 29.8253 44.1811C29.8985 44.0591 30.2033 43.6202 30.5082 43.2056L31.0569 42.4618L31.0934 42.8764C31.13 43.1812 31.0325 43.4373 30.7154 43.9128C30.2033 44.681 29.8619 45.3272 29.9351 45.4004C29.9595 45.437 30.2277 45.059 30.5204 44.5712L31.0569 43.6811L31.0934 44.1323C31.1178 44.4859 31.0203 44.7419 30.6423 45.3638C30.3618 45.7906 30.1424 46.2173 30.1424 46.3149C30.1424 46.4124 30.3496 46.1686 30.5813 45.7784C30.8252 45.4004 31.069 45.0834 31.13 45.0834C31.2763 45.0834 31.2763 46.9367 31.1178 47.3269C31.0081 47.6195 30.9593 47.6439 30.5325 47.5708C30.2765 47.5342 28.8621 47.5586 27.3867 47.6439C25.9235 47.7293 23.4849 47.7902 21.9851 47.7902C19.5221 47.8024 19.2417 47.7781 19.1441 47.583C19.0222 47.3757 19.0953 44.2908 19.2417 43.2666C19.3392 42.6081 19.2295 42.5228 18.193 42.5228C17.1322 42.5228 16.169 42.2423 15.7422 41.84C15.413 41.5229 15.3886 41.4376 15.3886 40.5353C15.3886 39.6086 15.4008 39.5598 15.791 39.1697C16.5592 38.4015 18.6564 38.0845 19.2538 38.6454C19.4733 38.8526 19.5709 38.877 19.6806 38.7673C19.8025 38.6454 19.7782 38.5356 19.6196 38.2674C19.4489 37.9747 19.4124 37.5724 19.4124 35.8287C19.4124 34.268 19.4489 33.7193 19.5709 33.6827C19.644 33.6461 20.0464 33.573 20.4488 33.512C22.6314 33.1828 23.0825 33.0731 23.0459 32.8902C23.0215 32.7682 22.8143 32.6829 22.4607 32.6463C21.3755 32.5244 20.7536 31.7562 20.7536 30.5491C20.7536 29.2444 21.2657 28.2324 22.0949 27.9032C22.2656 27.8422 22.7533 27.7812 23.1922 27.7812C23.8629 27.769 24.1311 27.8422 24.8383 28.1836Z" fill="black"/>
<path d="M21.826 46.4612C20.375 46.6075 20.2287 46.766 21.6431 46.6441C22.1918 46.6075 23.2282 46.5587 23.9598 46.5587C24.7402 46.5465 25.2645 46.4977 25.2645 46.4246C25.2645 46.2783 23.4721 46.2905 21.826 46.4612Z" fill="black"/>
<path d="M26.4838 46.5465C26.4838 46.6196 26.6179 46.644 26.8252 46.5952C27.3007 46.4733 27.3129 46.4245 26.874 46.4245C26.6545 46.4245 26.4838 46.4855 26.4838 46.5465Z" fill="black"/>
<path d="M35.1778 32.3415C34.9949 32.4756 34.9096 32.7073 34.8486 33.2194C34.7998 33.6096 34.7023 34.0851 34.6291 34.268C34.5194 34.5363 34.5316 34.6338 34.6901 34.7557C35.1656 35.1337 35.2632 36.0848 35.3241 41.0108C35.3607 43.8153 35.4339 45.7906 35.507 45.8637C35.5802 45.9369 36.1411 45.9979 36.7507 46.0222C37.3726 46.0466 38.0188 46.071 38.1895 46.0954C38.47 46.1198 38.5066 46.0588 38.6407 45.3516C38.9699 43.7055 39.7869 42.5838 40.8964 42.2545C41.689 42.0229 43.5911 42.0595 44.53 42.3399C45.1519 42.5228 45.4811 42.7179 46.0663 43.2422C46.4687 43.6202 46.9199 44.0226 47.0662 44.1323C47.2125 44.2542 47.3344 44.4859 47.3344 44.6444C47.3344 44.8029 47.371 45.0956 47.4076 45.3028C47.5051 45.754 47.6393 45.7906 49.4439 45.8393C51.0412 45.8759 51.1143 45.8271 51.1143 44.6078C51.1143 44.1689 51.1875 43.3885 51.285 42.8886C51.407 42.2424 51.4557 40.8279 51.4679 38.0723C51.4801 35.658 51.5411 33.9754 51.6264 33.634C51.8337 32.8292 51.6264 32.7073 49.834 32.6097C49.0415 32.561 47.7246 32.439 46.8955 32.3293C45.1397 32.0854 45.0055 32.122 45.1031 32.8902C45.1884 33.4876 44.9446 33.9022 44.3105 34.2192C43.2497 34.7557 42.006 34.5972 41.1769 33.8169C40.7867 33.4389 40.7623 33.3779 40.872 33.0609C41.1159 32.439 40.994 32.3781 39.6893 32.4634C38.8724 32.5244 38.0798 32.4878 37.1653 32.3537C35.5314 32.1098 35.507 32.1098 35.1778 32.3415ZM37.3726 32.8414C38.2627 32.9633 39.165 32.9999 39.6283 32.9633L40.3843 32.878V33.2926C40.3843 33.5852 40.4941 33.7925 40.7867 34.0851C41.9207 35.1825 44.0545 35.3044 44.9812 34.329C45.4689 33.8047 45.6274 33.4876 45.6274 32.9999C45.6274 32.6097 45.6274 32.6097 46.1517 32.6951C46.4321 32.7317 47.0052 32.8048 47.432 32.8414C47.8465 32.8902 48.2245 32.9633 48.2489 33.0243C48.2855 33.0731 47.8587 33.5364 47.3101 34.0485C46.7492 34.5606 46.4078 34.9264 46.5419 34.8655C46.676 34.7923 47.2125 34.3412 47.7368 33.8656C48.6757 32.9999 48.7001 32.9877 49.2366 33.0487C49.5414 33.0731 49.8097 33.134 49.834 33.1584C49.8584 33.1828 49.2853 33.8169 48.5538 34.5606C47.81 35.3044 47.2125 35.9629 47.2125 36.036C47.2125 36.1092 47.8831 35.4873 48.7123 34.646L50.1998 33.1218L50.7363 33.1584L51.2728 33.195L49.9194 34.7192C49.1634 35.5605 48.5538 36.2921 48.5538 36.3652C48.5659 36.4262 48.8708 36.1336 49.261 35.6946C50.4559 34.329 50.968 33.8047 51.0412 33.8656C51.0777 33.9022 51.0534 34.2436 51.0046 34.6094C50.9192 35.2678 50.8705 35.341 49.9194 36.2677C49.3707 36.8042 48.9196 37.3041 48.9196 37.3773C48.9196 37.4626 49.3707 37.0724 49.9194 36.5237L50.9314 35.5117L50.968 36.1701L51.0046 36.8286L49.9926 37.8528C49.4439 38.4137 49.0415 38.8648 49.1024 38.8648C49.1756 38.8648 49.6146 38.4747 50.0779 38.0113C50.5412 37.5358 50.968 37.1578 51.0168 37.1578C51.0777 37.1578 51.1143 37.3407 51.1143 37.548C51.1143 37.8772 50.9558 38.1089 50.1754 38.8892C49.0537 40.011 49.0903 40.1695 50.212 39.0843L50.9924 38.3405V38.9014C50.9924 39.4623 50.968 39.4867 50.1389 40.1695C49.6755 40.5597 49.2853 40.9133 49.2853 40.9743C49.2853 41.023 49.6146 40.7914 50.0291 40.45C50.4315 40.1207 50.8095 39.8403 50.8827 39.8403C50.9436 39.8403 50.9924 40.0476 50.9924 40.3036C50.9924 40.7914 50.7363 41.1084 49.7365 41.8522C49.4804 42.0351 49.3097 42.218 49.3341 42.2424C49.3707 42.2789 49.7243 42.0473 50.1267 41.7424C50.5291 41.4376 50.8827 41.1815 50.9192 41.1815C50.9558 41.1815 50.9924 41.3888 50.9924 41.6449C50.9924 42.0595 50.9314 42.157 50.3583 42.5838C49.5658 43.1934 49.3707 43.3885 49.4682 43.4861C49.517 43.5226 49.5902 43.4739 49.6511 43.3641C49.7853 43.1203 50.7363 42.4618 50.8217 42.5472C50.8461 42.5838 50.8461 42.8398 50.7973 43.1325C50.7241 43.5592 50.6144 43.7177 50.1267 44.0835C49.5048 44.5469 49.3829 44.7907 49.9804 44.3884C50.6388 43.925 50.6266 43.9128 50.6266 44.7176V45.4614L49.2 45.4248L47.7612 45.3882V44.742C47.7612 44.1567 47.7246 44.0591 47.4076 43.8275C47.2125 43.6811 46.7979 43.3032 46.4931 42.9983C45.5298 42.0351 44.4081 41.6327 42.5791 41.6205C40.7989 41.6083 39.7259 42.0595 38.9943 43.1325C38.6895 43.5836 38.2261 44.8273 38.1652 45.3272C38.1286 45.6321 38.1164 45.6321 37.0922 45.5955C36.5191 45.5711 36.0192 45.5101 35.9704 45.4614C35.9216 45.4248 35.8485 43.3519 35.7997 40.8767C35.7265 36.8773 35.6899 36.2555 35.4705 35.4507C35.2388 34.6094 35.1656 33.0243 35.3363 32.7439C35.4217 32.6097 35.6899 32.6219 37.3726 32.8414Z" fill="black"/>
<path d="M37.0679 35.9994C37.1166 36.5969 37.1532 37.7674 37.1532 38.5844C37.1532 39.3891 37.1898 40.0353 37.2507 39.9988C37.3971 39.9134 37.3239 37.048 37.141 35.9384L36.9825 34.902L37.0679 35.9994Z" fill="black"/>
<path d="M37.2387 41.4865C37.2387 41.6815 37.2631 41.7547 37.2996 41.6328C37.324 41.523 37.324 41.3523 37.2996 41.267C37.2631 41.1938 37.2387 41.2792 37.2387 41.4865Z" fill="black"/>
<path d="M41.1773 43.7178C40.6896 44.0226 40.4335 44.3274 40.214 44.8395C39.9702 45.437 39.6287 47.5098 39.7141 47.9C39.7629 48.0829 39.7385 48.2658 39.6653 48.3024C39.6044 48.339 38.6045 48.3146 37.434 48.2536C36.2756 48.1805 35.166 48.1683 34.971 48.2292L34.6173 48.3268L34.6417 51.241C34.6417 52.8505 34.6539 54.2039 34.6539 54.2527C34.6539 54.4356 35.0075 54.3502 35.1173 54.1551C35.2514 53.9113 35.7513 53.9966 36.3488 54.3624C36.8731 54.6794 37.5803 56.167 37.5803 56.9474C37.5803 57.7033 37.0438 58.4593 36.044 59.1056C35.0563 59.7518 34.9466 59.9469 35.227 60.4712C35.3733 60.7638 35.4465 61.2516 35.4831 62.2392C35.5196 63.2025 35.5806 63.6536 35.7025 63.7512C35.8732 63.8975 41.3724 63.739 45.201 63.4829C46.2131 63.4098 47.5665 63.3244 48.2128 63.2878C49.1394 63.2391 49.4077 63.1781 49.4808 63.0196C49.5296 62.9098 49.615 60.9345 49.6637 58.6178C49.7125 56.3011 49.8101 53.9722 49.8832 53.4357C50.0173 52.3383 50.0539 50.0094 49.9442 49.3266C49.8954 49.0828 49.7735 48.8389 49.6637 48.8023C49.554 48.7535 48.9809 48.6926 48.3713 48.656C47.7738 48.6316 47.1519 48.5828 47.0178 48.5585C46.7496 48.4975 46.7496 48.4975 46.9812 48.0463C47.469 47.0831 47.2129 46.2905 46.0058 45.0712C44.8718 43.9494 44.0671 43.5714 42.6405 43.5227C41.726 43.4983 41.4821 43.5227 41.1773 43.7178ZM44.2256 44.3396C45.579 44.9858 46.7252 46.2417 46.7252 47.0831C46.7252 47.6684 46.4935 48.1195 46.0911 48.3268C45.4571 48.656 45.7497 48.9852 46.7008 48.9852C46.9081 48.9852 47.091 49.034 47.091 49.095C47.091 49.1559 46.713 49.4607 46.2375 49.7778C45.7741 50.0948 45.3839 50.3996 45.3839 50.4606C45.3839 50.5216 45.8473 50.2411 46.4082 49.8387C47.3226 49.1925 47.5055 49.1071 48.0177 49.1071C48.7371 49.1071 48.7127 49.1437 46.8837 50.6069C46.1277 51.2044 45.5059 51.7531 45.5059 51.814C45.5059 51.9116 47.7738 50.1314 48.5176 49.4364C48.8102 49.1559 48.9687 49.095 49.2126 49.1559C49.8223 49.3022 49.6272 49.7168 48.3225 50.9727C47.6519 51.6068 46.9447 52.2286 46.7374 52.3505C46.5301 52.4725 46.3594 52.6188 46.3594 52.6798C46.3594 52.8505 47.408 52.0457 48.4322 51.0946C48.9565 50.6069 49.4199 50.2045 49.4565 50.2045C49.493 50.2045 49.5296 50.3509 49.5296 50.5338C49.5296 50.7776 49.3223 51.0824 48.7127 51.6921C48.2615 52.1554 47.9445 52.5212 48.0177 52.5212C48.0786 52.5212 48.4078 52.2408 48.7371 51.9116C49.0663 51.5702 49.3833 51.3019 49.4321 51.3019C49.4808 51.3019 49.5296 51.5092 49.5296 51.7653C49.5296 52.1676 49.4321 52.314 48.7371 53.009C48.2981 53.4357 47.9445 53.8503 47.9445 53.9113C47.9445 53.9844 48.2737 53.7162 48.6761 53.3138C49.0785 52.9236 49.4321 52.631 49.4687 52.6554C49.5052 52.6919 49.493 52.9846 49.4565 53.3016C49.3833 53.8259 49.2858 53.96 48.3835 54.8014C47.2861 55.8256 47.3592 55.8744 48.5054 54.8745C48.92 54.5209 49.2736 54.2283 49.2979 54.2283C49.3345 54.2283 49.3345 54.46 49.2979 54.7404C49.2614 55.1794 49.1272 55.3988 48.42 56.167C47.9567 56.6669 47.5787 57.1303 47.5787 57.2034C47.5787 57.2766 47.9323 56.9474 48.3713 56.484L49.1516 55.6305L49.1638 56.2402C49.1638 56.8498 49.1638 56.8498 48.0664 57.9472C47.469 58.5569 46.969 59.0934 46.969 59.1665C46.969 59.2275 47.4202 58.8373 47.9811 58.2764C48.5298 57.7277 49.0297 57.2766 49.0785 57.2766C49.1272 57.2766 49.1638 57.557 49.1638 57.8984C49.1638 58.4959 49.1272 58.5691 48.3956 59.3982C47.3714 60.5444 47.2373 60.8492 48.2128 59.8006C48.6395 59.3494 49.0175 58.9836 49.0785 58.9836C49.1272 58.9836 49.1638 59.2275 49.1638 59.5323C49.1638 60.0079 49.0907 60.1786 48.6029 60.7638C48.2981 61.1418 48.0786 61.4832 48.1152 61.5198C48.1518 61.5564 48.2006 61.5564 48.2249 61.532C48.2493 61.5076 48.42 61.2759 48.6029 61.0199C48.798 60.776 49.0053 60.5687 49.0785 60.5687C49.1882 60.5687 49.1394 62.5928 49.0297 62.6904C48.8346 62.8611 36.1903 63.4951 36.044 63.3366C36.0074 63.3 35.9586 62.7391 35.9464 62.0685C35.922 61.3247 35.8367 60.7029 35.7269 60.4346L35.5318 59.9835L36.3976 59.3982C36.8731 59.069 37.434 58.5691 37.6413 58.2764C37.9461 57.8253 38.0071 57.6302 38.0071 56.9839C38.0071 56.3255 37.9339 56.0695 37.4827 55.155C37.0072 54.1917 36.8975 54.0576 36.4219 53.8503C36.1293 53.7162 35.7269 53.582 35.5196 53.5455L35.1538 53.4723L35.1173 51.0946C35.0929 49.5827 35.1295 48.6926 35.2026 48.6682C35.2758 48.6438 36.5317 48.6682 38.0071 48.717C39.6531 48.7779 40.7871 48.7657 40.9334 48.7048C41.1651 48.5828 41.1651 48.5828 40.8968 48.3877C40.7383 48.278 40.5067 48.1073 40.3603 47.9976L40.0921 47.8025L40.2872 46.5588C40.5067 45.2053 40.8725 44.3884 41.3602 44.1445C41.5309 44.0592 42.0796 43.986 42.5795 43.986C43.3355 43.986 43.6159 44.047 44.2256 44.3396Z" fill="black"/>
<path d="M40.665 61.7757C39.1165 61.8123 37.7996 61.8854 37.7508 61.9342C37.5679 62.1171 37.7996 62.1537 38.4336 62.0317C38.7872 61.9708 40.1651 61.9098 41.4941 61.9098C43.0305 61.9098 43.9206 61.861 43.9206 61.7879C43.9206 61.7147 43.823 61.6781 43.7133 61.6903C43.5914 61.7025 42.2257 61.7391 40.665 61.7757Z" fill="black"/>
<path d="M45.2612 61.8854C45.2612 61.9464 45.4563 62.0317 45.688 62.0561C45.9196 62.0805 46.1147 62.0561 46.1147 62.0073C46.1147 61.9586 46.0416 61.9098 45.9684 61.9098C45.8831 61.9098 45.688 61.8732 45.5417 61.8366C45.3831 61.7879 45.2612 61.8122 45.2612 61.8854Z" fill="black"/>
<path d="M21.7288 50.3386C21.4972 50.4117 20.3388 50.5093 19.1683 50.5459L17.0344 50.6312L17.071 51.5091C17.0954 51.9847 17.0223 52.9479 16.9125 53.6307C16.7418 54.6306 16.7174 55.1793 16.8028 56.3498C16.8515 57.1668 16.9003 59.1299 16.9003 60.7272C16.9125 63.1658 16.9369 63.6413 17.0954 63.7389C17.3271 63.8852 17.9733 63.8852 18.8147 63.7389C19.1804 63.6779 20.6314 63.5316 22.0337 63.4341C23.4481 63.3243 24.704 63.2024 24.8381 63.1658C24.9722 63.1292 26.155 63.1048 27.4596 63.1048C28.7643 63.117 29.9226 63.1048 30.0324 63.0683C30.2153 63.0073 30.2397 62.8732 30.1787 62.105C30.1421 61.6173 30.1421 60.9101 30.1909 60.5443L30.2762 59.8737L30.7762 60.0444C31.837 60.4102 32.8246 59.5932 33.5074 57.752C34.3 55.667 34.0439 53.9843 32.8368 53.4478C32.3491 53.2162 31.3614 53.2162 30.642 53.4478C30.3738 53.521 30.3494 53.5088 30.4348 53.2406C30.4835 53.082 30.5567 52.448 30.5933 51.8383C30.6908 50.2776 30.7762 50.3264 28.0937 50.3264C26.9109 50.3264 25.082 50.302 24.0455 50.2654C22.8994 50.2288 21.9849 50.2654 21.7288 50.3386ZM27.9352 50.8141H29.4593L28.557 51.753C27.6425 52.6797 27.6425 52.6919 28.3741 52.07C28.7765 51.7286 29.2398 51.3018 29.3983 51.1311C29.6666 50.8507 30.1421 50.6922 30.1421 50.8873C30.1421 50.9239 29.691 51.436 29.1545 52.009C28.1302 53.1064 27.7523 53.582 27.8498 53.6795C27.8742 53.7161 28.1059 53.4722 28.3375 53.1552C28.5814 52.8382 29.0935 52.2773 29.4593 51.9115L30.1421 51.2531V51.8627C30.1421 52.4358 30.1055 52.4968 29.4105 53.1918C28.6302 53.96 27.862 54.9598 28.0449 54.9598C28.1059 54.9598 28.2644 54.8135 28.3863 54.6184C28.6667 54.1916 29.7763 53.0089 29.9105 53.0089C29.9592 53.0089 29.9226 53.3259 29.8251 53.7039C29.5934 54.7281 29.6056 55.228 29.8739 55.1793C29.9836 55.1549 30.1421 54.9476 30.2153 54.7159C30.4226 54.0819 30.9956 53.7405 31.8614 53.7405C32.7393 53.7405 33.2026 54.0819 33.4343 54.8866C33.8489 56.362 32.6173 59.4103 31.5078 59.6542C31.1664 59.7273 30.764 59.6054 30.3738 59.325C30.2031 59.203 30.0202 59.2884 29.3252 59.8127C28.8618 60.1541 28.3741 60.5565 28.2522 60.7028C27.923 61.0686 28.2156 60.8979 29.0447 60.2151L29.7154 59.6664L29.7519 60.0444C29.7885 60.3614 29.691 60.5199 29.1179 61.0564C28.7399 61.41 28.4351 61.7636 28.4351 61.8368C28.4351 61.9099 28.6911 61.7148 28.996 61.3856C29.313 61.0686 29.6178 60.8125 29.6788 60.8125C29.7397 60.8125 29.7763 61.2149 29.7519 61.6904L29.7154 62.5805L27.2158 62.6537C24.4967 62.7269 19.912 63.0683 18.9122 63.2512C18.5586 63.3243 18.0831 63.3731 17.827 63.3731H17.3759L17.388 60.7759C17.388 59.3615 17.3393 57.4228 17.2905 56.4839C17.2051 55.1061 17.2295 54.5574 17.388 53.6307C17.4978 52.9967 17.5831 52.1676 17.5831 51.7774C17.5831 51.0946 17.5831 51.0824 17.9855 51.0092C18.1928 50.9726 19.0341 50.936 19.8389 50.936C20.6436 50.9482 21.4728 50.8873 21.6679 50.8263C21.8995 50.741 22.8628 50.7166 24.2162 50.7531C25.4234 50.7897 27.0938 50.8141 27.9352 50.8141Z" fill="black"/>
<path d="M18.8757 53.9234C18.9123 54.3258 18.961 55.4719 18.9976 56.4839C19.0342 58.13 19.1317 59.3128 19.2293 59.203C19.3146 59.1055 19.0464 53.9965 18.9366 53.6185C18.8269 53.2528 18.8147 53.2893 18.8757 53.9234Z" fill="black"/>
<path d="M19.3147 60.8126C19.3147 60.9833 19.3391 61.0442 19.3757 60.9589C19.4001 60.8857 19.4001 60.7394 19.3757 60.6541C19.3391 60.5809 19.3147 60.6419 19.3147 60.8126Z" fill="black"/>
</svg>
