<svg width="59" height="59" viewBox="0 0 59 59" fill="none" xmlns="http://www.w3.org/2000/svg">
<path d="M27.3736 0.563416C23.2279 0.88044 19.948 1.75835 16.3144 3.53855C9.41304 6.92826 4.23093 12.781 1.69475 20.0847C-1.0853 28.0591 -0.170813 37.1674 4.14558 44.3735C8.5839 51.787 15.8632 56.774 24.3741 58.2372C26.2762 58.5664 30.0561 58.6762 32.068 58.4689C35.7259 58.0909 38.8718 57.1764 42.1396 55.5181C47.8947 52.6161 52.2599 48.2022 55.1375 42.3983C56.9299 38.7891 57.8322 35.3262 58.0761 31.2293C58.5638 22.9379 55.4911 14.8782 49.614 9.02549C45.2732 4.69691 39.8107 1.88028 33.8848 0.917015C32.5801 0.709732 29.3123 0.404903 28.8246 0.441483C28.727 0.453678 28.0686 0.502449 27.3736 0.563416ZM33.2141 1.95344C43.3467 3.50197 51.699 10.2692 55.2838 19.8043C59.0271 29.7661 56.7348 40.9838 49.3945 48.7875C45.1879 53.2502 39.5546 56.1644 33.1532 57.2008C31.2754 57.5056 27.1175 57.5056 25.1666 57.213C17.1191 55.9571 10.3275 51.6773 5.86482 45.0198C4.74304 43.3493 3.25547 40.3254 2.63362 38.4599C2.07273 36.7772 1.62159 34.7775 1.37772 32.9851C1.14605 31.2537 1.18263 27.4982 1.43869 25.7302C2.35318 19.5726 5.02349 14.232 9.37645 9.87901C11.681 7.5745 13.7904 6.05035 16.7289 4.58717C19.826 3.03863 23.3255 2.06318 26.9956 1.72177C28.1052 1.62422 31.9704 1.77054 33.2141 1.95344Z" fill="#0054BC"/>
<path d="M18.5461 11.2934C17.8755 11.4519 17.4488 11.6957 17.0342 12.1835C16.5343 12.7444 16.3392 13.3662 16.327 14.3904C16.327 15.5 16.4245 15.817 16.9488 16.4023C17.3756 16.8779 17.3756 16.8779 17.0951 16.951C16.9366 16.9876 16.4001 17.0608 15.9002 17.1095L14.9857 17.1949V17.8655C14.9857 18.2313 14.9613 19.2799 14.9491 20.1944L14.9248 21.8527L13.7054 21.9746C12.6568 22.0722 12.4008 22.1453 11.974 22.4501C11.1449 23.0354 10.962 23.3646 10.9254 24.4254C10.8644 25.913 11.279 26.4373 12.7544 26.8397C13.108 26.925 13.7298 27.0104 14.1444 27.0104H14.876L14.7175 27.9371C14.6077 28.6077 14.5955 29.3149 14.6565 30.4976C14.7175 31.3877 14.7906 32.1559 14.8272 32.1925C14.937 32.3144 20.5702 32.2535 23.0088 32.1193C24.2282 32.0584 25.6792 32.0096 26.24 32.034C26.9107 32.0462 27.2887 32.0096 27.3984 31.8999C27.5081 31.7901 27.5447 30.1806 27.5691 24.84C27.5813 21.0357 27.5935 17.7436 27.5935 17.5119C27.6057 17.2802 27.5691 17.0608 27.5325 17.0242C27.4959 16.9876 26.9107 16.9144 26.2278 16.8779C25.0451 16.8047 22.9723 16.6218 22.9723 16.5974C22.9723 16.5852 23.1064 16.317 23.2771 15.9878C23.6307 15.2927 23.6795 14.3173 23.4112 13.6832C23.1674 13.0858 22.326 12.4151 21.0823 11.8299C19.8996 11.2568 19.2655 11.1227 18.5461 11.2934ZM20.8385 12.1835C22.0822 12.7809 22.8869 13.4516 23.0698 14.0612C23.2771 14.7562 23.143 15.4391 22.6552 16.1341C22.4236 16.4511 22.2407 16.7681 22.2407 16.8413C22.2407 16.9998 22.7894 17.1339 23.4112 17.1339C23.6429 17.1339 23.8258 17.1705 23.8258 17.2315C23.8258 17.2802 23.4722 17.7314 23.0332 18.2191C22.5943 18.719 22.2407 19.1824 22.2407 19.2555C22.2407 19.3287 22.3138 19.3043 22.3992 19.2068C22.4845 19.1092 22.9357 18.5971 23.3868 18.085C24.155 17.2071 24.2404 17.1461 24.594 17.2193C24.8134 17.2558 25.0085 17.3046 25.0329 17.329C25.0573 17.3534 24.8622 17.6094 24.6062 17.8899C23.9355 18.6215 23.4112 19.3287 23.4844 19.4018C23.521 19.4262 23.7039 19.2555 23.8868 18.9995C24.0697 18.7434 24.4842 18.2801 24.7891 17.9509C25.2524 17.4631 25.4109 17.3778 25.8011 17.3778C26.0571 17.3778 26.2644 17.4022 26.2644 17.4387C26.2644 17.4753 25.8255 18.0362 25.289 18.6824C24.7525 19.3287 24.3501 19.8896 24.3867 19.9262C24.4233 19.9627 24.5696 19.8286 24.7159 19.6335C24.8622 19.4262 25.3621 18.841 25.8133 18.3167C26.4229 17.6338 26.7278 17.3778 26.9472 17.3778C27.1545 17.3778 27.2399 17.4387 27.2399 17.6216C27.2399 17.7558 27.1667 17.8655 27.0936 17.8777C26.9229 17.8777 24.7525 20.9016 24.8378 20.9992C24.8744 21.0235 25.3743 20.3895 25.9596 19.5847C26.5449 18.7678 27.0814 18.1094 27.1545 18.1094C27.2277 18.1094 27.2521 18.3898 27.2033 18.8897C27.1301 19.6091 27.0692 19.7554 26.2522 20.9016C25.7767 21.5844 25.4109 22.1697 25.4475 22.2063C25.4719 22.2429 25.8133 21.8283 26.1913 21.2796C26.5693 20.7431 26.9229 20.3041 26.9838 20.3041C27.0326 20.3041 27.057 20.7309 27.0326 21.243C26.9716 22.2551 26.8985 22.4136 25.7035 23.9865C25.4597 24.3157 25.3134 24.5718 25.3743 24.5718C25.4353 24.5718 25.8133 24.1328 26.2035 23.5963C26.5936 23.0598 26.9594 22.6208 27.0204 22.6208C27.0692 22.6208 27.118 22.8891 27.118 23.2183C27.118 23.706 27.0326 23.9377 26.679 24.462C26.1425 25.2668 25.6548 26.0837 25.6548 26.1935C25.6548 26.2422 25.7157 26.2788 25.7767 26.2788C25.8499 26.2788 25.8986 26.2178 25.8986 26.1569C25.8986 25.9618 26.8863 24.4498 27.0082 24.4498C27.0692 24.4498 27.118 24.7912 27.118 25.2058C27.118 25.9496 27.0936 26.0106 26.3254 27.1201C25.8864 27.7542 25.5694 28.3029 25.606 28.3395C25.6548 28.376 25.7401 28.3151 25.8255 28.1809C25.8986 28.059 26.2035 27.6201 26.5083 27.2055L27.057 26.4617L27.0936 26.8763C27.1301 27.1811 27.0326 27.4372 26.7156 27.9127C26.2035 28.6809 25.8621 29.3271 25.9352 29.4003C25.9596 29.4368 26.2278 29.0589 26.5205 28.5711L27.057 27.681L27.0936 28.1322C27.118 28.4858 27.0204 28.7418 26.6424 29.3637C26.362 29.7904 26.1425 30.2172 26.1425 30.3147C26.1425 30.4123 26.3498 30.1684 26.5814 29.7782C26.8253 29.4003 27.0692 29.0832 27.1301 29.0832C27.2765 29.0832 27.2765 30.9366 27.118 31.3268C27.0082 31.6194 26.9594 31.6438 26.5327 31.5706C26.2766 31.5341 24.8622 31.5585 23.3868 31.6438C21.9237 31.7292 19.485 31.7901 17.9853 31.7901C15.5222 31.8023 15.2418 31.7779 15.1442 31.5828C15.0223 31.3756 15.0955 28.2907 15.2418 27.2665C15.3393 26.608 15.2296 26.5227 14.1932 26.5227C13.1324 26.5227 12.1691 26.2422 11.7423 25.8398C11.4131 25.5228 11.3887 25.4375 11.3887 24.5352C11.3887 23.6085 11.4009 23.5597 11.7911 23.1695C12.5593 22.4014 14.6565 22.0843 15.254 22.6452C15.4735 22.8525 15.571 22.8769 15.6807 22.7672C15.8027 22.6452 15.7783 22.5355 15.6198 22.2672C15.4491 21.9746 15.4125 21.5722 15.4125 19.8286C15.4125 18.2679 15.4491 17.7192 15.571 17.6826C15.6442 17.646 16.0465 17.5729 16.4489 17.5119C18.6315 17.1827 19.0826 17.0729 19.0461 16.89C19.0217 16.7681 18.8144 16.6828 18.4608 16.6462C17.3756 16.5243 16.7537 15.7561 16.7537 14.549C16.7537 13.2443 17.2659 12.2323 18.095 11.903C18.2657 11.8421 18.7534 11.7811 19.1924 11.7811C19.863 11.7689 20.1313 11.8421 20.8385 12.1835Z" fill="#0054BC"/>
<path d="M17.826 30.4612C16.375 30.6075 16.2287 30.766 17.6431 30.6441C18.1918 30.6075 19.2282 30.5587 19.9598 30.5587C20.7402 30.5465 21.2645 30.4977 21.2645 30.4246C21.2645 30.2783 19.4721 30.2905 17.826 30.4612Z" fill="#0054BC"/>
<path d="M22.4839 30.5465C22.4839 30.6196 22.618 30.644 22.8253 30.5952C23.3008 30.4733 23.313 30.4245 22.8741 30.4245C22.6546 30.4245 22.4839 30.4855 22.4839 30.5465Z" fill="#0054BC"/>
<path d="M31.1778 16.3415C30.9949 16.4756 30.9096 16.7073 30.8486 17.2194C30.7998 17.6096 30.7023 18.0851 30.6291 18.268C30.5194 18.5363 30.5316 18.6338 30.6901 18.7557C31.1656 19.1337 31.2632 20.0848 31.3241 25.0108C31.3607 27.8153 31.4339 29.7906 31.507 29.8637C31.5802 29.9369 32.1411 29.9979 32.7507 30.0222C33.3726 30.0466 34.0188 30.071 34.1895 30.0954C34.47 30.1198 34.5066 30.0588 34.6407 29.3516C34.9699 27.7055 35.7868 26.5838 36.8964 26.2545C37.689 26.0229 39.5911 26.0595 40.53 26.3399C41.1518 26.5228 41.4811 26.7179 42.0663 27.2422C42.4687 27.6202 42.9199 28.0226 43.0662 28.1323C43.2125 28.2542 43.3344 28.4859 43.3344 28.6444C43.3344 28.8029 43.371 29.0956 43.4076 29.3028C43.5051 29.754 43.6393 29.7906 45.4438 29.8393C47.0412 29.8759 47.1143 29.8271 47.1143 28.6078C47.1143 28.1689 47.1875 27.3885 47.285 26.8886C47.4069 26.2424 47.4557 24.8279 47.4679 22.0723C47.4801 19.658 47.5411 17.9754 47.6264 17.634C47.8337 16.8292 47.6264 16.7073 45.834 16.6097C45.0415 16.561 43.7246 16.439 42.8955 16.3293C41.1396 16.0854 41.0055 16.122 41.1031 16.8902C41.1884 17.4876 40.9446 17.9022 40.3105 18.2192C39.2497 18.7557 38.006 18.5972 37.1769 17.8169C36.7867 17.4389 36.7623 17.3779 36.872 17.0609C37.1159 16.439 36.994 16.3781 35.6893 16.4634C34.8723 16.5244 34.0798 16.4878 33.1653 16.3537C31.5314 16.1098 31.507 16.1098 31.1778 16.3415ZM33.3726 16.8414C34.2627 16.9633 35.165 16.9999 35.6283 16.9633L36.3843 16.878V17.2926C36.3843 17.5852 36.494 17.7925 36.7867 18.0851C37.9206 19.1825 40.0545 19.3044 40.9811 18.329C41.4689 17.8047 41.6274 17.4876 41.6274 16.9999C41.6274 16.6097 41.6274 16.6097 42.1517 16.6951C42.4321 16.7317 43.0052 16.8048 43.432 16.8414C43.8465 16.8902 44.2245 16.9633 44.2489 17.0243C44.2855 17.0731 43.8587 17.5364 43.31 18.0485C42.7491 18.5606 42.4077 18.9264 42.5419 18.8655C42.676 18.7923 43.2125 18.3412 43.7368 17.8656C44.6757 16.9999 44.7001 16.9877 45.2366 17.0487C45.5414 17.0731 45.8096 17.134 45.834 17.1584C45.8584 17.1828 45.2853 17.8169 44.5537 18.5606C43.81 19.3044 43.2125 19.9629 43.2125 20.036C43.2125 20.1092 43.8831 19.4873 44.7123 18.646L46.1998 17.1218L46.7363 17.1584L47.2728 17.195L45.9194 18.7192C45.1634 19.5605 44.5537 20.2921 44.5537 20.3652C44.5659 20.4262 44.8708 20.1336 45.2609 19.6946C46.4559 18.329 46.968 17.8047 47.0412 17.8656C47.0777 17.9022 47.0533 18.2436 47.0046 18.6094C46.9192 19.2678 46.8704 19.341 45.9194 20.2677C45.3707 20.8042 44.9195 21.3041 44.9195 21.3773C44.9195 21.4626 45.3707 21.0724 45.9194 20.5237L46.9314 19.5117L46.968 20.1701L47.0046 20.8286L45.9925 21.8528C45.4438 22.4137 45.0415 22.8648 45.1024 22.8648C45.1756 22.8648 45.6145 22.4747 46.0779 22.0113C46.5412 21.5358 46.968 21.1578 47.0168 21.1578C47.0777 21.1578 47.1143 21.3407 47.1143 21.548C47.1143 21.8772 46.9558 22.1089 46.1754 22.8892C45.0537 24.011 45.0902 24.1695 46.212 23.0843L46.9924 22.3405V22.9014C46.9924 23.4623 46.968 23.4867 46.1389 24.1695C45.6755 24.5597 45.2853 24.9133 45.2853 24.9743C45.2853 25.023 45.6145 24.7914 46.0291 24.45C46.4315 24.1207 46.8095 23.8403 46.8826 23.8403C46.9436 23.8403 46.9924 24.0476 46.9924 24.3036C46.9924 24.7914 46.7363 25.1084 45.7365 25.8522C45.4804 26.0351 45.3097 26.218 45.3341 26.2424C45.3707 26.2789 45.7243 26.0473 46.1267 25.7424C46.529 25.4376 46.8826 25.1815 46.9192 25.1815C46.9558 25.1815 46.9924 25.3888 46.9924 25.6449C46.9924 26.0595 46.9314 26.157 46.3583 26.5838C45.5658 27.1934 45.3707 27.3885 45.4682 27.4861C45.517 27.5226 45.5902 27.4739 45.6511 27.3641C45.7853 27.1203 46.7363 26.4618 46.8217 26.5472C46.8461 26.5838 46.8461 26.8398 46.7973 27.1325C46.7241 27.5592 46.6144 27.7177 46.1267 28.0835C45.5048 28.5469 45.3829 28.7907 45.9803 28.3884C46.6388 27.925 46.6266 27.9128 46.6266 28.7176V29.4614L45.2 29.4248L43.7612 29.3882V28.742C43.7612 28.1567 43.7246 28.0591 43.4076 27.8275C43.2125 27.6811 42.7979 27.3032 42.4931 26.9983C41.5298 26.0351 40.4081 25.6327 38.5791 25.6205C36.7989 25.6083 35.7259 26.0595 34.9943 27.1325C34.6895 27.5836 34.2261 28.8273 34.1651 29.3272C34.1286 29.6321 34.1164 29.6321 33.0921 29.5955C32.5191 29.5711 32.0191 29.5101 31.9704 29.4614C31.9216 29.4248 31.8484 27.3519 31.7997 24.8767C31.7265 20.8773 31.6899 20.2555 31.4704 19.4507C31.2388 18.6094 31.1656 17.0243 31.3363 16.7439C31.4217 16.6097 31.6899 16.6219 33.3726 16.8414Z" fill="#0054BC"/>
<path d="M33.068 19.9994C33.1168 20.5969 33.1534 21.7674 33.1534 22.5844C33.1534 23.3891 33.19 24.0353 33.2509 23.9988C33.3972 23.9134 33.3241 21.048 33.1412 19.9384L32.9827 18.902L33.068 19.9994Z" fill="#0054BC"/>
<path d="M33.2388 25.4865C33.2388 25.6815 33.2632 25.7547 33.2997 25.6328C33.3241 25.523 33.3241 25.3523 33.2997 25.267C33.2632 25.1938 33.2388 25.2792 33.2388 25.4865Z" fill="#0054BC"/>
<path d="M37.1774 27.7178C36.6896 28.0226 36.4336 28.3274 36.2141 28.8395C35.9702 29.437 35.6288 31.5098 35.7142 31.9C35.763 32.0829 35.7386 32.2658 35.6654 32.3024C35.6044 32.339 34.6046 32.3146 33.4341 32.2536C32.2757 32.1805 31.1661 32.1683 30.971 32.2292L30.6174 32.3268L30.6418 35.241C30.6418 36.8505 30.654 38.2039 30.654 38.2527C30.654 38.4356 31.0076 38.3502 31.1174 38.1551C31.2515 37.9113 31.7514 37.9966 32.3489 38.3624C32.8732 38.6794 33.5804 40.167 33.5804 40.9474C33.5804 41.7033 33.0439 42.4593 32.044 43.1056C31.0564 43.7518 30.9466 43.9469 31.2271 44.4712C31.3734 44.7638 31.4466 45.2516 31.4831 46.2392C31.5197 47.2025 31.5807 47.6536 31.7026 47.7512C31.8733 47.8975 37.3725 47.739 41.2011 47.4829C42.2132 47.4098 43.5666 47.3244 44.2128 47.2878C45.1395 47.2391 45.4078 47.1781 45.4809 47.0196C45.5297 46.9098 45.6151 44.9345 45.6638 42.6178C45.7126 40.3011 45.8101 37.9722 45.8833 37.4357C46.0174 36.3383 46.054 34.0094 45.9443 33.3266C45.8955 33.0828 45.7736 32.8389 45.6638 32.8023C45.5541 32.7535 44.981 32.6926 44.3713 32.656C43.7739 32.6316 43.152 32.5828 43.0179 32.5585C42.7497 32.4975 42.7497 32.4975 42.9813 32.0463C43.4691 31.0831 43.213 30.2905 42.0059 29.0712C40.8719 27.9494 40.0672 27.5714 38.6405 27.5227C37.7261 27.4983 37.4822 27.5227 37.1774 27.7178ZM40.2257 28.3396C41.5791 28.9858 42.7253 30.2417 42.7253 31.0831C42.7253 31.6684 42.4936 32.1195 42.0912 32.3268C41.4572 32.656 41.7498 32.9852 42.7009 32.9852C42.9082 32.9852 43.0911 33.034 43.0911 33.095C43.0911 33.1559 42.7131 33.4607 42.2375 33.7778C41.7742 34.0948 41.384 34.3996 41.384 34.4606C41.384 34.5216 41.8474 34.2411 42.4082 33.8387C43.3227 33.1925 43.5056 33.1071 44.0177 33.1071C44.7371 33.1071 44.7128 33.1437 42.8838 34.6069C42.1278 35.2044 41.5059 35.7531 41.5059 35.814C41.5059 35.9116 43.7739 34.1314 44.5177 33.4364C44.8103 33.1559 44.9688 33.095 45.2127 33.1559C45.8223 33.3022 45.6272 33.7168 44.3226 34.9727C43.6519 35.6068 42.9447 36.2286 42.7375 36.3505C42.5302 36.4725 42.3595 36.6188 42.3595 36.6798C42.3595 36.8505 43.4081 36.0457 44.4323 35.0946C44.9566 34.6069 45.42 34.2045 45.4565 34.2045C45.4931 34.2045 45.5297 34.3509 45.5297 34.5338C45.5297 34.7776 45.3224 35.0824 44.7128 35.6921C44.2616 36.1554 43.9446 36.5212 44.0177 36.5212C44.0787 36.5212 44.4079 36.2408 44.7371 35.9116C45.0664 35.5702 45.3834 35.3019 45.4322 35.3019C45.4809 35.3019 45.5297 35.5092 45.5297 35.7653C45.5297 36.1676 45.4322 36.314 44.7371 37.009C44.2982 37.4357 43.9446 37.8503 43.9446 37.9113C43.9446 37.9844 44.2738 37.7162 44.6762 37.3138C45.0786 36.9236 45.4322 36.631 45.4687 36.6554C45.5053 36.6919 45.4931 36.9846 45.4565 37.3016C45.3834 37.8259 45.2858 37.96 44.3835 38.8014C43.2862 39.8256 43.3593 39.8744 44.5055 38.8745C44.92 38.5209 45.2736 38.2283 45.298 38.2283C45.3346 38.2283 45.3346 38.46 45.298 38.7404C45.2615 39.1794 45.1273 39.3988 44.4201 40.167C43.9568 40.6669 43.5788 41.1303 43.5788 41.2034C43.5788 41.2766 43.9324 40.9474 44.3713 40.484L45.1517 39.6305L45.1639 40.2402C45.1639 40.8498 45.1639 40.8498 44.0665 41.9472C43.4691 42.5569 42.9691 43.0934 42.9691 43.1665C42.9691 43.2275 43.4203 42.8373 43.9812 42.2764C44.5299 41.7277 45.0298 41.2766 45.0786 41.2766C45.1273 41.2766 45.1639 41.557 45.1639 41.8984C45.1639 42.4959 45.1273 42.5691 44.3957 43.3982C43.3715 44.5444 43.2374 44.8492 44.2128 43.8006C44.6396 43.3494 45.0176 42.9836 45.0786 42.9836C45.1273 42.9836 45.1639 43.2275 45.1639 43.5323C45.1639 44.0079 45.0907 44.1786 44.603 44.7638C44.2982 45.1418 44.0787 45.4832 44.1153 45.5198C44.1519 45.5564 44.2006 45.5564 44.225 45.532C44.2494 45.5076 44.4201 45.2759 44.603 45.0199C44.7981 44.776 45.0054 44.5687 45.0786 44.5687C45.1883 44.5687 45.1395 46.5928 45.0298 46.6904C44.8347 46.8611 32.1904 47.4951 32.044 47.3366C32.0075 47.3 31.9587 46.7391 31.9465 46.0685C31.9221 45.3247 31.8368 44.7029 31.727 44.4346L31.5319 43.9835L32.3976 43.3982C32.8732 43.069 33.4341 42.5691 33.6413 42.2764C33.9462 41.8253 34.0071 41.6302 34.0071 40.9839C34.0071 40.3255 33.934 40.0695 33.4828 39.155C33.0073 38.1917 32.8976 38.0576 32.422 37.8503C32.1294 37.7162 31.727 37.582 31.5197 37.5455L31.1539 37.4723L31.1174 35.0946C31.093 33.5827 31.1295 32.6926 31.2027 32.6682C31.2759 32.6438 32.5318 32.6682 34.0071 32.717C35.6532 32.7779 36.7872 32.7657 36.9335 32.7048C37.1652 32.5828 37.1652 32.5828 36.8969 32.3877C36.7384 32.278 36.5067 32.1073 36.3604 31.9976L36.0922 31.8025L36.2873 30.5588C36.5067 29.2053 36.8725 28.3884 37.3603 28.1445C37.531 28.0592 38.0797 27.986 38.5796 27.986C39.3356 27.986 39.616 28.047 40.2257 28.3396Z" fill="#0054BC"/>
<path d="M36.665 45.7757C35.1165 45.8123 33.7996 45.8854 33.7508 45.9342C33.5679 46.1171 33.7996 46.1537 34.4337 46.0317C34.7873 45.9708 36.1651 45.9098 37.4941 45.9098C39.0305 45.9098 39.9206 45.861 39.9206 45.7879C39.9206 45.7147 39.823 45.6781 39.7133 45.6903C39.5914 45.7025 38.2257 45.7391 36.665 45.7757Z" fill="#0054BC"/>
<path d="M41.2612 45.8854C41.2612 45.9464 41.4563 46.0317 41.688 46.0561C41.9197 46.0805 42.1148 46.0561 42.1148 46.0073C42.1148 45.9586 42.0416 45.9098 41.9684 45.9098C41.8831 45.9098 41.688 45.8732 41.5417 45.8366C41.3832 45.7879 41.2612 45.8122 41.2612 45.8854Z" fill="#0054BC"/>
<path d="M17.7288 34.3386C17.4971 34.4117 16.3387 34.5093 15.1682 34.5459L13.0344 34.6312L13.071 35.5091C13.0953 35.9847 13.0222 36.9479 12.9124 37.6307C12.7417 38.6306 12.7174 39.1793 12.8027 40.3498C12.8515 41.1668 12.9003 43.1299 12.9003 44.7272C12.9124 47.1658 12.9368 47.6413 13.0953 47.7389C13.327 47.8852 13.9733 47.8852 14.8146 47.7389C15.1804 47.6779 16.6314 47.5316 18.0336 47.4341C19.448 47.3243 20.7039 47.2024 20.838 47.1658C20.9721 47.1292 22.1549 47.1048 23.4596 47.1048C24.7642 47.117 25.9226 47.1048 26.0323 47.0683C26.2152 47.0073 26.2396 46.8732 26.1786 46.105C26.1421 45.6173 26.1421 44.9101 26.1908 44.5443L26.2762 43.8737L26.7761 44.0444C27.8369 44.4102 28.8246 43.5932 29.5074 41.752C30.2999 39.667 30.0439 37.9843 28.8368 37.4478C28.349 37.2162 27.3614 37.2162 26.642 37.4478C26.3737 37.521 26.3493 37.5088 26.4347 37.2406C26.4835 37.082 26.5566 36.448 26.5932 35.8383C26.6907 34.2776 26.7761 34.3264 24.0936 34.3264C22.9109 34.3264 21.0819 34.302 20.0455 34.2654C18.8993 34.2288 17.9848 34.2654 17.7288 34.3386ZM23.9351 34.8141H25.4592L24.5569 35.753C23.6425 36.6797 23.6425 36.6919 24.374 36.07C24.7764 35.7286 25.2398 35.3018 25.3983 35.1311C25.6665 34.8507 26.1421 34.6922 26.1421 34.8873C26.1421 34.9239 25.6909 35.436 25.1544 36.009C24.1302 37.1064 23.7522 37.582 23.8497 37.6795C23.8741 37.7161 24.1058 37.4722 24.3375 37.1552C24.5813 36.8382 25.0934 36.2773 25.4592 35.9115L26.1421 35.2531V35.8627C26.1421 36.4358 26.1055 36.4968 25.4105 37.1918C24.6301 37.96 23.8619 38.9598 24.0448 38.9598C24.1058 38.9598 24.2643 38.8135 24.3862 38.6184C24.6667 38.1916 25.7763 37.0089 25.9104 37.0089C25.9592 37.0089 25.9226 37.3259 25.825 37.7039C25.5934 38.7281 25.6056 39.228 25.8738 39.1793C25.9835 39.1549 26.1421 38.9476 26.2152 38.7159C26.4225 38.0819 26.9956 37.7405 27.8613 37.7405C28.7392 37.7405 29.2025 38.0819 29.4342 38.8866C29.8488 40.362 28.6173 43.4103 27.5077 43.6542C27.1663 43.7273 26.7639 43.6054 26.3737 43.325C26.203 43.203 26.0201 43.2884 25.3251 43.8127C24.8618 44.1541 24.374 44.5565 24.2521 44.7028C23.9229 45.0686 24.2155 44.8979 25.0447 44.2151L25.7153 43.6664L25.7519 44.0444C25.7885 44.3614 25.6909 44.5199 25.1178 45.0564C24.7398 45.41 24.435 45.7636 24.435 45.8368C24.435 45.9099 24.6911 45.7148 24.9959 45.3856C25.3129 45.0686 25.6177 44.8125 25.6787 44.8125C25.7397 44.8125 25.7763 45.2149 25.7519 45.6904L25.7153 46.5805L23.2157 46.6537C20.4966 46.7269 15.912 47.0683 14.9121 47.2512C14.5585 47.3243 14.083 47.3731 13.8269 47.3731H13.3758L13.388 44.7759C13.388 43.3615 13.3392 41.4228 13.2904 40.4839C13.2051 39.1061 13.2295 38.5574 13.388 37.6307C13.4977 36.9967 13.5831 36.1676 13.5831 35.7774C13.5831 35.0946 13.5831 35.0824 13.9854 35.0092C14.1927 34.9726 15.0341 34.936 15.8388 34.936C16.6436 34.9482 17.4727 34.8873 17.6678 34.8263C17.8995 34.741 18.8627 34.7166 20.2162 34.7531C21.4233 34.7897 23.0938 34.8141 23.9351 34.8141Z" fill="#0054BC"/>
<path d="M14.8759 37.9235C14.9124 38.3259 14.9612 39.472 14.9978 40.4841C15.0344 42.1302 15.1319 43.3129 15.2295 43.2032C15.3148 43.1056 15.0466 37.9967 14.9368 37.6187C14.8271 37.2529 14.8149 37.2895 14.8759 37.9235Z" fill="#0054BC"/>
<path d="M15.3147 44.8124C15.3147 44.9832 15.3391 45.0441 15.3757 44.9588C15.4 44.8856 15.4 44.7393 15.3757 44.6539C15.3391 44.5808 15.3147 44.6417 15.3147 44.8124Z" fill="#0054BC"/>
</svg>
